Playwrite-Rg18ShortSlow.ufo
<glyph name="numbersign" format="2">
  <advance width="925"/>
  <unicode hex="0023"/>
  <outline>
    <contour>
      <point x="176" y="-19" type="curve" smooth="yes"/>
      <point x="205" y="-25"/>
      <point x="221" y="-21"/>
      <point x="229" y="-2" type="curve" smooth="yes"/>
      <point x="316" y="228" type="line"/>
      <point x="569" y="228" type="line"/>
      <point x="490" y="20" type="line" smooth="yes"/>
      <point x="483" y="1"/>
      <point x="494" y="-12"/>
      <point x="520" y="-19" type="curve" smooth="yes"/>
      <point x="549" y="-25"/>
      <point x="565" y="-21"/>
      <point x="573" y="-2" type="curve" smooth="yes"/>
      <point x="660" y="228" type="line"/>
      <point x="833" y="228" type="line" smooth="yes"/>
      <point x="853" y="228"/>
      <point x="863" y="238"/>
      <point x="873" y="268" type="curve" smooth="yes"/>
      <point x="883" y="298"/>
      <point x="878" y="308"/>
      <point x="858" y="308" type="curve" smooth="yes"/>
      <point x="690" y="308" type="line"/>
      <point x="787" y="566" type="line"/>
      <point x="973" y="566" type="line" smooth="yes"/>
      <point x="993" y="566"/>
      <point x="1003" y="576"/>
      <point x="1013" y="606" type="curve" smooth="yes"/>
      <point x="1023" y="636"/>
      <point x="1018" y="646"/>
      <point x="998" y="646" type="curve" smooth="yes"/>
      <point x="817" y="646" type="line"/>
      <point x="896" y="855" type="line" smooth="yes"/>
      <point x="904" y="874"/>
      <point x="893" y="886"/>
      <point x="866" y="894" type="curve" smooth="yes"/>
      <point x="838" y="901"/>
      <point x="821" y="896"/>
      <point x="814" y="878" type="curve" smooth="yes"/>
      <point x="726" y="646" type="line"/>
      <point x="474" y="646" type="line"/>
      <point x="553" y="855" type="line" smooth="yes"/>
      <point x="560" y="874"/>
      <point x="549" y="886"/>
      <point x="523" y="894" type="curve" smooth="yes"/>
      <point x="494" y="901"/>
      <point x="478" y="896"/>
      <point x="470" y="878" type="curve" smooth="yes"/>
      <point x="382" y="646" type="line"/>
      <point x="215" y="646" type="line" smooth="yes"/>
      <point x="195" y="646"/>
      <point x="185" y="636"/>
      <point x="175" y="606" type="curve" smooth="yes"/>
      <point x="165" y="576"/>
      <point x="170" y="566"/>
      <point x="190" y="566" type="curve" smooth="yes"/>
      <point x="352" y="566" type="line"/>
      <point x="255" y="308" type="line"/>
      <point x="75" y="308" type="line" smooth="yes"/>
      <point x="55" y="308"/>
      <point x="45" y="298"/>
      <point x="35" y="268" type="curve" smooth="yes"/>
      <point x="25" y="238"/>
      <point x="30" y="228"/>
      <point x="50" y="228" type="curve" smooth="yes"/>
      <point x="225" y="228" type="line"/>
      <point x="146" y="20" type="line" smooth="yes"/>
      <point x="139" y="1"/>
      <point x="150" y="-12"/>
    </contour>
    <contour>
      <point x="346" y="308" type="line"/>
      <point x="444" y="566" type="line"/>
      <point x="696" y="566" type="line"/>
      <point x="599" y="308" type="line"/>
    </contour>
  </outline>
</glyph>
<glyph name="dollar" format="2">
  <advance width="668"/>
  <unicode hex="0024"/>
  <outline>
    <contour>
      <point x="288" y="-19" type="curve" smooth="yes"/>
      <point x="471" y="-19"/>
      <point x="605" y="85"/>
      <point x="605" y="245" type="curve" smooth="yes"/>
      <point x="605" y="340"/>
      <point x="555" y="415"/>
      <point x="426" y="480" type="curve" smooth="yes"/>
      <point x="315" y="536"/>
      <point x="281" y="585"/>
      <point x="281" y="666" type="curve" smooth="yes"/>
      <point x="281" y="758"/>
      <point x="363" y="805"/>
      <point x="479" y="805" type="curve" smooth="yes"/>
      <point x="568" y="805"/>
      <point x="630" y="771"/>
      <point x="671" y="736" type="curve" smooth="yes"/>
      <point x="684" y="725"/>
      <point x="701" y="728"/>
      <point x="716" y="743" type="curve" smooth="yes"/>
      <point x="734" y="759"/>
      <point x="738" y="774"/>
      <point x="724" y="788" type="curve" smooth="yes"/>
      <point x="675" y="840"/>
      <point x="581" y="890"/>
      <point x="479" y="890" type="curve" smooth="yes"/>
      <point x="300" y="890"/>
      <point x="189" y="793"/>
      <point x="189" y="666" type="curve" smooth="yes"/>
      <point x="189" y="530"/>
      <point x="270" y="463"/>
      <point x="378" y="405" type="curve" smooth="yes"/>
      <point x="468" y="358"/>
      <point x="513" y="318"/>
      <point x="513" y="245" type="curve" smooth="yes"/>
      <point x="513" y="120"/>
      <point x="416" y="66"/>
      <point x="288" y="66" type="curve" smooth="yes"/>
      <point x="185" y="66"/>
      <point x="119" y="101"/>
      <point x="78" y="143" type="curve" smooth="yes"/>
      <point x="64" y="156"/>
      <point x="50" y="151"/>
      <point x="33" y="136" type="curve" smooth="yes"/>
      <point x="19" y="124"/>
      <point x="8" y="109"/>
      <point x="20" y="94" type="curve" smooth="yes"/>
      <point x="75" y="33"/>
      <point x="154" y="-19"/>
    </contour>
    <contour>
      <point x="193" y="-150" type="curve" smooth="yes"/>
      <point x="219" y="-150"/>
      <point x="235" y="-141"/>
      <point x="241" y="-122" type="curve" smooth="yes"/>
      <point x="609" y="1009" type="line" smooth="yes"/>
      <point x="615" y="1028"/>
      <point x="604" y="1036"/>
      <point x="578" y="1036" type="curve" smooth="yes"/>
      <point x="551" y="1036"/>
      <point x="535" y="1028"/>
      <point x="529" y="1009" type="curve" smooth="yes"/>
      <point x="161" y="-122" type="line" smooth="yes"/>
      <point x="155" y="-141"/>
      <point x="166" y="-150"/>
    </contour>
  </outline>
</glyph>
<glyph name="parenright" format="2">
  <advance width="286"/>
  <unicode hex="0029"/>
  <outline>
    <contour>
      <point x="-41" y="-21" type="curve" smooth="yes"/>
      <point x="-65" y="-50"/>
      <point x="-56" y="-61"/>
      <point x="-34" y="-75" type="curve" smooth="yes"/>
      <point x="-4" y="-92"/>
      <point x="14" y="-89"/>
      <point x="38" y="-59" type="curve" smooth="yes"/>
      <point x="169" y="110"/>
      <point x="238" y="274"/>
      <point x="291" y="438" type="curve" smooth="yes"/>
      <point x="345" y="601"/>
      <point x="363" y="763"/>
      <point x="341" y="925" type="curve" smooth="yes"/>
      <point x="338" y="951"/>
      <point x="321" y="954"/>
      <point x="294" y="950" type="curve" smooth="yes"/>
      <point x="263" y="946"/>
      <point x="254" y="935"/>
      <point x="259" y="899" type="curve" smooth="yes"/>
      <point x="278" y="765"/>
      <point x="261" y="601"/>
      <point x="208" y="438" type="curve" smooth="yes"/>
      <point x="154" y="274"/>
      <point x="63" y="110"/>
    </contour>
  </outline>
</glyph>
<glyph name="hyphen" format="2">
  <advance width="576"/>
  <unicode hex="002D"/>
  <outline>
    <contour>
      <point x="143" y="301" type="curve" smooth="yes"/>
      <point x="468" y="301" type="line" smooth="yes"/>
      <point x="488" y="301"/>
      <point x="498" y="311"/>
      <point x="508" y="341" type="curve" smooth="yes"/>
      <point x="518" y="371"/>
      <point x="513" y="381"/>
      <point x="493" y="381" type="curve" smooth="yes"/>
      <point x="168" y="381" type="line" smooth="yes"/>
      <point x="148" y="381"/>
      <point x="138" y="371"/>
      <point x="128" y="341" type="curve" smooth="yes"/>
      <point x="118" y="311"/>
      <point x="123" y="301"/>
    </contour>
  </outline>
</glyph>
<glyph name="one" format="2">
  <advance width="450"/>
  <unicode hex="0031"/>
  <outline>
    <contour>
      <point x="164" y="-14" type="curve" smooth="yes"/>
      <point x="194" y="-14"/>
      <point x="213" y="-7"/>
      <point x="219" y="14" type="curve" smooth="yes"/>
      <point x="488" y="860" type="line" smooth="yes"/>
      <point x="494" y="880"/>
      <point x="480" y="890"/>
      <point x="453" y="890" type="curve" smooth="yes"/>
      <point x="410" y="890"/>
      <point x="400" y="883"/>
      <point x="364" y="854" type="curve" smooth="yes"/>
      <point x="315" y="815"/>
      <point x="248" y="776"/>
      <point x="199" y="749" type="curve" smooth="yes"/>
      <point x="164" y="730"/>
      <point x="151" y="718"/>
      <point x="165" y="688" type="curve" smooth="yes"/>
      <point x="180" y="656"/>
      <point x="199" y="660"/>
      <point x="231" y="676" type="curve" smooth="yes"/>
      <point x="269" y="695"/>
      <point x="318" y="724"/>
      <point x="366" y="756" type="curve"/>
      <point x="128" y="16" type="line" smooth="yes"/>
      <point x="121" y="-4"/>
      <point x="136" y="-14"/>
    </contour>
  </outline>
</glyph>
<glyph name="two" format="2">
  <advance width="663"/>
  <unicode hex="0032"/>
  <outline>
    <contour>
      <point x="-6" y="0" type="curve" smooth="yes"/>
      <point x="499" y="0" type="line" smooth="yes"/>
      <point x="519" y="0"/>
      <point x="539" y="24"/>
      <point x="539" y="60" type="curve" smooth="yes"/>
      <point x="539" y="73"/>
      <point x="533" y="80"/>
      <point x="520" y="80" type="curve" smooth="yes"/>
      <point x="133" y="80" type="line"/>
      <point x="325" y="231" type="line" smooth="yes"/>
      <point x="626" y="468"/>
      <point x="726" y="589"/>
      <point x="726" y="715" type="curve" smooth="yes"/>
      <point x="726" y="819"/>
      <point x="636" y="890"/>
      <point x="513" y="890" type="curve" smooth="yes"/>
      <point x="401" y="890"/>
      <point x="298" y="846"/>
      <point x="231" y="789" type="curve" smooth="yes"/>
      <point x="201" y="763"/>
      <point x="198" y="750"/>
      <point x="215" y="731" type="curve" smooth="yes"/>
      <point x="238" y="706"/>
      <point x="253" y="706"/>
      <point x="280" y="726" type="curve" smooth="yes"/>
      <point x="349" y="775"/>
      <point x="409" y="808"/>
      <point x="493" y="808" type="curve" smooth="yes"/>
      <point x="589" y="808"/>
      <point x="639" y="773"/>
      <point x="639" y="704" type="curve" smooth="yes"/>
      <point x="639" y="614"/>
      <point x="541" y="501"/>
      <point x="281" y="298" type="curve" smooth="yes"/>
      <point x="-19" y="63" type="line" smooth="yes"/>
      <point x="-46" y="41"/>
      <point x="-35" y="0"/>
    </contour>
  </outline>
</glyph>
<glyph name="four" format="2">
  <advance width="675"/>
  <unicode hex="0034"/>
  <outline>
    <contour>
      <point x="418" y="-14" type="curve" smooth="yes"/>
      <point x="448" y="-14"/>
      <point x="463" y="-5"/>
      <point x="469" y="14" type="curve" smooth="yes"/>
      <point x="538" y="223" type="line"/>
      <point x="629" y="223" type="line" smooth="yes"/>
      <point x="649" y="223"/>
      <point x="669" y="246"/>
      <point x="669" y="283" type="curve" smooth="yes"/>
      <point x="669" y="295"/>
      <point x="663" y="303"/>
      <point x="650" y="303" type="curve" smooth="yes"/>
      <point x="564" y="303" type="line"/>
      <point x="653" y="573" type="line" smooth="yes"/>
      <point x="660" y="594"/>
      <point x="644" y="603"/>
      <point x="614" y="603" type="curve" smooth="yes"/>
      <point x="584" y="603"/>
      <point x="569" y="594"/>
      <point x="563" y="575" type="curve" smooth="yes"/>
      <point x="473" y="303" type="line"/>
      <point x="165" y="303" type="line"/>
      <point x="636" y="845" type="line" smooth="yes"/>
      <point x="666" y="879"/>
      <point x="635" y="890"/>
      <point x="606" y="890" type="curve" smooth="yes"/>
      <point x="573" y="890"/>
      <point x="556" y="880"/>
      <point x="539" y="859" type="curve" smooth="yes"/>
      <point x="43" y="281" type="line" smooth="yes"/>
      <point x="21" y="256"/>
      <point x="29" y="223"/>
      <point x="59" y="223" type="curve" smooth="yes"/>
      <point x="447" y="223" type="line"/>
      <point x="379" y="16" type="line" smooth="yes"/>
      <point x="371" y="-5"/>
      <point x="388" y="-14"/>
    </contour>
  </outline>
</glyph>
<glyph name="eight" format="2">
  <advance width="663"/>
  <unicode hex="0038"/>
  <guideline x="63" y="260" angle="72"/>
  <guideline x="488" y="260" angle="72"/>
  <outline>
    <contour>
      <point x="271" y="-19" type="curve" smooth="yes"/>
      <point x="464" y="-19"/>
      <point x="618" y="69"/>
      <point x="618" y="255" type="curve" smooth="yes"/>
      <point x="618" y="343"/>
      <point x="564" y="419"/>
      <point x="493" y="469" type="curve"/>
      <point x="616" y="511"/>
      <point x="726" y="588"/>
      <point x="726" y="725" type="curve" smooth="yes"/>
      <point x="726" y="826"/>
      <point x="623" y="890"/>
      <point x="494" y="890" type="curve" smooth="yes"/>
      <point x="320" y="890"/>
      <point x="199" y="808"/>
      <point x="199" y="660" type="curve" smooth="yes"/>
      <point x="199" y="601"/>
      <point x="224" y="535"/>
      <point x="309" y="476" type="curve"/>
      <point x="148" y="424"/>
      <point x="15" y="328"/>
      <point x="15" y="188" type="curve" smooth="yes"/>
      <point x="15" y="61"/>
      <point x="118" y="-19"/>
    </contour>
    <contour>
      <point x="293" y="61" type="curve" smooth="yes"/>
      <point x="214" y="61"/>
      <point x="106" y="91"/>
      <point x="106" y="189" type="curve" smooth="yes"/>
      <point x="106" y="301"/>
      <point x="238" y="386"/>
      <point x="385" y="434" type="curve"/>
      <point x="473" y="389"/>
      <point x="526" y="335"/>
      <point x="526" y="249" type="curve" smooth="yes"/>
      <point x="526" y="130"/>
      <point x="421" y="61"/>
    </contour>
    <contour>
      <point x="419" y="510" type="curve"/>
      <point x="355" y="545"/>
      <point x="289" y="589"/>
      <point x="289" y="669" type="curve" smooth="yes"/>
      <point x="289" y="774"/>
      <point x="379" y="810"/>
      <point x="478" y="810" type="curve" smooth="yes"/>
      <point x="554" y="810"/>
      <point x="636" y="780"/>
      <point x="636" y="700" type="curve" smooth="yes"/>
      <point x="636" y="624"/>
      <point x="546" y="550"/>
    </contour>
  </outline>
</glyph>
<glyph name="less" format="2">
  <advance width="763"/>
  <unicode hex="003C"/>
  <outline>
    <contour>
      <point x="598" y="201" type="line" smooth="yes"/>
      <point x="624" y="189"/>
      <point x="639" y="193"/>
      <point x="653" y="219" type="curve" smooth="yes"/>
      <point x="665" y="244"/>
      <point x="665" y="260"/>
      <point x="639" y="273" type="curve" smooth="yes"/>
      <point x="301" y="438" type="line"/>
      <point x="754" y="623" type="line" smooth="yes"/>
      <point x="784" y="635"/>
      <point x="790" y="651"/>
      <point x="775" y="685" type="curve" smooth="yes"/>
      <point x="766" y="705"/>
      <point x="754" y="709"/>
      <point x="731" y="699" type="curve" smooth="yes"/>
      <point x="204" y="480" type="line" smooth="yes"/>
      <point x="179" y="470"/>
      <point x="169" y="464"/>
      <point x="164" y="445" type="curve" smooth="yes"/>
      <point x="159" y="429"/>
      <point x="164" y="414"/>
      <point x="188" y="403" type="curve" smooth="yes"/>
    </contour>
  </outline>
</glyph>
<glyph name="question" format="2">
  <advance width="498"/>
  <unicode hex="003F"/>
  <guideline x="168" y="327" angle="252.78"/>
  <guideline y="339"/>
  <guideline x="201" y="327" angle="252.78"/>
  <outline>
    <contour>
      <point x="171" y="215" type="curve" smooth="yes"/>
      <point x="200" y="215"/>
      <point x="218" y="224"/>
      <point x="224" y="243" type="curve" smooth="yes"/>
      <point x="269" y="383" type="line"/>
      <point x="508" y="406"/>
      <point x="618" y="549"/>
      <point x="618" y="699" type="curve" smooth="yes"/>
      <point x="618" y="798"/>
      <point x="551" y="890"/>
      <point x="409" y="890" type="curve" smooth="yes"/>
      <point x="344" y="890"/>
      <point x="266" y="866"/>
      <point x="183" y="803" type="curve" smooth="yes"/>
      <point x="166" y="790"/>
      <point x="168" y="778"/>
      <point x="181" y="755" type="curve" smooth="yes"/>
      <point x="191" y="738"/>
      <point x="211" y="731"/>
      <point x="225" y="740" type="curve" smooth="yes"/>
      <point x="273" y="773"/>
      <point x="333" y="810"/>
      <point x="409" y="810" type="curve" smooth="yes"/>
      <point x="485" y="810"/>
      <point x="528" y="764"/>
      <point x="528" y="699" type="curve" smooth="yes"/>
      <point x="528" y="611"/>
      <point x="474" y="460"/>
      <point x="241" y="460" type="curve" smooth="yes"/>
      <point x="219" y="460"/>
      <point x="204" y="449"/>
      <point x="199" y="433" type="curve" smooth="yes"/>
      <point x="136" y="243" type="line" smooth="yes"/>
      <point x="130" y="224"/>
      <point x="143" y="215"/>
    </contour>
    <contour>
      <point x="116" y="-14" type="curve" smooth="yes"/>
      <point x="166" y="-14"/>
      <point x="188" y="25"/>
      <point x="188" y="61" type="curve" smooth="yes"/>
      <point x="188" y="95"/>
      <point x="166" y="113"/>
      <point x="139" y="113" type="curve" smooth="yes"/>
      <point x="89" y="113"/>
      <point x="68" y="74"/>
      <point x="68" y="38" type="curve" smooth="yes"/>
      <point x="68" y="4"/>
      <point x="89" y="-14"/>
    </contour>
  </outline>
</glyph>
<glyph name="at" format="2">
  <advance width="878"/>
  <unicode hex="0040"/>
  <outline>
    <contour>
      <point x="246" y="184" type="curve" smooth="yes"/>
      <point x="246" y="103"/>
      <point x="289" y="54"/>
      <point x="360" y="54" type="curve" smooth="yes"/>
      <point x="400" y="54"/>
      <point x="451" y="71"/>
      <point x="495" y="128" type="curve"/>
      <point x="496" y="126"/>
      <point x="496" y="125"/>
      <point x="496" y="123" type="curve" smooth="yes"/>
      <point x="499" y="84"/>
      <point x="516" y="54"/>
      <point x="576" y="54" type="curve" smooth="yes"/>
      <point x="738" y="54"/>
      <point x="855" y="200"/>
      <point x="855" y="365" type="curve" smooth="yes"/>
      <point x="855" y="549"/>
      <point x="713" y="658"/>
      <point x="523" y="658" type="curve" smooth="yes"/>
      <point x="226" y="658"/>
      <point x="50" y="423"/>
      <point x="50" y="181" type="curve" smooth="yes"/>
      <point x="50" y="-7"/>
      <point x="176" y="-147"/>
      <point x="376" y="-147" type="curve" smooth="yes"/>
      <point x="450" y="-147"/>
      <point x="519" y="-137"/>
      <point x="599" y="-110" type="curve" smooth="yes"/>
      <point x="615" y="-105"/>
      <point x="621" y="-91"/>
      <point x="615" y="-71" type="curve" smooth="yes"/>
      <point x="609" y="-52"/>
      <point x="595" y="-44"/>
      <point x="580" y="-49" type="curve" smooth="yes"/>
      <point x="509" y="-72"/>
      <point x="448" y="-85"/>
      <point x="384" y="-85" type="curve" smooth="yes"/>
      <point x="214" y="-85"/>
      <point x="116" y="30"/>
      <point x="116" y="185" type="curve" smooth="yes"/>
      <point x="116" y="386"/>
      <point x="253" y="595"/>
      <point x="515" y="595" type="curve" smooth="yes"/>
      <point x="679" y="595"/>
      <point x="789" y="516"/>
      <point x="789" y="364" type="curve" smooth="yes"/>
      <point x="789" y="249"/>
      <point x="718" y="123"/>
      <point x="590" y="123" type="curve" smooth="yes"/>
      <point x="569" y="123"/>
      <point x="573" y="144"/>
      <point x="578" y="160" type="curve" smooth="yes"/>
      <point x="665" y="430" type="line" smooth="yes"/>
      <point x="673" y="454"/>
      <point x="660" y="464"/>
      <point x="634" y="464" type="curve" smooth="yes"/>
      <point x="614" y="464"/>
      <point x="598" y="458"/>
      <point x="589" y="440" type="curve" smooth="yes"/>
      <point x="588" y="438" type="line"/>
      <point x="555" y="458"/>
      <point x="524" y="468"/>
      <point x="493" y="468" type="curve" smooth="yes"/>
      <point x="321" y="468"/>
      <point x="246" y="295"/>
    </contour>
    <contour>
      <point x="328" y="193" type="curve" smooth="yes"/>
      <point x="328" y="259"/>
      <point x="369" y="395"/>
      <point x="500" y="395" type="curve" smooth="yes"/>
      <point x="524" y="395"/>
      <point x="545" y="391"/>
      <point x="569" y="379" type="curve"/>
      <point x="520" y="234" type="line"/>
      <point x="484" y="173"/>
      <point x="438" y="128"/>
      <point x="388" y="128" type="curve" smooth="yes"/>
      <point x="350" y="128"/>
      <point x="328" y="148"/>
    </contour>
  </outline>
</glyph>
<glyph name="C" format="2">
  <advance width="776"/>
  <unicode hex="0043"/>
  <anchor x="391" y="0" name="bottom"/>
  <anchor x="616" y="838" name="top"/>
  <outline>
    <contour>
      <point x="430" y="-19" type="curve" smooth="yes"/>
      <point x="514" y="-19"/>
      <point x="606" y="14"/>
      <point x="731" y="135" type="curve" smooth="yes"/>
      <point x="746" y="150"/>
      <point x="744" y="161"/>
      <point x="726" y="183" type="curve" smooth="yes"/>
      <point x="712" y="199"/>
      <point x="697" y="205"/>
      <point x="681" y="191" type="curve" smooth="yes"/>
      <point x="595" y="116"/>
      <point x="542" y="66"/>
      <point x="445" y="66" type="curve" smooth="yes"/>
      <point x="294" y="66"/>
      <point x="220" y="160"/>
      <point x="220" y="331" type="curve" smooth="yes"/>
      <point x="220" y="533"/>
      <point x="381" y="805"/>
      <point x="624" y="805" type="curve" smooth="yes"/>
      <point x="721" y="805"/>
      <point x="790" y="783"/>
      <point x="832" y="744" type="curve" smooth="yes"/>
      <point x="850" y="728"/>
      <point x="861" y="731"/>
      <point x="879" y="745" type="curve" smooth="yes"/>
      <point x="897" y="760"/>
      <point x="904" y="769"/>
      <point x="894" y="784" type="curve" smooth="yes"/>
      <point x="845" y="853"/>
      <point x="754" y="890"/>
      <point x="639" y="890" type="curve" smooth="yes"/>
      <point x="294" y="890"/>
      <point x="126" y="545"/>
      <point x="126" y="315" type="curve" smooth="yes"/>
      <point x="126" y="113"/>
      <point x="246" y="-19"/>
    </contour>
  </outline>
</glyph>
<glyph name="O" format="2">
  <advance width="925"/>
  <unicode hex="004F"/>
  <anchor x="381" y="0" name="bottom"/>
  <anchor x="524" y="438" name="center"/>
  <anchor x="755" y="13" name="ogonek"/>
  <anchor x="630" y="838" name="top"/>
  <anchor x="713" y="875" name="topright"/>
  <outline>
    <contour>
      <point x="431" y="-19" type="curve" smooth="yes"/>
      <point x="745" y="-19"/>
      <point x="916" y="300"/>
      <point x="916" y="556" type="curve" smooth="yes"/>
      <point x="916" y="759"/>
      <point x="796" y="890"/>
      <point x="615" y="890" type="curve" smooth="yes"/>
      <point x="285" y="890"/>
      <point x="128" y="545"/>
      <point x="128" y="315" type="curve" smooth="yes"/>
      <point x="128" y="113"/>
      <point x="249" y="-19"/>
    </contour>
    <contour>
      <point x="446" y="66" type="curve" smooth="yes"/>
      <point x="295" y="66"/>
      <point x="221" y="160"/>
      <point x="221" y="331" type="curve" smooth="yes"/>
      <point x="221" y="521"/>
      <point x="358" y="805"/>
      <point x="600" y="805" type="curve" smooth="yes"/>
      <point x="748" y="805"/>
      <point x="824" y="713"/>
      <point x="824" y="540" type="curve" smooth="yes"/>
      <point x="824" y="345"/>
      <point x="694" y="66"/>
    </contour>
  </outline>
</glyph>
<glyph name="Q" format="2">
  <advance width="925"/>
  <unicode hex="0051"/>
  <anchor x="381" y="0" name="bottom"/>
  <anchor x="524" y="438" name="center"/>
  <anchor x="755" y="13" name="ogonek"/>
  <anchor x="630" y="838" name="top"/>
  <anchor x="713" y="875" name="topright"/>
  <outline>
    <contour>
      <point x="588" y="-191" type="curve" smooth="yes"/>
      <point x="614" y="-186"/>
      <point x="628" y="-165"/>
      <point x="618" y="-139" type="curve" smooth="yes"/>
      <point x="515" y="168" type="line" smooth="yes"/>
      <point x="508" y="191"/>
      <point x="490" y="203"/>
      <point x="468" y="198" type="curve" smooth="yes"/>
      <point x="441" y="193"/>
      <point x="428" y="171"/>
      <point x="438" y="145" type="curve" smooth="yes"/>
      <point x="540" y="-161" type="line" smooth="yes"/>
      <point x="548" y="-185"/>
      <point x="565" y="-196"/>
    </contour>
    <component base="O"/>
  </outline>
</glyph>
<glyph name="R" format="2">
  <advance width="694"/>
  <unicode hex="0052"/>
  <anchor x="304" y="0" name="bottom"/>
  <anchor x="538" y="838" name="top"/>
  <outline>
    <contour>
      <point x="89" y="-14" type="curve" smooth="yes"/>
      <point x="119" y="-14"/>
      <point x="131" y="-5"/>
      <point x="138" y="14" type="curve" smooth="yes"/>
      <point x="256" y="384" type="line"/>
      <point x="323" y="248"/>
      <point x="433" y="101"/>
      <point x="534" y="0" type="curve" smooth="yes"/>
      <point x="550" y="-16"/>
      <point x="570" y="-21"/>
      <point x="590" y="-4" type="curve" smooth="yes"/>
      <point x="620" y="23"/>
      <point x="609" y="40"/>
      <point x="598" y="51" type="curve" smooth="yes"/>
      <point x="490" y="163"/>
      <point x="410" y="274"/>
      <point x="348" y="393" type="curve"/>
      <point x="619" y="404"/>
      <point x="783" y="519"/>
      <point x="783" y="690" type="curve" smooth="yes"/>
      <point x="783" y="828"/>
      <point x="696" y="875"/>
      <point x="494" y="875" type="curve" smooth="yes"/>
      <point x="370" y="875" type="line" smooth="yes"/>
      <point x="340" y="875"/>
      <point x="325" y="866"/>
      <point x="319" y="848" type="curve" smooth="yes"/>
      <point x="50" y="16" type="line" smooth="yes"/>
      <point x="44" y="-5"/>
      <point x="59" y="-14"/>
    </contour>
    <contour>
      <point x="281" y="463" type="curve"/>
      <point x="390" y="795" type="line"/>
      <point x="480" y="795" type="line" smooth="yes"/>
      <point x="648" y="795"/>
      <point x="693" y="771"/>
      <point x="693" y="683" type="curve" smooth="yes"/>
      <point x="693" y="541"/>
      <point x="545" y="463"/>
    </contour>
  </outline>
</glyph>
<glyph name="S" format="2">
  <advance width="688"/>
  <unicode hex="0053"/>
  <anchor x="286" y="0" name="bottom"/>
  <anchor x="484" y="838" name="top"/>
  <outline>
    <contour>
      <point x="300" y="-19" type="curve" smooth="yes"/>
      <point x="484" y="-19"/>
      <point x="618" y="85"/>
      <point x="618" y="245" type="curve" smooth="yes"/>
      <point x="618" y="340"/>
      <point x="568" y="415"/>
      <point x="439" y="480" type="curve" smooth="yes"/>
      <point x="328" y="536"/>
      <point x="294" y="585"/>
      <point x="294" y="666" type="curve" smooth="yes"/>
      <point x="294" y="758"/>
      <point x="375" y="805"/>
      <point x="491" y="805" type="curve" smooth="yes"/>
      <point x="580" y="805"/>
      <point x="643" y="771"/>
      <point x="684" y="736" type="curve" smooth="yes"/>
      <point x="696" y="725"/>
      <point x="714" y="728"/>
      <point x="729" y="743" type="curve" smooth="yes"/>
      <point x="746" y="759"/>
      <point x="750" y="774"/>
      <point x="736" y="788" type="curve" smooth="yes"/>
      <point x="688" y="840"/>
      <point x="594" y="890"/>
      <point x="491" y="890" type="curve" smooth="yes"/>
      <point x="313" y="890"/>
      <point x="201" y="793"/>
      <point x="201" y="666" type="curve" smooth="yes"/>
      <point x="201" y="530"/>
      <point x="283" y="463"/>
      <point x="390" y="405" type="curve" smooth="yes"/>
      <point x="480" y="358"/>
      <point x="525" y="318"/>
      <point x="525" y="245" type="curve" smooth="yes"/>
      <point x="525" y="120"/>
      <point x="429" y="66"/>
      <point x="300" y="66" type="curve" smooth="yes"/>
      <point x="198" y="66"/>
      <point x="131" y="101"/>
      <point x="90" y="143" type="curve" smooth="yes"/>
      <point x="76" y="156"/>
      <point x="63" y="151"/>
      <point x="45" y="136" type="curve" smooth="yes"/>
      <point x="31" y="124"/>
      <point x="20" y="109"/>
      <point x="33" y="94" type="curve" smooth="yes"/>
      <point x="88" y="33"/>
      <point x="166" y="-19"/>
    </contour>
  </outline>
</glyph>
<glyph name="V" format="2">
  <advance width="725"/>
  <unicode hex="0056"/>
  <outline>
    <contour>
      <point x="278" y="-14" type="curve" smooth="yes"/>
      <point x="310" y="-14"/>
      <point x="325" y="-4"/>
      <point x="346" y="26" type="curve" smooth="yes"/>
      <point x="900" y="838" type="line" smooth="yes"/>
      <point x="920" y="866"/>
      <point x="908" y="890"/>
      <point x="873" y="890" type="curve" smooth="yes"/>
      <point x="839" y="890"/>
      <point x="831" y="885"/>
      <point x="808" y="850" type="curve" smooth="yes"/>
      <point x="316" y="128" type="line"/>
      <point x="296" y="854" type="line" smooth="yes"/>
      <point x="295" y="880"/>
      <point x="289" y="890"/>
      <point x="259" y="890" type="curve" smooth="yes"/>
      <point x="224" y="890"/>
      <point x="209" y="873"/>
      <point x="210" y="845" type="curve" smooth="yes"/>
      <point x="235" y="38" type="line" smooth="yes"/>
      <point x="236" y="-5"/>
      <point x="253" y="-14"/>
    </contour>
  </outline>
</glyph>
<glyph name="W" format="2">
  <advance width="1200"/>
  <unicode hex="0057"/>
  <anchor x="565" y="0" name="bottom"/>
  <anchor x="778" y="838" name="top"/>
  <outline>
    <contour>
      <point x="278" y="-14" type="curve" smooth="yes"/>
      <point x="310" y="-14"/>
      <point x="329" y="-4"/>
      <point x="346" y="26" type="curve" smooth="yes"/>
      <point x="756" y="719" type="line"/>
      <point x="778" y="38" type="line" smooth="yes"/>
      <point x="779" y="-5"/>
      <point x="795" y="-14"/>
      <point x="820" y="-14" type="curve" smooth="yes"/>
      <point x="853" y="-14"/>
      <point x="870" y="-4"/>
      <point x="889" y="26" type="curve" smooth="yes"/>
      <point x="1376" y="838" type="line" smooth="yes"/>
      <point x="1394" y="866"/>
      <point x="1384" y="890"/>
      <point x="1349" y="890" type="curve" smooth="yes"/>
      <point x="1315" y="890"/>
      <point x="1305" y="885"/>
      <point x="1284" y="850" type="curve" smooth="yes"/>
      <point x="858" y="134" type="line"/>
      <point x="839" y="854" type="line" smooth="yes"/>
      <point x="838" y="880"/>
      <point x="831" y="890"/>
      <point x="801" y="890" type="curve" smooth="yes"/>
      <point x="766" y="890"/>
      <point x="756" y="886"/>
      <point x="735" y="850" type="curve" smooth="yes"/>
      <point x="315" y="136" type="line"/>
      <point x="296" y="854" type="line" smooth="yes"/>
      <point x="295" y="880"/>
      <point x="289" y="890"/>
      <point x="259" y="890" type="curve" smooth="yes"/>
      <point x="224" y="890"/>
      <point x="209" y="873"/>
      <point x="210" y="845" type="curve" smooth="yes"/>
      <point x="235" y="38" type="line" smooth="yes"/>
      <point x="236" y="-5"/>
      <point x="253" y="-14"/>
    </contour>
  </outline>
</glyph>
<glyph name="Y" format="2">
  <advance width="613"/>
  <unicode hex="0059"/>
  <anchor x="236" y="0" name="bottom"/>
  <anchor x="470" y="838" name="top"/>
  <outline>
    <contour>
      <point x="209" y="-14" type="curve" smooth="yes"/>
      <point x="238" y="-14"/>
      <point x="258" y="-5"/>
      <point x="264" y="14" type="curve" smooth="yes"/>
      <point x="384" y="383" type="line"/>
      <point x="799" y="838" type="line" smooth="yes"/>
      <point x="823" y="864"/>
      <point x="806" y="890"/>
      <point x="774" y="890" type="curve" smooth="yes"/>
      <point x="739" y="890"/>
      <point x="726" y="878"/>
      <point x="705" y="854" type="curve" smooth="yes"/>
      <point x="361" y="479" type="line"/>
      <point x="286" y="854" type="line" smooth="yes"/>
      <point x="281" y="878"/>
      <point x="273" y="890"/>
      <point x="243" y="890" type="curve" smooth="yes"/>
      <point x="208" y="890"/>
      <point x="195" y="871"/>
      <point x="200" y="845" type="curve" smooth="yes"/>
      <point x="295" y="385" type="line"/>
      <point x="174" y="14" type="line" smooth="yes"/>
      <point x="168" y="-5"/>
      <point x="180" y="-14"/>
    </contour>
  </outline>
</glyph>
<glyph name="bracketright" format="2">
  <advance width="375"/>
  <unicode hex="005D"/>
  <outline>
    <contour>
      <point x="-64" y="-35" type="curve" smooth="yes"/>
      <point x="-74" y="-65"/>
      <point x="-69" y="-75"/>
      <point x="-49" y="-75" type="curve" smooth="yes"/>
      <point x="101" y="-75" type="line" smooth="yes"/>
      <point x="130" y="-75"/>
      <point x="148" y="-66"/>
      <point x="154" y="-47" type="curve" smooth="yes"/>
      <point x="469" y="923" type="line" smooth="yes"/>
      <point x="475" y="941"/>
      <point x="463" y="950"/>
      <point x="434" y="950" type="curve" smooth="yes"/>
      <point x="284" y="950" type="line" smooth="yes"/>
      <point x="264" y="950"/>
      <point x="254" y="940"/>
      <point x="244" y="910" type="curve" smooth="yes"/>
      <point x="234" y="880"/>
      <point x="238" y="870"/>
      <point x="258" y="870" type="curve" smooth="yes"/>
      <point x="359" y="870" type="line"/>
      <point x="79" y="5" type="line"/>
      <point x="-22" y="5" type="line" smooth="yes"/>
      <point x="-42" y="5"/>
      <point x="-54" y="-5"/>
    </contour>
  </outline>
</glyph>
<glyph name="a" format="2">
  <advance width="623"/>
  <unicode hex="0061"/>
  <anchor x="231" y="0" name="bottom"/>
  <anchor x="545" y="13" name="ogonek"/>
  <anchor x="374" y="500" name="top"/>
  <outline>
    <contour>
      <point x="190" y="-17" type="curve" smooth="yes"/>
      <point x="235" y="-17"/>
      <point x="306" y="0"/>
      <point x="370" y="81" type="curve"/>
      <point x="370" y="78"/>
      <point x="370" y="75"/>
      <point x="370" y="71" type="curve" smooth="yes"/>
      <point x="371" y="20"/>
      <point x="398" y="-17"/>
      <point x="473" y="-17" type="curve" smooth="yes"/>
      <point x="536" y="-17"/>
      <point x="580" y="29"/>
      <point x="601" y="66" type="curve" smooth="yes"/>
      <point x="609" y="80"/>
      <point x="613" y="95"/>
      <point x="590" y="109" type="curve" smooth="yes"/>
      <point x="568" y="123"/>
      <point x="554" y="115"/>
      <point x="546" y="104" type="curve" smooth="yes"/>
      <point x="534" y="85"/>
      <point x="511" y="58"/>
      <point x="481" y="58" type="curve" smooth="yes"/>
      <point x="445" y="58"/>
      <point x="454" y="96"/>
      <point x="461" y="119" type="curve" smooth="yes"/>
      <point x="578" y="476" type="line" smooth="yes"/>
      <point x="586" y="503"/>
      <point x="578" y="515"/>
      <point x="536" y="515" type="curve" smooth="yes"/>
      <point x="510" y="515"/>
      <point x="500" y="510"/>
      <point x="491" y="483" type="curve" smooth="yes"/>
      <point x="490" y="479" type="line"/>
      <point x="454" y="503"/>
      <point x="410" y="519"/>
      <point x="364" y="519" type="curve" smooth="yes"/>
      <point x="141" y="519"/>
      <point x="44" y="298"/>
      <point x="44" y="151" type="curve" smooth="yes"/>
      <point x="44" y="46"/>
      <point x="98" y="-17"/>
    </contour>
    <contour>
      <point x="134" y="160" type="curve" smooth="yes"/>
      <point x="134" y="259"/>
      <point x="194" y="440"/>
      <point x="370" y="440" type="curve" smooth="yes"/>
      <point x="404" y="440"/>
      <point x="434" y="434"/>
      <point x="469" y="414" type="curve"/>
      <point x="401" y="209" type="line"/>
      <point x="349" y="118"/>
      <point x="284" y="63"/>
      <point x="219" y="63" type="curve" smooth="yes"/>
      <point x="163" y="63"/>
      <point x="134" y="96"/>
    </contour>
  </outline>
</glyph>
<glyph name="b" format="2">
  <advance width="598"/>
  <unicode hex="0062"/>
  <anchor x="243" y="0" name="bottom"/>
  <anchor x="324" y="250" name="center"/>
  <anchor x="405" y="500" name="top"/>
  <outline>
    <contour>
      <point x="63" y="-15" type="curve" smooth="yes"/>
      <point x="93" y="-15"/>
      <point x="104" y="-7"/>
      <point x="110" y="11" type="curve" smooth="yes"/>
      <point x="113" y="20" type="line"/>
      <point x="149" y="-2"/>
      <point x="190" y="-17"/>
      <point x="234" y="-17" type="curve" smooth="yes"/>
      <point x="451" y="-17"/>
      <point x="553" y="196"/>
      <point x="553" y="350" type="curve" smooth="yes"/>
      <point x="553" y="454"/>
      <point x="500" y="519"/>
      <point x="408" y="519" type="curve" smooth="yes"/>
      <point x="366" y="519"/>
      <point x="308" y="504"/>
      <point x="250" y="441" type="curve"/>
      <point x="384" y="853" type="line" smooth="yes"/>
      <point x="393" y="878"/>
      <point x="384" y="890"/>
      <point x="343" y="890" type="curve" smooth="yes"/>
      <point x="316" y="890"/>
      <point x="306" y="885"/>
      <point x="298" y="858" type="curve" smooth="yes"/>
      <point x="25" y="18" type="line" smooth="yes"/>
      <point x="16" y="-7"/>
      <point x="41" y="-15"/>
    </contour>
    <contour>
      <point x="134" y="85" type="curve"/>
      <point x="209" y="315" type="line"/>
      <point x="260" y="393"/>
      <point x="320" y="439"/>
      <point x="379" y="439" type="curve" smooth="yes"/>
      <point x="435" y="439"/>
      <point x="463" y="405"/>
      <point x="463" y="341" type="curve" smooth="yes"/>
      <point x="463" y="238"/>
      <point x="401" y="61"/>
      <point x="228" y="61" type="curve" smooth="yes"/>
      <point x="196" y="61"/>
      <point x="168" y="68"/>
    </contour>
  </outline>
</glyph>
<glyph name="f" format="2">
  <advance width="366"/>
  <unicode hex="0066"/>
  <outline>
    <contour>
      <point x="-105" y="-394" type="curve" smooth="yes"/>
      <point x="-24" y="-394"/>
      <point x="18" y="-357"/>
      <point x="54" y="-247" type="curve" smooth="yes"/>
      <point x="270" y="420" type="line"/>
      <point x="400" y="420" type="line" smooth="yes"/>
      <point x="415" y="420"/>
      <point x="426" y="433"/>
      <point x="435" y="460" type="curve" smooth="yes"/>
      <point x="443" y="486"/>
      <point x="439" y="500"/>
      <point x="423" y="500" type="curve" smooth="yes"/>
      <point x="296" y="500" type="line"/>
      <point x="366" y="720" type="line" smooth="yes"/>
      <point x="388" y="788"/>
      <point x="416" y="814"/>
      <point x="473" y="814" type="curve" smooth="yes"/>
      <point x="496" y="814"/>
      <point x="530" y="801"/>
      <point x="555" y="781" type="curve" smooth="yes"/>
      <point x="570" y="770"/>
      <point x="585" y="771"/>
      <point x="603" y="789" type="curve" smooth="yes"/>
      <point x="616" y="803"/>
      <point x="624" y="819"/>
      <point x="605" y="839" type="curve" smooth="yes"/>
      <point x="585" y="861"/>
      <point x="536" y="894"/>
      <point x="476" y="894" type="curve" smooth="yes"/>
      <point x="379" y="894"/>
      <point x="319" y="845"/>
      <point x="281" y="726" type="curve" smooth="yes"/>
      <point x="209" y="500" type="line"/>
      <point x="123" y="500" type="line" smooth="yes"/>
      <point x="108" y="500"/>
      <point x="94" y="488"/>
      <point x="85" y="460" type="curve" smooth="yes"/>
      <point x="76" y="433"/>
      <point x="84" y="420"/>
      <point x="99" y="420" type="curve" smooth="yes"/>
      <point x="183" y="420" type="line"/>
      <point x="-27" y="-229" type="line" smooth="yes"/>
      <point x="-51" y="-300"/>
      <point x="-64" y="-319"/>
      <point x="-97" y="-319" type="curve" smooth="yes"/>
      <point x="-129" y="-319"/>
      <point x="-152" y="-296"/>
      <point x="-169" y="-280" type="curve" smooth="yes"/>
      <point x="-185" y="-264"/>
      <point x="-199" y="-266"/>
      <point x="-219" y="-284" type="curve" smooth="yes"/>
      <point x="-239" y="-300"/>
      <point x="-240" y="-319"/>
      <point x="-224" y="-337" type="curve" smooth="yes"/>
      <point x="-194" y="-372"/>
      <point x="-152" y="-394"/>
    </contour>
  </outline>
</glyph>
<glyph name="k" format="2">
  <advance width="564"/>
  <unicode hex="006B"/>
  <anchor x="216" y="0" name="bottom"/>
  <anchor x="333" y="838" name="top"/>
  <outline>
    <contour>
      <point x="65" y="-15" type="curve" smooth="yes"/>
      <point x="95" y="-15"/>
      <point x="106" y="-7"/>
      <point x="113" y="11" type="curve" smooth="yes"/>
      <point x="183" y="226" type="line"/>
      <point x="264" y="20"/>
      <point x="301" y="-19"/>
      <point x="361" y="-19" type="curve" smooth="yes"/>
      <point x="388" y="-19"/>
      <point x="436" y="-7"/>
      <point x="498" y="51" type="curve" smooth="yes"/>
      <point x="514" y="66"/>
      <point x="510" y="83"/>
      <point x="498" y="98" type="curve" smooth="yes"/>
      <point x="486" y="111"/>
      <point x="471" y="115"/>
      <point x="455" y="103" type="curve" smooth="yes"/>
      <point x="428" y="80"/>
      <point x="394" y="58"/>
      <point x="374" y="58" type="curve" smooth="yes"/>
      <point x="341" y="58"/>
      <point x="333" y="75"/>
      <point x="253" y="276" type="curve"/>
      <point x="548" y="444" type="line" smooth="yes"/>
      <point x="574" y="459"/>
      <point x="570" y="476"/>
      <point x="559" y="496" type="curve" smooth="yes"/>
      <point x="545" y="520"/>
      <point x="530" y="520"/>
      <point x="508" y="508" type="curve" smooth="yes"/>
      <point x="220" y="344" type="line"/>
      <point x="384" y="851" type="line" smooth="yes"/>
      <point x="393" y="878"/>
      <point x="384" y="890"/>
      <point x="343" y="890" type="curve" smooth="yes"/>
      <point x="316" y="890"/>
      <point x="306" y="885"/>
      <point x="298" y="858" type="curve" smooth="yes"/>
      <point x="28" y="18" type="line" smooth="yes"/>
      <point x="20" y="-7"/>
      <point x="44" y="-15"/>
    </contour>
  </outline>
</glyph>
<glyph name="l" format="2">
  <advance width="311"/>
  <unicode hex="006C"/>
  <guideline x="189" y="489" angle="72"/>
  <anchor x="226" y="436" name="CAT"/>
  <anchor x="128" y="0" name="bottom"/>
  <anchor x="210" y="438" name="center"/>
  <anchor x="327" y="838" name="top"/>
  <anchor x="356" y="874" name="topright"/>
  <outline>
    <contour>
      <point x="155" y="-17" type="curve" smooth="yes"/>
      <point x="218" y="-17"/>
      <point x="265" y="29"/>
      <point x="287" y="66" type="curve" smooth="yes"/>
      <point x="295" y="80"/>
      <point x="298" y="95"/>
      <point x="276" y="109" type="curve" smooth="yes"/>
      <point x="253" y="123"/>
      <point x="240" y="115"/>
      <point x="232" y="104" type="curve" smooth="yes"/>
      <point x="220" y="85"/>
      <point x="195" y="58"/>
      <point x="165" y="58" type="curve" smooth="yes"/>
      <point x="137" y="58"/>
      <point x="131" y="81"/>
      <point x="145" y="124" type="curve" smooth="yes"/>
      <point x="380" y="851" type="line" smooth="yes"/>
      <point x="388" y="878"/>
      <point x="380" y="890"/>
      <point x="338" y="890" type="curve" smooth="yes"/>
      <point x="312" y="890"/>
      <point x="302" y="885"/>
      <point x="293" y="858" type="curve" smooth="yes"/>
      <point x="65" y="150" type="line" smooth="yes"/>
      <point x="31" y="46"/>
      <point x="66" y="-17"/>
    </contour>
  </outline>
</glyph>
<glyph name="q" format="2">
  <advance width="598"/>
  <unicode hex="0071"/>
  <guideline x="409" y="261" angle="72"/>
  <outline>
    <contour>
      <point x="190" y="-17" type="curve" smooth="yes"/>
      <point x="233" y="-17"/>
      <point x="298" y="-1"/>
      <point x="359" y="66" type="curve"/>
      <point x="221" y="-357" type="line" smooth="yes"/>
      <point x="213" y="-382"/>
      <point x="238" y="-390"/>
      <point x="259" y="-390" type="curve" smooth="yes"/>
      <point x="289" y="-390"/>
      <point x="300" y="-382"/>
      <point x="306" y="-364" type="curve" smooth="yes"/>
      <point x="579" y="476" type="line" smooth="yes"/>
      <point x="588" y="503"/>
      <point x="579" y="515"/>
      <point x="538" y="515" type="curve" smooth="yes"/>
      <point x="511" y="515"/>
      <point x="501" y="510"/>
      <point x="493" y="483" type="curve" smooth="yes"/>
      <point x="491" y="479" type="line"/>
      <point x="454" y="503"/>
      <point x="411" y="519"/>
      <point x="364" y="519" type="curve" smooth="yes"/>
      <point x="141" y="519"/>
      <point x="44" y="298"/>
      <point x="44" y="151" type="curve" smooth="yes"/>
      <point x="44" y="46"/>
      <point x="98" y="-17"/>
    </contour>
    <contour>
      <point x="134" y="160" type="curve" smooth="yes"/>
      <point x="134" y="259"/>
      <point x="194" y="440"/>
      <point x="370" y="440" type="curve" smooth="yes"/>
      <point x="404" y="440"/>
      <point x="435" y="433"/>
      <point x="470" y="414" type="curve"/>
      <point x="408" y="220" type="line"/>
      <point x="354" y="123"/>
      <point x="286" y="63"/>
      <point x="219" y="63" type="curve" smooth="yes"/>
      <point x="163" y="63"/>
      <point x="134" y="96"/>
    </contour>
  </outline>
</glyph>
<glyph name="r" format="2">
  <advance width="454"/>
  <unicode hex="0072"/>
  <anchor x="51" y="0" name="bottom"/>
  <anchor x="335" y="500" name="top"/>
  <outline>
    <contour>
      <point x="56" y="-15" type="curve" smooth="yes"/>
      <point x="86" y="-15"/>
      <point x="98" y="-7"/>
      <point x="104" y="11" type="curve" smooth="yes"/>
      <point x="196" y="294" type="line"/>
      <point x="250" y="384"/>
      <point x="330" y="440"/>
      <point x="405" y="440" type="curve" smooth="yes"/>
      <point x="425" y="440"/>
      <point x="440" y="438"/>
      <point x="465" y="424" type="curve" smooth="yes"/>
      <point x="481" y="416"/>
      <point x="494" y="418"/>
      <point x="509" y="445" type="curve" smooth="yes"/>
      <point x="524" y="471"/>
      <point x="520" y="483"/>
      <point x="504" y="495" type="curve" smooth="yes"/>
      <point x="489" y="508"/>
      <point x="460" y="519"/>
      <point x="428" y="519" type="curve" smooth="yes"/>
      <point x="364" y="519"/>
      <point x="296" y="485"/>
      <point x="239" y="425" type="curve"/>
      <point x="255" y="476" type="line" smooth="yes"/>
      <point x="264" y="503"/>
      <point x="255" y="515"/>
      <point x="214" y="515" type="curve" smooth="yes"/>
      <point x="188" y="515"/>
      <point x="178" y="510"/>
      <point x="169" y="483" type="curve" smooth="yes"/>
      <point x="19" y="18" type="line" smooth="yes"/>
      <point x="10" y="-7"/>
      <point x="35" y="-15"/>
    </contour>
  </outline>
</glyph>
<glyph name="copyright" format="2">
  <advance width="905"/>
  <unicode hex="00A9"/>
  <outline>
    <contour>
      <point x="515" y="65" type="curve" smooth="yes"/>
      <point x="719" y="65"/>
      <point x="881" y="228"/>
      <point x="881" y="431" type="curve" smooth="yes"/>
      <point x="881" y="635"/>
      <point x="719" y="798"/>
      <point x="515" y="798" type="curve" smooth="yes"/>
      <point x="311" y="798"/>
      <point x="149" y="635"/>
      <point x="149" y="431" type="curve" smooth="yes"/>
      <point x="149" y="228"/>
      <point x="311" y="65"/>
    </contour>
    <contour>
      <point x="515" y="115" type="curve" smooth="yes"/>
      <point x="341" y="115"/>
      <point x="199" y="258"/>
      <point x="199" y="431" type="curve" smooth="yes"/>
      <point x="199" y="605"/>
      <point x="341" y="748"/>
      <point x="515" y="748" type="curve" smooth="yes"/>
      <point x="689" y="748"/>
      <point x="831" y="605"/>
      <point x="831" y="431" type="curve" smooth="yes"/>
      <point x="831" y="258"/>
      <point x="689" y="115"/>
    </contour>
    <contour>
      <point x="514" y="229" type="curve" smooth="yes"/>
      <point x="566" y="229"/>
      <point x="621" y="259"/>
      <point x="660" y="318" type="curve" smooth="yes"/>
      <point x="665" y="326"/>
      <point x="663" y="335"/>
      <point x="648" y="346" type="curve" smooth="yes"/>
      <point x="636" y="355"/>
      <point x="621" y="363"/>
      <point x="616" y="356" type="curve" smooth="yes"/>
      <point x="584" y="319"/>
      <point x="553" y="300"/>
      <point x="521" y="300" type="curve" smooth="yes"/>
      <point x="463" y="300"/>
      <point x="416" y="343"/>
      <point x="416" y="434" type="curve" smooth="yes"/>
      <point x="416" y="525"/>
      <point x="463" y="568"/>
      <point x="518" y="568" type="curve" smooth="yes"/>
      <point x="553" y="568"/>
      <point x="581" y="553"/>
      <point x="608" y="531" type="curve" smooth="yes"/>
      <point x="614" y="526"/>
      <point x="623" y="530"/>
      <point x="638" y="543" type="curve" smooth="yes"/>
      <point x="651" y="554"/>
      <point x="656" y="561"/>
      <point x="649" y="573" type="curve" smooth="yes"/>
      <point x="613" y="625"/>
      <point x="558" y="638"/>
      <point x="518" y="638" type="curve" smooth="yes"/>
      <point x="413" y="638"/>
      <point x="339" y="544"/>
      <point x="339" y="434" type="curve" smooth="yes"/>
      <point x="339" y="325"/>
      <point x="400" y="229"/>
    </contour>
  </outline>
</glyph>
<glyph name="logicalnot" format="2">
  <advance width="763"/>
  <unicode hex="00AC"/>
  <outline>
    <contour>
      <point x="609" y="151" type="curve" smooth="yes"/>
      <point x="635" y="151"/>
      <point x="645" y="156"/>
      <point x="654" y="184" type="curve" smooth="yes"/>
      <point x="735" y="435" type="line" smooth="yes"/>
      <point x="745" y="465"/>
      <point x="739" y="478"/>
      <point x="719" y="478" type="curve" smooth="yes"/>
      <point x="185" y="478" type="line" smooth="yes"/>
      <point x="170" y="478"/>
      <point x="158" y="465"/>
      <point x="149" y="440" type="curve" smooth="yes"/>
      <point x="139" y="410"/>
      <point x="146" y="398"/>
      <point x="161" y="398" type="curve" smooth="yes"/>
      <point x="634" y="398" type="line"/>
      <point x="568" y="190" type="line" smooth="yes"/>
      <point x="559" y="164"/>
      <point x="568" y="151"/>
    </contour>
  </outline>
</glyph>
<glyph name="ordmasculine" format="2">
  <advance width="454"/>
  <unicode hex="00BA"/>
  <outline>
    <contour>
      <point x="333" y="485" type="curve" smooth="yes"/>
      <point x="489" y="485"/>
      <point x="564" y="650"/>
      <point x="564" y="753" type="curve" smooth="yes"/>
      <point x="564" y="839"/>
      <point x="510" y="900"/>
      <point x="410" y="900" type="curve" smooth="yes"/>
      <point x="256" y="900"/>
      <point x="179" y="745"/>
      <point x="179" y="639" type="curve" smooth="yes"/>
      <point x="179" y="550"/>
      <point x="233" y="485"/>
    </contour>
    <contour>
      <point x="343" y="559" type="curve" smooth="yes"/>
      <point x="293" y="559"/>
      <point x="260" y="589"/>
      <point x="260" y="645" type="curve" smooth="yes"/>
      <point x="260" y="714"/>
      <point x="309" y="826"/>
      <point x="403" y="826" type="curve" smooth="yes"/>
      <point x="449" y="826"/>
      <point x="480" y="800"/>
      <point x="480" y="743" type="curve" smooth="yes"/>
      <point x="480" y="671"/>
      <point x="431" y="559"/>
    </contour>
  </outline>
</glyph>
<glyph name="multiply" format="2">
  <advance width="763"/>
  <unicode hex="00D7"/>
  <guideline x="201" y="163" angle="0"/>
  <outline>
    <contour>
      <point x="576" y="215" type="curve" smooth="yes"/>
      <point x="601" y="233"/>
      <point x="603" y="252"/>
      <point x="589" y="273" type="curve" smooth="yes"/>
      <point x="481" y="432" type="line"/>
      <point x="699" y="595" type="line" smooth="yes"/>
      <point x="720" y="611"/>
      <point x="721" y="628"/>
      <point x="704" y="651" type="curve" smooth="yes"/>
      <point x="685" y="673"/>
      <point x="669" y="674"/>
      <point x="650" y="660" type="curve" smooth="yes"/>
      <point x="435" y="498" type="line"/>
      <point x="329" y="655" type="line" smooth="yes"/>
      <point x="317" y="674"/>
      <point x="295" y="676"/>
      <point x="269" y="658" type="curve" smooth="yes"/>
      <point x="246" y="641"/>
      <point x="242" y="625"/>
      <point x="256" y="604" type="curve" smooth="yes"/>
      <point x="364" y="444" type="line"/>
      <point x="149" y="283" type="line" smooth="yes"/>
      <point x="126" y="265"/>
      <point x="123" y="249"/>
      <point x="138" y="226" type="curve" smooth="yes"/>
      <point x="155" y="203"/>
      <point x="171" y="200"/>
      <point x="191" y="215" type="curve" smooth="yes"/>
      <point x="409" y="379" type="line"/>
      <point x="513" y="225" type="line" smooth="yes"/>
      <point x="531" y="199"/>
      <point x="550" y="197"/>
    </contour>
  </outline>
</glyph>
<glyph name="thorn" format="2">
  <advance width="598"/>
  <unicode hex="00FE"/>
  <outline>
    <contour>
      <point x="-59" y="-390" type="curve" smooth="yes"/>
      <point x="-29" y="-390"/>
      <point x="-17" y="-382"/>
      <point x="-11" y="-364" type="curve" smooth="yes"/>
      <point x="113" y="20" type="line"/>
      <point x="149" y="-2"/>
      <point x="191" y="-17"/>
      <point x="234" y="-17" type="curve" smooth="yes"/>
      <point x="451" y="-17"/>
      <point x="553" y="196"/>
      <point x="553" y="350" type="curve" smooth="yes"/>
      <point x="553" y="454"/>
      <point x="500" y="519"/>
      <point x="408" y="519" type="curve" smooth="yes"/>
      <point x="366" y="519"/>
      <point x="308" y="504"/>
      <point x="250" y="441" type="curve"/>
      <point x="384" y="851" type="line" smooth="yes"/>
      <point x="393" y="878"/>
      <point x="384" y="890"/>
      <point x="343" y="890" type="curve" smooth="yes"/>
      <point x="316" y="890"/>
      <point x="306" y="884"/>
      <point x="298" y="858" type="curve" smooth="yes"/>
      <point x="-96" y="-357" type="line" smooth="yes"/>
      <point x="-104" y="-381"/>
      <point x="-80" y="-390"/>
    </contour>
    <contour>
      <point x="134" y="85" type="curve"/>
      <point x="209" y="315" type="line"/>
      <point x="260" y="393"/>
      <point x="320" y="439"/>
      <point x="379" y="439" type="curve" smooth="yes"/>
      <point x="435" y="439"/>
      <point x="463" y="405"/>
      <point x="463" y="341" type="curve" smooth="yes"/>
      <point x="463" y="238"/>
      <point x="401" y="61"/>
      <point x="228" y="61" type="curve" smooth="yes"/>
      <point x="196" y="61"/>
      <point x="168" y="68"/>
    </contour>
  </outline>
</glyph>
<glyph name="Eng" format="2">
  <advance width="888"/>
  <unicode hex="014A"/>
  <outline>
    <contour>
      <point x="646" y="-109" type="curve" smooth="yes"/>
      <point x="961" y="863" type="line" smooth="yes"/>
      <point x="968" y="881"/>
      <point x="955" y="890"/>
      <point x="926" y="890" type="curve" smooth="yes"/>
      <point x="898" y="890"/>
      <point x="880" y="881"/>
      <point x="874" y="863" type="curve" smooth="yes"/>
      <point x="645" y="158" type="line"/>
      <point x="418" y="863" type="line" smooth="yes"/>
      <point x="411" y="881"/>
      <point x="400" y="890"/>
      <point x="376" y="890" type="curve" smooth="yes"/>
      <point x="348" y="890"/>
      <point x="330" y="881"/>
      <point x="324" y="863" type="curve" smooth="yes"/>
      <point x="49" y="14" type="line" smooth="yes"/>
      <point x="43" y="-5"/>
      <point x="55" y="-14"/>
      <point x="84" y="-14" type="curve" smooth="yes"/>
      <point x="113" y="-14"/>
      <point x="130" y="-5"/>
      <point x="136" y="14" type="curve" smooth="yes"/>
      <point x="369" y="729" type="line"/>
      <point x="599" y="15" type="line"/>
      <point x="565" y="-87" type="line" smooth="yes"/>
      <point x="543" y="-157"/>
      <point x="533" y="-180"/>
      <point x="506" y="-180" type="curve" smooth="yes"/>
      <point x="489" y="-180"/>
      <point x="475" y="-170"/>
      <point x="451" y="-141" type="curve" smooth="yes"/>
      <point x="439" y="-125"/>
      <point x="423" y="-125"/>
      <point x="403" y="-140" type="curve" smooth="yes"/>
      <point x="378" y="-159"/>
      <point x="381" y="-172"/>
      <point x="395" y="-192" type="curve" smooth="yes"/>
      <point x="421" y="-232"/>
      <point x="460" y="-255"/>
      <point x="499" y="-255" type="curve" smooth="yes"/>
      <point x="561" y="-255"/>
      <point x="605" y="-235"/>
    </contour>
  </outline>
</glyph>
<glyph name="brevecomb" format="2">
  <unicode hex="0306"/>
  <guideline x="187" y="669" angle="0"/>
  <guideline x="183" y="565" angle="0"/>
  <anchor x="81" y="500" name="_top"/>
  <anchor x="184" y="818" name="top"/>
  <outline>
    <contour>
      <point x="126" y="618" type="curve" smooth="yes"/>
      <point x="236" y="618"/>
      <point x="298" y="669"/>
      <point x="345" y="813" type="curve" smooth="yes"/>
      <point x="351" y="833"/>
      <point x="338" y="846"/>
      <point x="314" y="846" type="curve" smooth="yes"/>
      <point x="295" y="846"/>
      <point x="285" y="840"/>
      <point x="275" y="816" type="curve" smooth="yes"/>
      <point x="249" y="758"/>
      <point x="200" y="704"/>
      <point x="141" y="704" type="curve" smooth="yes"/>
      <point x="91" y="704"/>
      <point x="61" y="746"/>
      <point x="66" y="820" type="curve" smooth="yes"/>
      <point x="68" y="836"/>
      <point x="54" y="848"/>
      <point x="34" y="848" type="curve" smooth="yes"/>
      <point x="14" y="848"/>
      <point x="3" y="840"/>
      <point x="-1" y="820" type="curve" smooth="yes"/>
      <point x="-24" y="691"/>
      <point x="24" y="618"/>
    </contour>
  </outline>
</glyph>
<glyph name="hookabovecomb" format="2">
  <unicode hex="0309"/>
  <anchor x="81" y="500" name="_top"/>
  <anchor x="170" y="774" name="top"/>
  <outline>
    <contour>
      <point x="161" y="860" type="curve" smooth="yes"/>
      <point x="123" y="860"/>
      <point x="90" y="850"/>
      <point x="59" y="830" type="curve" smooth="yes"/>
      <point x="44" y="819"/>
      <point x="39" y="805"/>
      <point x="45" y="791" type="curve" smooth="yes"/>
      <point x="55" y="769"/>
      <point x="69" y="760"/>
      <point x="81" y="768" type="curve" smooth="yes"/>
      <point x="103" y="780"/>
      <point x="125" y="788"/>
      <point x="144" y="788" type="curve" smooth="yes"/>
      <point x="160" y="788"/>
      <point x="169" y="781"/>
      <point x="169" y="770" type="curve" smooth="yes"/>
      <point x="169" y="756"/>
      <point x="159" y="745"/>
      <point x="135" y="731" type="curve" smooth="yes"/>
      <point x="100" y="710"/>
      <point x="86" y="686"/>
      <point x="93" y="655" type="curve" smooth="yes"/>
      <point x="99" y="625" type="line" smooth="yes"/>
      <point x="105" y="595"/>
      <point x="173" y="603"/>
      <point x="170" y="634" type="curve" smooth="yes"/>
      <point x="169" y="648" type="line" smooth="yes"/>
      <point x="168" y="660"/>
      <point x="173" y="671"/>
      <point x="206" y="690" type="curve" smooth="yes"/>
      <point x="243" y="710"/>
      <point x="266" y="738"/>
      <point x="266" y="779" type="curve" smooth="yes"/>
      <point x="266" y="830"/>
      <point x="226" y="860"/>
    </contour>
  </outline>
</glyph>
<glyph name="endash" format="2">
  <advance width="625"/>
  <unicode hex="2013"/>
  <outline>
    <contour>
      <point x="105" y="301" type="curve" smooth="yes"/>
      <point x="555" y="301" type="line" smooth="yes"/>
      <point x="575" y="301"/>
      <point x="585" y="311"/>
      <point x="595" y="341" type="curve" smooth="yes"/>
      <point x="605" y="371"/>
      <point x="600" y="381"/>
      <point x="580" y="381" type="curve" smooth="yes"/>
      <point x="130" y="381" type="line" smooth="yes"/>
      <point x="110" y="381"/>
      <point x="100" y="371"/>
      <point x="90" y="341" type="curve" smooth="yes"/>
      <point x="80" y="311"/>
      <point x="85" y="301"/>
    </contour>
  </outline>
</glyph>
<glyph name="minute" format="2">
  <advance width="240"/>
  <unicode hex="2032"/>
  <outline>
    <contour>
      <point x="221" y="648" type="curve" smooth="yes"/>
      <point x="238" y="648"/>
      <point x="248" y="654"/>
      <point x="259" y="671" type="curve" smooth="yes"/>
      <point x="379" y="873" type="line" smooth="yes"/>
      <point x="395" y="900"/>
      <point x="386" y="920"/>
      <point x="346" y="920" type="curve" smooth="yes"/>
      <point x="316" y="920"/>
      <point x="302" y="910"/>
      <point x="290" y="880" type="curve" smooth="yes"/>
      <point x="200" y="679" type="line" smooth="yes"/>
      <point x="191" y="660"/>
      <point x="199" y="648"/>
    </contour>
  </outline>
</glyph>
<glyph name="A.cur.ini" format="2">
  <advance width="929"/>
  <anchor x="359" y="0" name="bottom"/>
  <anchor x="848" y="0" name="cnct"/>
  <anchor x="850" y="13" name="ogonek"/>
  <anchor x="618" y="838" name="top"/>
  <outline>
    <contour>
      <point x="359" y="-17" type="curve" smooth="yes"/>
      <point x="494" y="-17"/>
      <point x="594" y="55"/>
      <point x="670" y="155" type="curve"/>
      <point x="666" y="139" type="line" smooth="yes"/>
      <point x="644" y="40"/>
      <point x="693" y="-17"/>
      <point x="791" y="-17" type="curve" smooth="yes"/>
      <point x="841" y="-17"/>
      <point x="866" y="58"/>
      <point x="816" y="58" type="curve" smooth="yes"/>
      <point x="754" y="58"/>
      <point x="739" y="99"/>
      <point x="769" y="191" type="curve" smooth="yes"/>
      <point x="861" y="475" type="line" smooth="yes"/>
      <point x="869" y="496"/>
      <point x="853" y="505"/>
      <point x="826" y="505" type="curve" smooth="yes"/>
      <point x="796" y="505"/>
      <point x="781" y="496"/>
      <point x="775" y="478" type="curve"/>
      <point x="668" y="215"/>
      <point x="543" y="68"/>
      <point x="375" y="68" type="curve" smooth="yes"/>
      <point x="306" y="68"/>
      <point x="191" y="100"/>
      <point x="191" y="270" type="curve" smooth="yes"/>
      <point x="191" y="540"/>
      <point x="386" y="805"/>
      <point x="628" y="805" type="curve" smooth="yes"/>
      <point x="720" y="805"/>
      <point x="811" y="770"/>
      <point x="840" y="658" type="curve" smooth="yes"/>
      <point x="846" y="635"/>
      <point x="861" y="626"/>
      <point x="886" y="635" type="curve" smooth="yes"/>
      <point x="918" y="646"/>
      <point x="921" y="658"/>
      <point x="911" y="694" type="curve" smooth="yes"/>
      <point x="874" y="831"/>
      <point x="769" y="890"/>
      <point x="639" y="890" type="curve" smooth="yes"/>
      <point x="328" y="890"/>
      <point x="99" y="589"/>
      <point x="99" y="266" type="curve" smooth="yes"/>
      <point x="99" y="56"/>
      <point x="240" y="-17"/>
    </contour>
  </outline>
</glyph>
<glyph name="A.cur_locl" format="2">
  <advance width="979"/>
  <anchor x="359" y="0" name="bottom"/>
  <anchor x="850" y="13" name="ogonek"/>
  <anchor x="618" y="838" name="top"/>
  <outline>
    <contour>
      <point x="359" y="-17" type="curve" smooth="yes"/>
      <point x="494" y="-17"/>
      <point x="594" y="55"/>
      <point x="670" y="155" type="curve"/>
      <point x="666" y="139" type="line" smooth="yes"/>
      <point x="645" y="46"/>
      <point x="684" y="-17"/>
      <point x="773" y="-17" type="curve" smooth="yes"/>
      <point x="826" y="-17"/>
      <point x="883" y="15"/>
      <point x="923" y="96" type="curve" smooth="yes"/>
      <point x="934" y="118"/>
      <point x="926" y="134"/>
      <point x="906" y="143" type="curve" smooth="yes"/>
      <point x="881" y="154"/>
      <point x="869" y="146"/>
      <point x="853" y="124" type="curve" smooth="yes"/>
      <point x="825" y="84"/>
      <point x="805" y="68"/>
      <point x="779" y="68" type="curve" smooth="yes"/>
      <point x="746" y="68"/>
      <point x="741" y="106"/>
      <point x="761" y="169" type="curve" smooth="yes"/>
      <point x="988" y="860" type="line" smooth="yes"/>
      <point x="995" y="881"/>
      <point x="979" y="890"/>
      <point x="953" y="890" type="curve" smooth="yes"/>
      <point x="923" y="890"/>
      <point x="908" y="880"/>
      <point x="901" y="863" type="curve" smooth="yes"/>
      <point x="873" y="774" type="line"/>
      <point x="821" y="850"/>
      <point x="741" y="890"/>
      <point x="639" y="890" type="curve" smooth="yes"/>
      <point x="328" y="890"/>
      <point x="99" y="589"/>
      <point x="99" y="266" type="curve" smooth="yes"/>
      <point x="99" y="56"/>
      <point x="240" y="-17"/>
    </contour>
    <contour>
      <point x="191" y="270" type="curve" smooth="yes"/>
      <point x="191" y="540"/>
      <point x="386" y="805"/>
      <point x="628" y="805" type="curve" smooth="yes"/>
      <point x="734" y="805"/>
      <point x="804" y="759"/>
      <point x="838" y="668" type="curve"/>
      <point x="771" y="466" type="line"/>
      <point x="655" y="188"/>
      <point x="526" y="68"/>
      <point x="375" y="68" type="curve" smooth="yes"/>
      <point x="306" y="68"/>
      <point x="191" y="100"/>
    </contour>
  </outline>
</glyph>
<glyph name="A.dec_locl.ini" format="2">
  <advance width="955"/>
  <anchor x="466" y="0" name="bottom"/>
  <anchor x="874" y="0" name="cnct"/>
  <anchor x="838" y="0" name="ogonek"/>
  <anchor x="713" y="838" name="top"/>
  <outline>
    <contour>
      <point x="98" y="-17" type="curve" smooth="yes"/>
      <point x="180" y="-17"/>
      <point x="265" y="5"/>
      <point x="437" y="266" type="curve"/>
      <point x="676" y="266" type="line"/>
      <point x="675" y="239"/>
      <point x="675" y="213"/>
      <point x="675" y="188" type="curve" smooth="yes"/>
      <point x="675" y="48"/>
      <point x="723" y="-17"/>
      <point x="818" y="-17" type="curve" smooth="yes"/>
      <point x="868" y="-17"/>
      <point x="893" y="58"/>
      <point x="843" y="58" type="curve" smooth="yes"/>
      <point x="779" y="58"/>
      <point x="760" y="96"/>
      <point x="760" y="188" type="curve" smooth="yes"/>
      <point x="760" y="383"/>
      <point x="775" y="621"/>
      <point x="803" y="843" type="curve" smooth="yes"/>
      <point x="806" y="878"/>
      <point x="790" y="890"/>
      <point x="748" y="890" type="curve" smooth="yes"/>
      <point x="713" y="890"/>
      <point x="698" y="879"/>
      <point x="681" y="848" type="curve" smooth="yes"/>
      <point x="288" y="111"/>
      <point x="201" y="64"/>
      <point x="95" y="64" type="curve" smooth="yes"/>
      <point x="71" y="64"/>
      <point x="41" y="71"/>
      <point x="18" y="83" type="curve" smooth="yes"/>
      <point x="3" y="90"/>
      <point x="-10" y="81"/>
      <point x="-20" y="59" type="curve" smooth="yes"/>
      <point x="-30" y="34"/>
      <point x="-27" y="16"/>
      <point x="-11" y="8" type="curve" smooth="yes"/>
      <point x="13" y="-5"/>
      <point x="53" y="-17"/>
    </contour>
    <contour>
      <point x="487" y="344" type="line"/>
      <point x="550" y="446"/>
      <point x="623" y="576"/>
      <point x="709" y="743" type="curve"/>
      <point x="695" y="605"/>
      <point x="684" y="470"/>
      <point x="679" y="344" type="curve"/>
    </contour>
  </outline>
</glyph>
<glyph name="B.cur" format="2">
  <advance width="894"/>
  <guideline x="222" y="104" angle="72.99"/>
  <anchor x="468" y="0" name="bottom"/>
  <anchor x="294" y="258" name="center"/>
  <anchor x="654" y="838" name="top"/>
  <outline>
    <contour>
      <point x="478" y="-12" type="curve" smooth="yes"/>
      <point x="688" y="-12"/>
      <point x="846" y="118"/>
      <point x="846" y="304" type="curve" smooth="yes"/>
      <point x="846" y="395"/>
      <point x="774" y="460"/>
      <point x="676" y="473" type="curve"/>
      <point x="676" y="474" type="line"/>
      <point x="808" y="490"/>
      <point x="908" y="588"/>
      <point x="908" y="699" type="curve" smooth="yes"/>
      <point x="908" y="815"/>
      <point x="811" y="890"/>
      <point x="601" y="890" type="curve" smooth="yes"/>
      <point x="435" y="890"/>
      <point x="295" y="838"/>
      <point x="208" y="755" type="curve" smooth="yes"/>
      <point x="191" y="739"/>
      <point x="190" y="723"/>
      <point x="200" y="706" type="curve" smooth="yes"/>
      <point x="211" y="690"/>
      <point x="233" y="673"/>
      <point x="255" y="693" type="curve" smooth="yes"/>
      <point x="336" y="765"/>
      <point x="458" y="810"/>
      <point x="598" y="810" type="curve" smooth="yes"/>
      <point x="744" y="810"/>
      <point x="818" y="773"/>
      <point x="818" y="686" type="curve" smooth="yes"/>
      <point x="818" y="605"/>
      <point x="721" y="523"/>
      <point x="598" y="508" type="curve"/>
      <point x="584" y="514"/>
      <point x="566" y="521"/>
      <point x="541" y="521" type="curve" smooth="yes"/>
      <point x="475" y="521"/>
      <point x="458" y="475"/>
      <point x="458" y="451" type="curve" smooth="yes"/>
      <point x="458" y="431"/>
      <point x="473" y="414"/>
      <point x="506" y="414" type="curve" smooth="yes"/>
      <point x="529" y="414"/>
      <point x="550" y="423"/>
      <point x="574" y="433" type="curve"/>
      <point x="674" y="433"/>
      <point x="755" y="386"/>
      <point x="755" y="304" type="curve" smooth="yes"/>
      <point x="755" y="135"/>
      <point x="608" y="68"/>
      <point x="478" y="68" type="curve" smooth="yes"/>
      <point x="445" y="68"/>
      <point x="406" y="74"/>
      <point x="371" y="88" type="curve" smooth="yes"/>
      <point x="350" y="95"/>
      <point x="338" y="89"/>
      <point x="328" y="71" type="curve" smooth="yes"/>
      <point x="313" y="48"/>
      <point x="318" y="33"/>
      <point x="343" y="19" type="curve" smooth="yes"/>
      <point x="374" y="1"/>
      <point x="424" y="-12"/>
    </contour>
    <contour>
      <point x="113" y="-17" type="curve" smooth="yes"/>
      <point x="218" y="-17"/>
      <point x="271" y="60"/>
      <point x="318" y="203" type="curve" smooth="yes"/>
      <point x="476" y="696" type="line" smooth="yes"/>
      <point x="483" y="718"/>
      <point x="468" y="726"/>
      <point x="438" y="726" type="curve" smooth="yes"/>
      <point x="408" y="726"/>
      <point x="393" y="718"/>
      <point x="386" y="699" type="curve" smooth="yes"/>
      <point x="224" y="191" type="line" smooth="yes"/>
      <point x="194" y="96"/>
      <point x="168" y="68"/>
      <point x="123" y="68" type="curve" smooth="yes"/>
      <point x="90" y="68"/>
      <point x="60" y="84"/>
      <point x="36" y="111" type="curve" smooth="yes"/>
      <point x="18" y="134"/>
      <point x="8" y="139"/>
      <point x="-15" y="129" type="curve" smooth="yes"/>
      <point x="-35" y="120"/>
      <point x="-41" y="105"/>
      <point x="-32" y="81" type="curve" smooth="yes"/>
      <point x="-15" y="33"/>
      <point x="45" y="-17"/>
    </contour>
  </outline>
</glyph>
<glyph name="C.cur" format="2">
  <advance width="775"/>
  <anchor x="356" y="0" name="bottom"/>
  <anchor x="615" y="838" name="top"/>
  <outline>
    <contour>
      <point x="429" y="-19" type="curve" smooth="yes"/>
      <point x="513" y="-19"/>
      <point x="605" y="14"/>
      <point x="730" y="135" type="curve" smooth="yes"/>
      <point x="745" y="150"/>
      <point x="743" y="161"/>
      <point x="725" y="183" type="curve" smooth="yes"/>
      <point x="711" y="199"/>
      <point x="696" y="205"/>
      <point x="680" y="191" type="curve" smooth="yes"/>
      <point x="594" y="116"/>
      <point x="541" y="66"/>
      <point x="444" y="66" type="curve" smooth="yes"/>
      <point x="293" y="66"/>
      <point x="219" y="160"/>
      <point x="219" y="331" type="curve" smooth="yes"/>
      <point x="219" y="533"/>
      <point x="380" y="805"/>
      <point x="623" y="805" type="curve" smooth="yes"/>
      <point x="720" y="805"/>
      <point x="789" y="783"/>
      <point x="831" y="744" type="curve" smooth="yes"/>
      <point x="849" y="728"/>
      <point x="860" y="731"/>
      <point x="878" y="745" type="curve" smooth="yes"/>
      <point x="896" y="760"/>
      <point x="903" y="769"/>
      <point x="893" y="784" type="curve" smooth="yes"/>
      <point x="844" y="853"/>
      <point x="753" y="890"/>
      <point x="638" y="890" type="curve" smooth="yes"/>
      <point x="293" y="890"/>
      <point x="125" y="545"/>
      <point x="125" y="315" type="curve" smooth="yes"/>
      <point x="125" y="113"/>
      <point x="245" y="-19"/>
    </contour>
  </outline>
</glyph>
<glyph name="C.cur.ini" format="2">
  <advance width="775"/>
  <anchor x="356" y="0" name="bottom"/>
  <anchor x="694" y="0" name="cnct"/>
  <anchor x="615" y="838" name="top"/>
  <outline>
    <contour>
      <point x="428" y="-17" type="curve" smooth="yes"/>
      <point x="468" y="-17"/>
      <point x="478" y="60"/>
      <point x="438" y="60" type="curve" smooth="yes"/>
      <point x="305" y="60"/>
      <point x="219" y="141"/>
      <point x="219" y="318" type="curve" smooth="yes"/>
      <point x="219" y="530"/>
      <point x="380" y="805"/>
      <point x="623" y="805" type="curve" smooth="yes"/>
      <point x="720" y="805"/>
      <point x="789" y="783"/>
      <point x="831" y="744" type="curve" smooth="yes"/>
      <point x="849" y="728"/>
      <point x="860" y="731"/>
      <point x="878" y="745" type="curve" smooth="yes"/>
      <point x="896" y="760"/>
      <point x="903" y="769"/>
      <point x="893" y="784" type="curve" smooth="yes"/>
      <point x="844" y="853"/>
      <point x="753" y="890"/>
      <point x="638" y="890" type="curve" smooth="yes"/>
      <point x="293" y="890"/>
      <point x="125" y="542"/>
      <point x="125" y="312" type="curve" smooth="yes"/>
      <point x="125" y="99"/>
      <point x="243" y="-17"/>
    </contour>
  </outline>
</glyph>
<glyph name="E.cur.ini" format="2">
  <advance width="690"/>
  <anchor x="316" y="0" name="bottom"/>
  <anchor x="609" y="0" name="cnct"/>
  <anchor x="440" y="0" name="ogonek"/>
  <anchor x="533" y="838" name="top"/>
  <outline>
    <contour>
      <point x="343" y="-17" type="curve" smooth="yes"/>
      <point x="380" y="-17"/>
      <point x="393" y="60"/>
      <point x="353" y="60" type="curve" smooth="yes"/>
      <point x="230" y="60"/>
      <point x="155" y="119"/>
      <point x="155" y="215" type="curve" smooth="yes"/>
      <point x="155" y="335"/>
      <point x="278" y="419"/>
      <point x="426" y="419" type="curve" smooth="yes"/>
      <point x="544" y="419" type="line" smooth="yes"/>
      <point x="564" y="419"/>
      <point x="575" y="430"/>
      <point x="584" y="459" type="curve" smooth="yes"/>
      <point x="593" y="489"/>
      <point x="590" y="499"/>
      <point x="568" y="499" type="curve" smooth="yes"/>
      <point x="444" y="499" type="line" smooth="yes"/>
      <point x="339" y="499"/>
      <point x="301" y="556"/>
      <point x="301" y="620" type="curve" smooth="yes"/>
      <point x="301" y="714"/>
      <point x="379" y="803"/>
      <point x="510" y="803" type="curve" smooth="yes"/>
      <point x="584" y="803"/>
      <point x="650" y="780"/>
      <point x="696" y="744" type="curve" smooth="yes"/>
      <point x="721" y="724"/>
      <point x="735" y="720"/>
      <point x="754" y="738" type="curve" smooth="yes"/>
      <point x="770" y="751"/>
      <point x="778" y="766"/>
      <point x="760" y="789" type="curve" smooth="yes"/>
      <point x="709" y="855"/>
      <point x="630" y="890"/>
      <point x="530" y="890" type="curve" smooth="yes"/>
      <point x="345" y="890"/>
      <point x="210" y="779"/>
      <point x="210" y="618" type="curve" smooth="yes"/>
      <point x="210" y="543"/>
      <point x="255" y="478"/>
      <point x="316" y="463" type="curve"/>
      <point x="170" y="433"/>
      <point x="61" y="333"/>
      <point x="61" y="205" type="curve" smooth="yes"/>
      <point x="61" y="67"/>
      <point x="167" y="-17"/>
    </contour>
  </outline>
</glyph>
<glyph name="F.cur" format="2">
  <advance width="741"/>
  <guideline x="725"/>
  <guideline x="573"/>
  <outline>
    <contour>
      <point x="131" y="-17" type="curve" smooth="yes"/>
      <point x="236" y="-17"/>
      <point x="290" y="60"/>
      <point x="336" y="203" type="curve" smooth="yes"/>
      <point x="400" y="400" type="line"/>
      <point x="696" y="400" type="line" smooth="yes"/>
      <point x="716" y="400"/>
      <point x="728" y="410"/>
      <point x="735" y="438" type="curve" smooth="yes"/>
      <point x="741" y="463"/>
      <point x="739" y="480"/>
      <point x="719" y="480" type="curve" smooth="yes"/>
      <point x="426" y="480" type="line"/>
      <point x="528" y="795" type="line"/>
      <point x="879" y="795" type="line" smooth="yes"/>
      <point x="899" y="795"/>
      <point x="910" y="805"/>
      <point x="918" y="833" type="curve" smooth="yes"/>
      <point x="924" y="858"/>
      <point x="921" y="875"/>
      <point x="901" y="875" type="curve" smooth="yes"/>
      <point x="448" y="875" type="line" smooth="yes"/>
      <point x="336" y="875"/>
      <point x="245" y="840"/>
      <point x="174" y="761" type="curve" smooth="yes"/>
      <point x="155" y="740"/>
      <point x="149" y="723"/>
      <point x="169" y="703" type="curve" smooth="yes"/>
      <point x="186" y="685"/>
      <point x="204" y="680"/>
      <point x="223" y="700" type="curve" smooth="yes"/>
      <point x="291" y="770"/>
      <point x="354" y="795"/>
      <point x="431" y="795" type="curve" smooth="yes"/>
      <point x="438" y="795" type="line"/>
      <point x="243" y="191" type="line" smooth="yes"/>
      <point x="213" y="96"/>
      <point x="186" y="68"/>
      <point x="141" y="68" type="curve" smooth="yes"/>
      <point x="109" y="68"/>
      <point x="79" y="84"/>
      <point x="55" y="111" type="curve" smooth="yes"/>
      <point x="36" y="134"/>
      <point x="26" y="139"/>
      <point x="4" y="129" type="curve" smooth="yes"/>
      <point x="-16" y="120"/>
      <point x="-22" y="105"/>
      <point x="-14" y="81" type="curve" smooth="yes"/>
      <point x="4" y="33"/>
      <point x="64" y="-17"/>
    </contour>
  </outline>
</glyph>
<glyph name="G.cur_locl.ini" format="2">
  <advance width="874"/>
  <anchor x="216" y="0" name="bottom"/>
  <anchor x="793" y="0" name="cnct"/>
  <anchor x="550" y="838" name="top"/>
  <outline>
    <contour>
      <point x="416" y="-394" type="curve" smooth="yes"/>
      <point x="534" y="-394"/>
      <point x="599" y="-312"/>
      <point x="648" y="-161" type="curve" smooth="yes"/>
      <point x="828" y="394" type="line" smooth="yes"/>
      <point x="834" y="415"/>
      <point x="819" y="424"/>
      <point x="789" y="424" type="curve" smooth="yes"/>
      <point x="760" y="424"/>
      <point x="746" y="415"/>
      <point x="740" y="396" type="curve"/>
      <point x="643" y="224"/>
      <point x="476" y="99"/>
      <point x="345" y="99" type="curve" smooth="yes"/>
      <point x="258" y="99"/>
      <point x="210" y="138"/>
      <point x="210" y="214" type="curve" smooth="yes"/>
      <point x="210" y="436"/>
      <point x="399" y="806"/>
      <point x="626" y="806" type="curve" smooth="yes"/>
      <point x="680" y="806"/>
      <point x="714" y="783"/>
      <point x="714" y="735" type="curve" smooth="yes"/>
      <point x="714" y="561"/>
      <point x="366" y="325"/>
      <point x="13" y="208" type="curve" smooth="yes"/>
      <point x="-10" y="200"/>
      <point x="-17" y="184"/>
      <point x="-7" y="158" type="curve" smooth="yes"/>
      <point x="0" y="134"/>
      <point x="18" y="125"/>
      <point x="44" y="134" type="curve" smooth="yes"/>
      <point x="436" y="265"/>
      <point x="805" y="526"/>
      <point x="805" y="739" type="curve" smooth="yes"/>
      <point x="805" y="833"/>
      <point x="740" y="890"/>
      <point x="630" y="890" type="curve" smooth="yes"/>
      <point x="338" y="890"/>
      <point x="119" y="470"/>
      <point x="119" y="210" type="curve" smooth="yes"/>
      <point x="119" y="85"/>
      <point x="200" y="11"/>
      <point x="329" y="11" type="curve" smooth="yes"/>
      <point x="449" y="11"/>
      <point x="588" y="93"/>
      <point x="679" y="206" type="curve"/>
      <point x="554" y="-172" type="line" smooth="yes"/>
      <point x="523" y="-267"/>
      <point x="478" y="-316"/>
      <point x="423" y="-316" type="curve" smooth="yes"/>
      <point x="390" y="-316"/>
      <point x="369" y="-302"/>
      <point x="369" y="-274" type="curve" smooth="yes"/>
      <point x="369" y="-224"/>
      <point x="278" y="-225"/>
      <point x="278" y="-275" type="curve" smooth="yes"/>
      <point x="278" y="-357"/>
      <point x="341" y="-394"/>
    </contour>
  </outline>
</glyph>
<glyph name="G.cur_ro" format="2">
  <advance width="745"/>
  <anchor x="297" y="0" name="bottom"/>
  <anchor x="556" y="875" name="top"/>
  <outline>
    <contour>
      <point x="293" y="-20" type="curve" smooth="yes"/>
      <point x="482" y="-20"/>
      <point x="611" y="124"/>
      <point x="723" y="466" type="curve" smooth="yes"/>
      <point x="729" y="485"/>
      <point x="717" y="495"/>
      <point x="698" y="495" type="curve" smooth="yes"/>
      <point x="681" y="495"/>
      <point x="675" y="495"/>
      <point x="642" y="478" type="curve" smooth="yes"/>
      <point x="618" y="467"/>
      <point x="513" y="409"/>
      <point x="404" y="409" type="curve" smooth="yes"/>
      <point x="333" y="409"/>
      <point x="292" y="431"/>
      <point x="292" y="493" type="curve" smooth="yes"/>
      <point x="292" y="610"/>
      <point x="407" y="810"/>
      <point x="559" y="810" type="curve" smooth="yes"/>
      <point x="600" y="810"/>
      <point x="628" y="794"/>
      <point x="628" y="752" type="curve" smooth="yes"/>
      <point x="628" y="664"/>
      <point x="487" y="564"/>
      <point x="363" y="564" type="curve" smooth="yes"/>
      <point x="233" y="564"/>
      <point x="222" y="660"/>
      <point x="280" y="840" type="curve" smooth="yes"/>
      <point x="287" y="861"/>
      <point x="273" y="871"/>
      <point x="247" y="871" type="curve" smooth="yes"/>
      <point x="219" y="871"/>
      <point x="206" y="861"/>
      <point x="200" y="844" type="curve" smooth="yes"/>
      <point x="129" y="631"/>
      <point x="177" y="488"/>
      <point x="362" y="488" type="curve" smooth="yes"/>
      <point x="516" y="488"/>
      <point x="719" y="623"/>
      <point x="719" y="771" type="curve" smooth="yes"/>
      <point x="719" y="849"/>
      <point x="665" y="894"/>
      <point x="581" y="894" type="curve" smooth="yes"/>
      <point x="365" y="894"/>
      <point x="203" y="653"/>
      <point x="203" y="487" type="curve" smooth="yes"/>
      <point x="203" y="388"/>
      <point x="266" y="325"/>
      <point x="389" y="325" type="curve" smooth="yes"/>
      <point x="452" y="325"/>
      <point x="527" y="347"/>
      <point x="609" y="388" type="curve"/>
      <point x="534" y="171"/>
      <point x="428" y="60"/>
      <point x="306" y="60" type="curve" smooth="yes"/>
      <point x="243" y="60"/>
      <point x="202" y="91"/>
      <point x="182" y="167" type="curve" smooth="yes"/>
      <point x="177" y="187"/>
      <point x="168" y="192"/>
      <point x="141" y="186" type="curve" smooth="yes"/>
      <point x="121" y="182"/>
      <point x="109" y="170"/>
      <point x="112" y="151" type="curve" smooth="yes"/>
      <point x="126" y="45"/>
      <point x="195" y="-20"/>
    </contour>
  </outline>
</glyph>
<glyph name="G.dec" format="2">
  <advance width="1029"/>
  <anchor x="496" y="0" name="bottom"/>
  <anchor x="718" y="838" name="top"/>
  <outline>
    <contour>
      <point x="45" y="-12" type="curve" smooth="yes"/>
      <point x="379" y="-12"/>
      <point x="620" y="531"/>
      <point x="620" y="750" type="curve" smooth="yes"/>
      <point x="620" y="836"/>
      <point x="564" y="890"/>
      <point x="486" y="890" type="curve" smooth="yes"/>
      <point x="398" y="890"/>
      <point x="339" y="823"/>
      <point x="339" y="729" type="curve" smooth="yes"/>
      <point x="339" y="613"/>
      <point x="429" y="499"/>
      <point x="576" y="499" type="curve" smooth="yes"/>
      <point x="719" y="499"/>
      <point x="851" y="568"/>
      <point x="968" y="729" type="curve"/>
      <point x="924" y="729" type="line"/>
      <point x="911" y="653"/>
      <point x="903" y="568"/>
      <point x="881" y="483" type="curve" smooth="yes"/>
      <point x="811" y="195"/>
      <point x="720" y="75"/>
      <point x="548" y="75" type="curve" smooth="yes"/>
      <point x="370" y="75"/>
      <point x="243" y="225"/>
      <point x="223" y="435" type="curve"/>
      <point x="170" y="414" type="line"/>
      <point x="406" y="266"/>
      <point x="694" y="205"/>
      <point x="988" y="205" type="curve" smooth="yes"/>
      <point x="1008" y="205"/>
      <point x="1018" y="218"/>
      <point x="1024" y="241" type="curve" smooth="yes"/>
      <point x="1031" y="270"/>
      <point x="1025" y="285"/>
      <point x="1003" y="285" type="curve" smooth="yes"/>
      <point x="690" y="285"/>
      <point x="473" y="330"/>
      <point x="235" y="461" type="curve" smooth="yes"/>
      <point x="200" y="483"/>
      <point x="181" y="484"/>
      <point x="163" y="468" type="curve" smooth="yes"/>
      <point x="145" y="453"/>
      <point x="141" y="443"/>
      <point x="144" y="419" type="curve" smooth="yes"/>
      <point x="170" y="184"/>
      <point x="331" y="-12"/>
      <point x="545" y="-12" type="curve" smooth="yes"/>
      <point x="766" y="-12"/>
      <point x="890" y="133"/>
      <point x="973" y="476" type="curve" smooth="yes"/>
      <point x="1000" y="589"/>
      <point x="1014" y="703"/>
      <point x="1020" y="789" type="curve" smooth="yes"/>
      <point x="1021" y="813"/>
      <point x="998" y="829"/>
      <point x="969" y="829" type="curve" smooth="yes"/>
      <point x="958" y="829"/>
      <point x="946" y="825"/>
      <point x="939" y="815" type="curve" smooth="yes"/>
      <point x="828" y="651"/>
      <point x="710" y="579"/>
      <point x="594" y="579" type="curve" smooth="yes"/>
      <point x="478" y="579"/>
      <point x="426" y="656"/>
      <point x="426" y="730" type="curve" smooth="yes"/>
      <point x="426" y="776"/>
      <point x="441" y="810"/>
      <point x="484" y="810" type="curve" smooth="yes"/>
      <point x="518" y="810"/>
      <point x="535" y="785"/>
      <point x="535" y="736" type="curve" smooth="yes"/>
      <point x="535" y="543"/>
      <point x="316" y="68"/>
      <point x="56" y="68" type="curve" smooth="yes"/>
      <point x="33" y="68"/>
      <point x="19" y="58"/>
      <point x="13" y="33" type="curve" smooth="yes"/>
      <point x="5" y="1"/>
      <point x="16" y="-12"/>
    </contour>
  </outline>
</glyph>
<glyph name="H.cur" format="2">
  <advance width="1033"/>
  <anchor x="450" y="0" name="bottom"/>
  <anchor x="681" y="676" name="center"/>
  <anchor x="705" y="838" name="top"/>
  <outline>
    <contour>
      <point x="161" y="-17" type="curve" smooth="yes"/>
      <point x="263" y="-17"/>
      <point x="303" y="56"/>
      <point x="350" y="203" type="curve" smooth="yes"/>
      <point x="386" y="313" type="line"/>
      <point x="500" y="355"/>
      <point x="634" y="409"/>
      <point x="744" y="454" type="curve"/>
      <point x="659" y="195" type="line" smooth="yes"/>
      <point x="619" y="71"/>
      <point x="669" y="-17"/>
      <point x="789" y="-17" type="curve" smooth="yes"/>
      <point x="861" y="-17"/>
      <point x="933" y="35"/>
      <point x="974" y="116" type="curve" smooth="yes"/>
      <point x="986" y="143"/>
      <point x="981" y="158"/>
      <point x="961" y="166" type="curve" smooth="yes"/>
      <point x="936" y="178"/>
      <point x="923" y="170"/>
      <point x="908" y="148" type="curve" smooth="yes"/>
      <point x="874" y="95"/>
      <point x="834" y="68"/>
      <point x="790" y="68" type="curve" smooth="yes"/>
      <point x="736" y="68"/>
      <point x="720" y="104"/>
      <point x="744" y="176" type="curve" smooth="yes"/>
      <point x="848" y="493" type="line"/>
      <point x="978" y="551"/>
      <point x="1119" y="636"/>
      <point x="1119" y="748" type="curve" smooth="yes"/>
      <point x="1119" y="816"/>
      <point x="1081" y="875"/>
      <point x="995" y="875" type="curve" smooth="yes"/>
      <point x="896" y="875"/>
      <point x="856" y="801"/>
      <point x="809" y="655" type="curve" smooth="yes"/>
      <point x="776" y="554" type="line"/>
      <point x="658" y="505"/>
      <point x="538" y="455"/>
      <point x="418" y="411" type="curve"/>
      <point x="520" y="725" type="line" smooth="yes"/>
      <point x="555" y="834"/>
      <point x="513" y="890"/>
      <point x="414" y="890" type="curve" smooth="yes"/>
      <point x="340" y="890"/>
      <point x="274" y="851"/>
      <point x="208" y="784" type="curve" smooth="yes"/>
      <point x="193" y="769"/>
      <point x="193" y="755"/>
      <point x="209" y="736" type="curve" smooth="yes"/>
      <point x="226" y="719"/>
      <point x="240" y="718"/>
      <point x="256" y="734" type="curve" smooth="yes"/>
      <point x="314" y="788"/>
      <point x="363" y="806"/>
      <point x="394" y="806" type="curve" smooth="yes"/>
      <point x="436" y="806"/>
      <point x="448" y="784"/>
      <point x="430" y="731" type="curve" smooth="yes"/>
      <point x="316" y="379" type="line"/>
      <point x="179" y="323"/>
      <point x="39" y="235"/>
      <point x="39" y="103" type="curve" smooth="yes"/>
      <point x="39" y="34"/>
      <point x="85" y="-17"/>
    </contour>
    <contour>
      <point x="165" y="60" type="curve" smooth="yes"/>
      <point x="140" y="60"/>
      <point x="126" y="76"/>
      <point x="126" y="103" type="curve" smooth="yes"/>
      <point x="126" y="179"/>
      <point x="201" y="241"/>
      <point x="284" y="275" type="curve"/>
      <point x="256" y="191" type="line" smooth="yes"/>
      <point x="225" y="96"/>
      <point x="200" y="60"/>
    </contour>
    <contour>
      <point x="881" y="599" type="curve"/>
      <point x="903" y="663" type="line" smooth="yes"/>
      <point x="935" y="761"/>
      <point x="956" y="798"/>
      <point x="991" y="798" type="curve" smooth="yes"/>
      <point x="1020" y="798"/>
      <point x="1031" y="774"/>
      <point x="1031" y="748" type="curve" smooth="yes"/>
      <point x="1031" y="683"/>
      <point x="961" y="634"/>
    </contour>
  </outline>
</glyph>
<glyph name="H.cur.ini" format="2">
  <advance width="931"/>
  <anchor x="450" y="0" name="bottom"/>
  <anchor x="671" y="626" name="center"/>
  <anchor x="850" y="0" name="cnct"/>
  <anchor x="705" y="838" name="top"/>
  <outline>
    <contour>
      <point x="161" y="-17" type="curve" smooth="yes"/>
      <point x="261" y="-17"/>
      <point x="301" y="56"/>
      <point x="349" y="203" type="curve" smooth="yes"/>
      <point x="384" y="309" type="line"/>
      <point x="498" y="351"/>
      <point x="631" y="405"/>
      <point x="740" y="450" type="curve"/>
      <point x="663" y="213" type="line" smooth="yes"/>
      <point x="613" y="59"/>
      <point x="656" y="-17"/>
      <point x="794" y="-17" type="curve" smooth="yes"/>
      <point x="844" y="-17"/>
      <point x="869" y="58"/>
      <point x="819" y="58" type="curve" smooth="yes"/>
      <point x="735" y="58"/>
      <point x="714" y="93"/>
      <point x="746" y="193" type="curve" smooth="yes"/>
      <point x="844" y="491" type="line"/>
      <point x="975" y="550"/>
      <point x="1119" y="635"/>
      <point x="1119" y="748" type="curve" smooth="yes"/>
      <point x="1119" y="816"/>
      <point x="1081" y="875"/>
      <point x="995" y="875" type="curve" smooth="yes"/>
      <point x="896" y="875"/>
      <point x="855" y="801"/>
      <point x="808" y="655" type="curve" smooth="yes"/>
      <point x="774" y="554" type="line"/>
      <point x="656" y="504"/>
      <point x="536" y="455"/>
      <point x="418" y="411" type="curve"/>
      <point x="520" y="725" type="line" smooth="yes"/>
      <point x="555" y="834"/>
      <point x="513" y="890"/>
      <point x="414" y="890" type="curve" smooth="yes"/>
      <point x="340" y="890"/>
      <point x="274" y="851"/>
      <point x="208" y="784" type="curve" smooth="yes"/>
      <point x="193" y="769"/>
      <point x="193" y="755"/>
      <point x="209" y="736" type="curve" smooth="yes"/>
      <point x="225" y="718"/>
      <point x="238" y="716"/>
      <point x="256" y="734" type="curve" smooth="yes"/>
      <point x="314" y="788"/>
      <point x="363" y="806"/>
      <point x="394" y="806" type="curve" smooth="yes"/>
      <point x="436" y="806"/>
      <point x="448" y="784"/>
      <point x="430" y="731" type="curve" smooth="yes"/>
      <point x="316" y="379" type="line"/>
      <point x="179" y="323"/>
      <point x="39" y="235"/>
      <point x="39" y="103" type="curve" smooth="yes"/>
      <point x="39" y="34"/>
      <point x="85" y="-17"/>
    </contour>
    <contour>
      <point x="165" y="60" type="curve" smooth="yes"/>
      <point x="140" y="60"/>
      <point x="126" y="76"/>
      <point x="126" y="103" type="curve" smooth="yes"/>
      <point x="126" y="179"/>
      <point x="201" y="241"/>
      <point x="284" y="275" type="curve"/>
      <point x="256" y="191" type="line" smooth="yes"/>
      <point x="225" y="96"/>
      <point x="200" y="60"/>
    </contour>
    <contour>
      <point x="879" y="596" type="curve"/>
      <point x="900" y="663" type="line" smooth="yes"/>
      <point x="933" y="761"/>
      <point x="956" y="798"/>
      <point x="991" y="798" type="curve" smooth="yes"/>
      <point x="1020" y="798"/>
      <point x="1031" y="774"/>
      <point x="1031" y="748" type="curve" smooth="yes"/>
      <point x="1031" y="681"/>
      <point x="959" y="633"/>
    </contour>
  </outline>
</glyph>
<glyph name="H.dec" format="2">
  <advance width="1086"/>
  <anchor x="506" y="0" name="bottom"/>
  <anchor x="728" y="676" name="center"/>
  <anchor x="761" y="838" name="top"/>
  <outline>
    <contour>
      <point x="274" y="-14" type="curve" smooth="yes"/>
      <point x="304" y="-14"/>
      <point x="319" y="-5"/>
      <point x="325" y="14" type="curve" smooth="yes"/>
      <point x="598" y="860" type="line" smooth="yes"/>
      <point x="604" y="881"/>
      <point x="589" y="890"/>
      <point x="559" y="890" type="curve" smooth="yes"/>
      <point x="543" y="890"/>
      <point x="531" y="884"/>
      <point x="521" y="876" type="curve" smooth="yes"/>
      <point x="504" y="863"/>
      <point x="488" y="846"/>
      <point x="453" y="846" type="curve" smooth="yes"/>
      <point x="410" y="846"/>
      <point x="375" y="870"/>
      <point x="323" y="870" type="curve" smooth="yes"/>
      <point x="246" y="870"/>
      <point x="191" y="821"/>
      <point x="179" y="750" type="curve" smooth="yes"/>
      <point x="175" y="730"/>
      <point x="181" y="715"/>
      <point x="216" y="715" type="curve" smooth="yes"/>
      <point x="244" y="715"/>
      <point x="254" y="723"/>
      <point x="263" y="749" type="curve" smooth="yes"/>
      <point x="271" y="778"/>
      <point x="285" y="786"/>
      <point x="308" y="786" type="curve" smooth="yes"/>
      <point x="340" y="786"/>
      <point x="383" y="763"/>
      <point x="424" y="763" type="curve" smooth="yes"/>
      <point x="448" y="763"/>
      <point x="466" y="768"/>
      <point x="483" y="776" type="curve"/>
      <point x="235" y="16" type="line" smooth="yes"/>
      <point x="229" y="-5"/>
      <point x="244" y="-14"/>
    </contour>
    <contour>
      <point x="778" y="146" type="curve"/>
      <point x="845" y="154" type="line"/>
      <point x="926" y="418"/>
      <point x="773" y="551"/>
      <point x="614" y="551" type="curve" smooth="yes"/>
      <point x="469" y="551"/>
      <point x="378" y="468"/>
      <point x="378" y="360" type="curve" smooth="yes"/>
      <point x="378" y="259"/>
      <point x="453" y="201"/>
      <point x="598" y="201" type="curve" smooth="yes"/>
      <point x="780" y="201"/>
      <point x="938" y="259"/>
      <point x="1113" y="415" type="curve" smooth="yes"/>
      <point x="1136" y="436"/>
      <point x="1141" y="451"/>
      <point x="1124" y="473" type="curve" smooth="yes"/>
      <point x="1106" y="493"/>
      <point x="1086" y="495"/>
      <point x="1065" y="474" type="curve" smooth="yes"/>
      <point x="920" y="334"/>
      <point x="779" y="281"/>
      <point x="601" y="281" type="curve" smooth="yes"/>
      <point x="513" y="281"/>
      <point x="445" y="316"/>
      <point x="445" y="369" type="curve" smooth="yes"/>
      <point x="445" y="433"/>
      <point x="501" y="471"/>
      <point x="588" y="471" type="curve" smooth="yes"/>
      <point x="729" y="471"/>
      <point x="844" y="374"/>
    </contour>
    <contour>
      <point x="774" y="-14" type="curve" smooth="yes"/>
      <point x="804" y="-14"/>
      <point x="819" y="-5"/>
      <point x="825" y="14" type="curve" smooth="yes"/>
      <point x="1098" y="860" type="line" smooth="yes"/>
      <point x="1104" y="881"/>
      <point x="1089" y="890"/>
      <point x="1059" y="890" type="curve" smooth="yes"/>
      <point x="1029" y="890"/>
      <point x="1014" y="881"/>
      <point x="1008" y="863" type="curve" smooth="yes"/>
      <point x="735" y="16" type="line" smooth="yes"/>
      <point x="728" y="-5"/>
      <point x="744" y="-14"/>
    </contour>
  </outline>
</glyph>
<glyph name="I.cur.ini" format="2">
  <advance width="985"/>
  <anchor x="590" y="0" name="bottom"/>
  <anchor x="904" y="0" name="cnct"/>
  <anchor x="433" y="-6" name="ogonek"/>
  <anchor x="726" y="838" name="top"/>
  <outline>
    <contour>
      <point x="333" y="-17" type="curve" smooth="yes"/>
      <point x="627" y="-17"/>
      <point x="946" y="360"/>
      <point x="946" y="698" type="curve" smooth="yes"/>
      <point x="946" y="826"/>
      <point x="879" y="891"/>
      <point x="776" y="891" type="curve" smooth="yes"/>
      <point x="606" y="891"/>
      <point x="496" y="714"/>
      <point x="496" y="483" type="curve" smooth="yes"/>
      <point x="496" y="193"/>
      <point x="644" y="-17"/>
      <point x="848" y="-17" type="curve" smooth="yes"/>
      <point x="888" y="-17"/>
      <point x="913" y="58"/>
      <point x="873" y="58" type="curve" smooth="yes"/>
      <point x="708" y="58"/>
      <point x="588" y="237"/>
      <point x="588" y="483" type="curve" smooth="yes"/>
      <point x="588" y="667"/>
      <point x="663" y="809"/>
      <point x="774" y="809" type="curve" smooth="yes"/>
      <point x="824" y="809"/>
      <point x="855" y="771"/>
      <point x="855" y="695" type="curve" smooth="yes"/>
      <point x="855" y="349"/>
      <point x="538" y="68"/>
      <point x="343" y="68" type="curve" smooth="yes"/>
      <point x="241" y="68"/>
      <point x="181" y="113"/>
      <point x="159" y="224" type="curve"/>
      <point x="221" y="206"/>
      <point x="275" y="199"/>
      <point x="348" y="199" type="curve" smooth="yes"/>
      <point x="366" y="199"/>
      <point x="378" y="208"/>
      <point x="383" y="231" type="curve" smooth="yes"/>
      <point x="389" y="263"/>
      <point x="375" y="274"/>
      <point x="355" y="274" type="curve" smooth="yes"/>
      <point x="269" y="274"/>
      <point x="206" y="283"/>
      <point x="145" y="305" type="curve" smooth="yes"/>
      <point x="111" y="318"/>
      <point x="98" y="316"/>
      <point x="81" y="300" type="curve" smooth="yes"/>
      <point x="68" y="288"/>
      <point x="64" y="276"/>
      <point x="68" y="248" type="curve" smooth="yes"/>
      <point x="85" y="85"/>
      <point x="168" y="-17"/>
    </contour>
  </outline>
</glyph>
<glyph name="IJ.cur.ini" format="2">
  <advance width="758"/>
  <anchor x="140" y="0" name="bottom"/>
  <anchor x="676" y="0" name="cnct"/>
  <anchor x="574" y="838" name="top"/>
  <outline>
    <contour>
      <point x="300" y="-394" type="curve" smooth="yes"/>
      <point x="418" y="-394"/>
      <point x="483" y="-312"/>
      <point x="531" y="-161" type="curve" smooth="yes"/>
      <point x="863" y="858" type="line" smooth="yes"/>
      <point x="870" y="879"/>
      <point x="854" y="888"/>
      <point x="824" y="888" type="curve" smooth="yes"/>
      <point x="794" y="888"/>
      <point x="779" y="879"/>
      <point x="773" y="860" type="curve" smooth="yes"/>
      <point x="591" y="300" type="line"/>
      <point x="530" y="201"/>
      <point x="433" y="139"/>
      <point x="321" y="139" type="curve" smooth="yes"/>
      <point x="208" y="139"/>
      <point x="185" y="193"/>
      <point x="233" y="339" type="curve" smooth="yes"/>
      <point x="401" y="858" type="line" smooth="yes"/>
      <point x="409" y="879"/>
      <point x="393" y="888"/>
      <point x="363" y="888" type="curve" smooth="yes"/>
      <point x="333" y="888"/>
      <point x="318" y="879"/>
      <point x="311" y="860" type="curve" smooth="yes"/>
      <point x="139" y="331" type="line" smooth="yes"/>
      <point x="79" y="149"/>
      <point x="133" y="51"/>
      <point x="298" y="51" type="curve" smooth="yes"/>
      <point x="389" y="51"/>
      <point x="478" y="91"/>
      <point x="544" y="154" type="curve"/>
      <point x="438" y="-172" type="line" smooth="yes"/>
      <point x="408" y="-266"/>
      <point x="361" y="-316"/>
      <point x="306" y="-316" type="curve" smooth="yes"/>
      <point x="274" y="-316"/>
      <point x="253" y="-302"/>
      <point x="253" y="-274" type="curve" smooth="yes"/>
      <point x="253" y="-224"/>
      <point x="161" y="-225"/>
      <point x="161" y="-275" type="curve" smooth="yes"/>
      <point x="161" y="-357"/>
      <point x="225" y="-394"/>
    </contour>
  </outline>
</glyph>
<glyph name="J.dec.ini" format="2">
  <advance width="535"/>
  <anchor x="64" y="-406" name="bottom"/>
  <anchor x="454" y="0" name="cnct"/>
  <anchor x="515" y="838" name="top"/>
  <outline>
    <contour>
      <point x="78" y="-394" type="curve" smooth="yes"/>
      <point x="195" y="-394"/>
      <point x="260" y="-312"/>
      <point x="309" y="-161" type="curve" smooth="yes"/>
      <point x="640" y="860" type="line" smooth="yes"/>
      <point x="646" y="881"/>
      <point x="631" y="890"/>
      <point x="600" y="890" type="curve" smooth="yes"/>
      <point x="584" y="890"/>
      <point x="573" y="884"/>
      <point x="563" y="876" type="curve" smooth="yes"/>
      <point x="544" y="861"/>
      <point x="524" y="846"/>
      <point x="483" y="846" type="curve" smooth="yes"/>
      <point x="439" y="846"/>
      <point x="395" y="870"/>
      <point x="335" y="870" type="curve" smooth="yes"/>
      <point x="254" y="870"/>
      <point x="210" y="821"/>
      <point x="198" y="750" type="curve" smooth="yes"/>
      <point x="194" y="730"/>
      <point x="200" y="715"/>
      <point x="235" y="715" type="curve" smooth="yes"/>
      <point x="263" y="715"/>
      <point x="273" y="723"/>
      <point x="281" y="749" type="curve" smooth="yes"/>
      <point x="291" y="778"/>
      <point x="305" y="786"/>
      <point x="330" y="786" type="curve" smooth="yes"/>
      <point x="364" y="786"/>
      <point x="410" y="763"/>
      <point x="454" y="763" type="curve" smooth="yes"/>
      <point x="483" y="763"/>
      <point x="505" y="768"/>
      <point x="521" y="776" type="curve"/>
      <point x="215" y="-172" type="line" smooth="yes"/>
      <point x="185" y="-266"/>
      <point x="139" y="-316"/>
      <point x="84" y="-316" type="curve" smooth="yes"/>
      <point x="51" y="-316"/>
      <point x="30" y="-302"/>
      <point x="30" y="-274" type="curve" smooth="yes"/>
      <point x="30" y="-224"/>
      <point x="-61" y="-225"/>
      <point x="-61" y="-275" type="curve" smooth="yes"/>
      <point x="-61" y="-357"/>
      <point x="3" y="-394"/>
    </contour>
  </outline>
</glyph>
<glyph name="K.dec.ini" format="2">
  <advance width="926"/>
  <anchor x="494" y="0" name="bottom"/>
  <anchor x="845" y="0" name="cnct"/>
  <anchor x="730" y="838" name="top"/>
  <outline>
    <contour>
      <point x="789" y="-17" type="curve" smooth="yes"/>
      <point x="839" y="-17"/>
      <point x="864" y="58"/>
      <point x="814" y="58" type="curve" smooth="yes"/>
      <point x="690" y="58"/>
      <point x="811" y="370"/>
      <point x="639" y="438" type="curve"/>
      <point x="838" y="479"/>
      <point x="864" y="810"/>
      <point x="974" y="810" type="curve" smooth="yes"/>
      <point x="1000" y="810"/>
      <point x="1025" y="801"/>
      <point x="1043" y="793" type="curve" smooth="yes"/>
      <point x="1070" y="779"/>
      <point x="1079" y="776"/>
      <point x="1096" y="800" type="curve" smooth="yes"/>
      <point x="1111" y="821"/>
      <point x="1109" y="836"/>
      <point x="1089" y="853" type="curve" smooth="yes"/>
      <point x="1055" y="876"/>
      <point x="1014" y="890"/>
      <point x="979" y="890" type="curve" smooth="yes"/>
      <point x="755" y="890"/>
      <point x="813" y="488"/>
      <point x="516" y="488" type="curve" smooth="yes"/>
      <point x="478" y="488" type="line"/>
      <point x="598" y="860" type="line" smooth="yes"/>
      <point x="604" y="881"/>
      <point x="589" y="890"/>
      <point x="559" y="890" type="curve" smooth="yes"/>
      <point x="543" y="890"/>
      <point x="531" y="884"/>
      <point x="521" y="876" type="curve" smooth="yes"/>
      <point x="504" y="863"/>
      <point x="488" y="846"/>
      <point x="453" y="846" type="curve" smooth="yes"/>
      <point x="410" y="846"/>
      <point x="375" y="870"/>
      <point x="323" y="870" type="curve" smooth="yes"/>
      <point x="246" y="870"/>
      <point x="191" y="821"/>
      <point x="179" y="750" type="curve" smooth="yes"/>
      <point x="175" y="730"/>
      <point x="181" y="715"/>
      <point x="216" y="715" type="curve" smooth="yes"/>
      <point x="244" y="715"/>
      <point x="254" y="723"/>
      <point x="263" y="749" type="curve" smooth="yes"/>
      <point x="271" y="778"/>
      <point x="285" y="786"/>
      <point x="308" y="786" type="curve" smooth="yes"/>
      <point x="340" y="786"/>
      <point x="383" y="763"/>
      <point x="424" y="763" type="curve" smooth="yes"/>
      <point x="448" y="763"/>
      <point x="466" y="768"/>
      <point x="483" y="776" type="curve"/>
      <point x="235" y="16" type="line" smooth="yes"/>
      <point x="229" y="-5"/>
      <point x="244" y="-14"/>
      <point x="274" y="-14" type="curve" smooth="yes"/>
      <point x="304" y="-14"/>
      <point x="319" y="-5"/>
      <point x="325" y="14" type="curve" smooth="yes"/>
      <point x="451" y="408" type="line"/>
      <point x="490" y="408" type="line" smooth="yes"/>
      <point x="776" y="408"/>
      <point x="558" y="-17"/>
    </contour>
  </outline>
</glyph>
<glyph name="L.dec" format="2">
  <advance width="818"/>
  <anchor x="613" y="403" name="CAT"/>
  <anchor x="375" y="0" name="bottom"/>
  <anchor x="311" y="350" name="center"/>
  <anchor x="613" y="838" name="top"/>
  <anchor x="803" y="875" name="topright"/>
  <outline>
    <contour>
      <point x="509" y="-17" type="curve" smooth="yes"/>
      <point x="638" y="-17"/>
      <point x="726" y="43"/>
      <point x="778" y="164" type="curve" smooth="yes"/>
      <point x="788" y="186"/>
      <point x="783" y="205"/>
      <point x="751" y="215" type="curve" smooth="yes"/>
      <point x="726" y="223"/>
      <point x="708" y="219"/>
      <point x="700" y="199" type="curve" smooth="yes"/>
      <point x="669" y="110"/>
      <point x="614" y="66"/>
      <point x="511" y="66" type="curve" smooth="yes"/>
      <point x="376" y="66"/>
      <point x="270" y="203"/>
      <point x="125" y="203" type="curve" smooth="yes"/>
      <point x="41" y="203"/>
      <point x="-19" y="151"/>
      <point x="-19" y="80" type="curve" smooth="yes"/>
      <point x="-19" y="24"/>
      <point x="34" y="-17"/>
      <point x="101" y="-17" type="curve" smooth="yes"/>
      <point x="194" y="-17"/>
      <point x="253" y="39"/>
      <point x="300" y="183" type="curve" smooth="yes"/>
      <point x="434" y="590" type="line" smooth="yes"/>
      <point x="480" y="733"/>
      <point x="544" y="806"/>
      <point x="641" y="806" type="curve" smooth="yes"/>
      <point x="696" y="806"/>
      <point x="730" y="780"/>
      <point x="730" y="736" type="curve" smooth="yes"/>
      <point x="730" y="665"/>
      <point x="660" y="613"/>
      <point x="564" y="613" type="curve" smooth="yes"/>
      <point x="429" y="613"/>
      <point x="306" y="656"/>
      <point x="221" y="731" type="curve" smooth="yes"/>
      <point x="205" y="748"/>
      <point x="189" y="744"/>
      <point x="171" y="721" type="curve" smooth="yes"/>
      <point x="155" y="701"/>
      <point x="155" y="684"/>
      <point x="173" y="670" type="curve" smooth="yes"/>
      <point x="279" y="581"/>
      <point x="413" y="530"/>
      <point x="546" y="530" type="curve" smooth="yes"/>
      <point x="706" y="530"/>
      <point x="821" y="619"/>
      <point x="821" y="740" type="curve" smooth="yes"/>
      <point x="821" y="828"/>
      <point x="751" y="890"/>
      <point x="654" y="890" type="curve" smooth="yes"/>
      <point x="505" y="890"/>
      <point x="413" y="794"/>
      <point x="353" y="611" type="curve" smooth="yes"/>
      <point x="216" y="194" type="line" smooth="yes"/>
      <point x="185" y="98"/>
      <point x="163" y="63"/>
      <point x="114" y="63" type="curve" smooth="yes"/>
      <point x="85" y="63"/>
      <point x="73" y="73"/>
      <point x="73" y="89" type="curve" smooth="yes"/>
      <point x="73" y="103"/>
      <point x="83" y="123"/>
      <point x="124" y="123" type="curve" smooth="yes"/>
      <point x="225" y="123"/>
      <point x="355" y="-17"/>
    </contour>
  </outline>
</glyph>
<glyph name="M.cur" format="2">
  <advance width="1301"/>
  <anchor x="570" y="0" name="bottom"/>
  <anchor x="841" y="838" name="top"/>
  <outline>
    <contour>
      <point x="1083" y="-17" type="curve" smooth="yes"/>
      <point x="1143" y="-17"/>
      <point x="1196" y="16"/>
      <point x="1239" y="96" type="curve"/>
      <point x="1248" y="119"/>
      <point x="1243" y="134"/>
      <point x="1223" y="143" type="curve" smooth="yes"/>
      <point x="1198" y="154"/>
      <point x="1185" y="146"/>
      <point x="1169" y="124" type="curve" smooth="yes"/>
      <point x="1141" y="84"/>
      <point x="1121" y="68"/>
      <point x="1101" y="68" type="curve" smooth="yes"/>
      <point x="1065" y="68"/>
      <point x="1053" y="94"/>
      <point x="1078" y="169" type="curve" smooth="yes"/>
      <point x="1234" y="633" type="line" smooth="yes"/>
      <point x="1289" y="796"/>
      <point x="1231" y="890"/>
      <point x="1089" y="890" type="curve" smooth="yes"/>
      <point x="1006" y="890"/>
      <point x="918" y="839"/>
      <point x="854" y="759" type="curve"/>
      <point x="853" y="772"/>
      <point x="851" y="784"/>
      <point x="848" y="795" type="curve" smooth="yes"/>
      <point x="829" y="857"/>
      <point x="773" y="890"/>
      <point x="686" y="890" type="curve" smooth="yes"/>
      <point x="611" y="890"/>
      <point x="534" y="849"/>
      <point x="473" y="779" type="curve"/>
      <point x="474" y="792"/>
      <point x="473" y="803"/>
      <point x="471" y="814" type="curve" smooth="yes"/>
      <point x="462" y="864"/>
      <point x="425" y="893"/>
      <point x="361" y="893" type="curve" smooth="yes"/>
      <point x="294" y="893"/>
      <point x="221" y="851"/>
      <point x="164" y="784" type="curve" smooth="yes"/>
      <point x="146" y="764"/>
      <point x="146" y="750"/>
      <point x="164" y="733" type="curve" smooth="yes"/>
      <point x="180" y="716"/>
      <point x="194" y="715"/>
      <point x="214" y="733" type="curve" smooth="yes"/>
      <point x="271" y="785"/>
      <point x="311" y="808"/>
      <point x="345" y="808" type="curve" smooth="yes"/>
      <point x="381" y="808"/>
      <point x="394" y="786"/>
      <point x="375" y="729" type="curve" smooth="yes"/>
      <point x="143" y="15" type="line" smooth="yes"/>
      <point x="136" y="-6"/>
      <point x="151" y="-15"/>
      <point x="181" y="-15" type="curve" smooth="yes"/>
      <point x="211" y="-15"/>
      <point x="226" y="-6"/>
      <point x="233" y="13" type="curve" smooth="yes"/>
      <point x="431" y="625" type="line"/>
      <point x="494" y="739"/>
      <point x="581" y="803"/>
      <point x="675" y="803" type="curve" smooth="yes"/>
      <point x="756" y="803"/>
      <point x="783" y="748"/>
      <point x="743" y="625" type="curve" smooth="yes"/>
      <point x="540" y="15" type="line" smooth="yes"/>
      <point x="533" y="-6"/>
      <point x="549" y="-15"/>
      <point x="579" y="-15" type="curve" smooth="yes"/>
      <point x="609" y="-15"/>
      <point x="624" y="-6"/>
      <point x="630" y="13" type="curve" smooth="yes"/>
      <point x="835" y="633" type="line"/>
      <point x="897" y="734"/>
      <point x="991" y="803"/>
      <point x="1074" y="803" type="curve" smooth="yes"/>
      <point x="1160" y="803"/>
      <point x="1184" y="749"/>
      <point x="1145" y="636" type="curve" smooth="yes"/>
      <point x="994" y="190" type="line" smooth="yes"/>
      <point x="950" y="63"/>
      <point x="994" y="-17"/>
    </contour>
  </outline>
</glyph>
<glyph name="M.cur.ini" format="2">
  <advance width="1258"/>
  <guideline x="538" y="712" angle="262.41"/>
  <guideline x="143"/>
  <anchor x="570" y="0" name="bottom"/>
  <anchor x="1176" y="0" name="cnct"/>
  <anchor x="841" y="838" name="top"/>
  <outline>
    <contour>
      <point x="1120" y="-17" type="curve" smooth="yes"/>
      <point x="1170" y="-17"/>
      <point x="1195" y="58"/>
      <point x="1145" y="58" type="curve" smooth="yes"/>
      <point x="1071" y="58"/>
      <point x="1053" y="93"/>
      <point x="1081" y="180" type="curve" smooth="yes"/>
      <point x="1234" y="633" type="line" smooth="yes"/>
      <point x="1289" y="796"/>
      <point x="1231" y="890"/>
      <point x="1089" y="890" type="curve" smooth="yes"/>
      <point x="976" y="890"/>
      <point x="854" y="795"/>
      <point x="796" y="663" type="curve"/>
      <point x="803" y="571" type="line"/>
      <point x="860" y="705"/>
      <point x="975" y="803"/>
      <point x="1074" y="803" type="curve" smooth="yes"/>
      <point x="1160" y="803"/>
      <point x="1184" y="749"/>
      <point x="1145" y="636" type="curve" smooth="yes"/>
      <point x="998" y="201" type="line" smooth="yes"/>
      <point x="949" y="59"/>
      <point x="993" y="-17"/>
    </contour>
    <contour>
      <point x="181" y="-15" type="curve" smooth="yes"/>
      <point x="211" y="-15"/>
      <point x="226" y="-6"/>
      <point x="233" y="13" type="curve" smooth="yes"/>
      <point x="460" y="714" type="line" smooth="yes"/>
      <point x="496" y="825"/>
      <point x="459" y="893"/>
      <point x="361" y="893" type="curve" smooth="yes"/>
      <point x="294" y="893"/>
      <point x="221" y="851"/>
      <point x="164" y="784" type="curve" smooth="yes"/>
      <point x="146" y="764"/>
      <point x="146" y="750"/>
      <point x="164" y="733" type="curve" smooth="yes"/>
      <point x="180" y="716"/>
      <point x="194" y="715"/>
      <point x="214" y="733" type="curve" smooth="yes"/>
      <point x="271" y="785"/>
      <point x="311" y="808"/>
      <point x="345" y="808" type="curve" smooth="yes"/>
      <point x="381" y="808"/>
      <point x="394" y="786"/>
      <point x="375" y="729" type="curve" smooth="yes"/>
      <point x="143" y="15" type="line" smooth="yes"/>
      <point x="136" y="-6"/>
      <point x="151" y="-15"/>
    </contour>
    <contour>
      <point x="579" y="-15" type="curve" smooth="yes"/>
      <point x="609" y="-15"/>
      <point x="624" y="-6"/>
      <point x="630" y="13" type="curve" smooth="yes"/>
      <point x="835" y="633" type="line" smooth="yes"/>
      <point x="889" y="796"/>
      <point x="833" y="890"/>
      <point x="686" y="890" type="curve" smooth="yes"/>
      <point x="573" y="890"/>
      <point x="458" y="798"/>
      <point x="395" y="655" type="curve"/>
      <point x="400" y="560" type="line"/>
      <point x="464" y="714"/>
      <point x="564" y="803"/>
      <point x="675" y="803" type="curve" smooth="yes"/>
      <point x="756" y="803"/>
      <point x="783" y="748"/>
      <point x="743" y="625" type="curve" smooth="yes"/>
      <point x="540" y="15" type="line" smooth="yes"/>
      <point x="533" y="-6"/>
      <point x="549" y="-15"/>
    </contour>
  </outline>
</glyph>
<glyph name="M_locl.au" format="2">
  <advance width="1050"/>
  <guideline x="322" y="-121" angle="72"/>
  <guideline x="565" y="-121" angle="72"/>
  <guideline x="67" y="-121" angle="72"/>
  <anchor x="454" y="0" name="bottom"/>
  <anchor x="703" y="838" name="top"/>
  <outline>
    <contour>
      <point x="90" y="-14" type="curve" smooth="yes"/>
      <point x="120" y="-14"/>
      <point x="134" y="-5"/>
      <point x="140" y="14" type="curve" smooth="yes"/>
      <point x="360" y="693" type="line"/>
      <point x="412" y="28" type="line" smooth="yes"/>
      <point x="413" y="5"/>
      <point x="433" y="0"/>
      <point x="459" y="0" type="curve" smooth="yes"/>
      <point x="484" y="0"/>
      <point x="498" y="5"/>
      <point x="510" y="24" type="curve" smooth="yes"/>
      <point x="980" y="693" type="line"/>
      <point x="762" y="16" type="line" smooth="yes"/>
      <point x="754" y="-5"/>
      <point x="769" y="-14"/>
      <point x="799" y="-14" type="curve" smooth="yes"/>
      <point x="829" y="-14"/>
      <point x="842" y="-5"/>
      <point x="848" y="14" type="curve" smooth="yes"/>
      <point x="1113" y="858" type="line" smooth="yes"/>
      <point x="1119" y="879"/>
      <point x="1103" y="890"/>
      <point x="1070" y="890" type="curve" smooth="yes"/>
      <point x="1037" y="890"/>
      <point x="1019" y="880"/>
      <point x="1005" y="860" type="curve" smooth="yes"/>
      <point x="484" y="123" type="line"/>
      <point x="424" y="860" type="line" smooth="yes"/>
      <point x="423" y="876"/>
      <point x="409" y="890"/>
      <point x="380" y="890" type="curve" smooth="yes"/>
      <point x="348" y="890"/>
      <point x="329" y="879"/>
      <point x="323" y="860" type="curve" smooth="yes"/>
      <point x="54" y="16" type="line" smooth="yes"/>
      <point x="48" y="-5"/>
      <point x="60" y="-14"/>
    </contour>
  </outline>
</glyph>
<glyph name="N.cur" format="2">
  <advance width="965"/>
  <anchor x="401" y="0" name="bottom"/>
  <anchor x="668" y="838" name="top"/>
  <outline>
    <contour>
      <point x="751" y="-17" type="curve" smooth="yes"/>
      <point x="805" y="-17"/>
      <point x="859" y="16"/>
      <point x="901" y="96" type="curve"/>
      <point x="910" y="119"/>
      <point x="905" y="134"/>
      <point x="885" y="143" type="curve" smooth="yes"/>
      <point x="860" y="154"/>
      <point x="848" y="146"/>
      <point x="831" y="124" type="curve" smooth="yes"/>
      <point x="804" y="84"/>
      <point x="784" y="68"/>
      <point x="758" y="68" type="curve" smooth="yes"/>
      <point x="725" y="68"/>
      <point x="719" y="105"/>
      <point x="740" y="169" type="curve" smooth="yes"/>
      <point x="893" y="621" type="line" smooth="yes"/>
      <point x="951" y="796"/>
      <point x="890" y="890"/>
      <point x="739" y="890" type="curve" smooth="yes"/>
      <point x="645" y="890"/>
      <point x="545" y="836"/>
      <point x="470" y="754" type="curve"/>
      <point x="471" y="759" type="line" smooth="yes"/>
      <point x="484" y="825"/>
      <point x="458" y="893"/>
      <point x="361" y="893" type="curve" smooth="yes"/>
      <point x="294" y="893"/>
      <point x="221" y="851"/>
      <point x="164" y="784" type="curve" smooth="yes"/>
      <point x="146" y="764"/>
      <point x="146" y="750"/>
      <point x="164" y="733" type="curve" smooth="yes"/>
      <point x="180" y="716"/>
      <point x="194" y="715"/>
      <point x="214" y="733" type="curve" smooth="yes"/>
      <point x="271" y="785"/>
      <point x="311" y="808"/>
      <point x="345" y="808" type="curve" smooth="yes"/>
      <point x="381" y="808"/>
      <point x="394" y="786"/>
      <point x="375" y="729" type="curve" smooth="yes"/>
      <point x="143" y="15" type="line" smooth="yes"/>
      <point x="136" y="-6"/>
      <point x="151" y="-15"/>
      <point x="181" y="-15" type="curve" smooth="yes"/>
      <point x="211" y="-15"/>
      <point x="226" y="-6"/>
      <point x="233" y="13" type="curve" smooth="yes"/>
      <point x="422" y="597" type="line"/>
      <point x="493" y="718"/>
      <point x="613" y="803"/>
      <point x="720" y="803" type="curve" smooth="yes"/>
      <point x="815" y="803"/>
      <point x="845" y="745"/>
      <point x="804" y="625" type="curve" smooth="yes"/>
      <point x="656" y="190" type="line" smooth="yes"/>
      <point x="614" y="65"/>
      <point x="648" y="-17"/>
    </contour>
  </outline>
</glyph>
<glyph name="O.cur" format="2">
  <advance width="929"/>
  <anchor x="381" y="0" name="bottom"/>
  <anchor x="524" y="438" name="center"/>
  <anchor x="755" y="13" name="ogonek"/>
  <anchor x="630" y="838" name="top"/>
  <anchor x="739" y="875" name="topright"/>
  <outline>
    <contour>
      <point x="415" y="-19" type="curve" smooth="yes"/>
      <point x="699" y="-19"/>
      <point x="946" y="273"/>
      <point x="946" y="599" type="curve" smooth="yes"/>
      <point x="946" y="790"/>
      <point x="870" y="890"/>
      <point x="721" y="890" type="curve" smooth="yes"/>
      <point x="613" y="890"/>
      <point x="518" y="834"/>
      <point x="439" y="715" type="curve" smooth="yes"/>
      <point x="425" y="694"/>
      <point x="421" y="670"/>
      <point x="443" y="658" type="curve" smooth="yes"/>
      <point x="466" y="644"/>
      <point x="486" y="648"/>
      <point x="503" y="671" type="curve" smooth="yes"/>
      <point x="559" y="755"/>
      <point x="614" y="808"/>
      <point x="693" y="808" type="curve" smooth="yes"/>
      <point x="793" y="808"/>
      <point x="854" y="756"/>
      <point x="854" y="599" type="curve" smooth="yes"/>
      <point x="854" y="335"/>
      <point x="653" y="66"/>
      <point x="428" y="66" type="curve" smooth="yes"/>
      <point x="271" y="66"/>
      <point x="200" y="165"/>
      <point x="200" y="313" type="curve" smooth="yes"/>
      <point x="200" y="474"/>
      <point x="278" y="669"/>
      <point x="421" y="766" type="curve" smooth="yes"/>
      <point x="455" y="789"/>
      <point x="458" y="804"/>
      <point x="441" y="829" type="curve" smooth="yes"/>
      <point x="429" y="848"/>
      <point x="416" y="855"/>
      <point x="376" y="831" type="curve" smooth="yes"/>
      <point x="210" y="730"/>
      <point x="108" y="500"/>
      <point x="108" y="309" type="curve" smooth="yes"/>
      <point x="108" y="114"/>
      <point x="211" y="-19"/>
    </contour>
  </outline>
</glyph>
<glyph name="OE.cur.ini" format="2">
  <advance width="1318"/>
  <anchor x="1237" y="0" name="cnct"/>
  <anchor x="871" y="838" name="top"/>
  <outline>
    <contour>
      <point x="349" y="-19" type="curve" smooth="yes"/>
      <point x="666" y="-19"/>
      <point x="884" y="400"/>
      <point x="884" y="645" type="curve" smooth="yes"/>
      <point x="884" y="794"/>
      <point x="823" y="890"/>
      <point x="693" y="890" type="curve" smooth="yes"/>
      <point x="596" y="890"/>
      <point x="498" y="844"/>
      <point x="406" y="715" type="curve" smooth="yes"/>
      <point x="391" y="694"/>
      <point x="389" y="670"/>
      <point x="410" y="658" type="curve" smooth="yes"/>
      <point x="434" y="644"/>
      <point x="454" y="648"/>
      <point x="470" y="671" type="curve" smooth="yes"/>
      <point x="539" y="770"/>
      <point x="606" y="808"/>
      <point x="670" y="808" type="curve" smooth="yes"/>
      <point x="750" y="808"/>
      <point x="791" y="759"/>
      <point x="791" y="640" type="curve" smooth="yes"/>
      <point x="791" y="426"/>
      <point x="593" y="66"/>
      <point x="361" y="66" type="curve" smooth="yes"/>
      <point x="220" y="66"/>
      <point x="190" y="189"/>
      <point x="190" y="284" type="curve" smooth="yes"/>
      <point x="190" y="459"/>
      <point x="290" y="665"/>
      <point x="395" y="766" type="curve" smooth="yes"/>
      <point x="425" y="796"/>
      <point x="429" y="811"/>
      <point x="411" y="833" type="curve" smooth="yes"/>
      <point x="396" y="850"/>
      <point x="381" y="859"/>
      <point x="343" y="825" type="curve" smooth="yes"/>
      <point x="219" y="715"/>
      <point x="98" y="485"/>
      <point x="98" y="280" type="curve" smooth="yes"/>
      <point x="98" y="138"/>
      <point x="165" y="-19"/>
    </contour>
    <contour>
      <point x="971" y="-17" type="curve" smooth="yes"/>
      <point x="1011" y="-17"/>
      <point x="1021" y="60"/>
      <point x="981" y="60" type="curve" smooth="yes"/>
      <point x="858" y="60"/>
      <point x="804" y="129"/>
      <point x="804" y="220" type="curve" smooth="yes"/>
      <point x="804" y="375"/>
      <point x="984" y="419"/>
      <point x="1133" y="419" type="curve" smooth="yes"/>
      <point x="1184" y="419" type="line" smooth="yes"/>
      <point x="1204" y="419"/>
      <point x="1215" y="430"/>
      <point x="1224" y="459" type="curve" smooth="yes"/>
      <point x="1233" y="489"/>
      <point x="1230" y="499"/>
      <point x="1208" y="499" type="curve" smooth="yes"/>
      <point x="1150" y="499" type="line" smooth="yes"/>
      <point x="1039" y="499"/>
      <point x="996" y="570"/>
      <point x="996" y="643" type="curve" smooth="yes"/>
      <point x="996" y="718"/>
      <point x="1048" y="803"/>
      <point x="1163" y="803" type="curve" smooth="yes"/>
      <point x="1226" y="803"/>
      <point x="1278" y="780"/>
      <point x="1324" y="744" type="curve" smooth="yes"/>
      <point x="1349" y="724"/>
      <point x="1363" y="720"/>
      <point x="1381" y="738" type="curve" smooth="yes"/>
      <point x="1398" y="751"/>
      <point x="1405" y="766"/>
      <point x="1388" y="789" type="curve" smooth="yes"/>
      <point x="1336" y="855"/>
      <point x="1256" y="890"/>
      <point x="1175" y="890" type="curve" smooth="yes"/>
      <point x="1010" y="890"/>
      <point x="905" y="780"/>
      <point x="905" y="640" type="curve" smooth="yes"/>
      <point x="905" y="559"/>
      <point x="965" y="491"/>
      <point x="1029" y="474" type="curve"/>
      <point x="858" y="460"/>
      <point x="710" y="383"/>
      <point x="710" y="210" type="curve" smooth="yes"/>
      <point x="710" y="84"/>
      <point x="794" y="-17"/>
    </contour>
  </outline>
</glyph>
<glyph name="Q.cur_locl" format="2">
  <advance width="954"/>
  <anchor x="381" y="0" name="bottom"/>
  <anchor x="524" y="438" name="center"/>
  <anchor x="755" y="13" name="ogonek"/>
  <anchor x="630" y="838" name="top"/>
  <anchor x="713" y="875" name="topright"/>
  <outline>
    <contour>
      <point x="713" y="-100" type="curve" smooth="yes"/>
      <point x="771" y="-100"/>
      <point x="836" y="-67"/>
      <point x="896" y="23" type="curve" smooth="yes"/>
      <point x="910" y="43"/>
      <point x="904" y="58"/>
      <point x="888" y="69" type="curve" smooth="yes"/>
      <point x="864" y="85"/>
      <point x="846" y="83"/>
      <point x="835" y="68" type="curve" smooth="yes"/>
      <point x="788" y="9"/>
      <point x="760" y="-17"/>
      <point x="721" y="-17" type="curve" smooth="yes"/>
      <point x="610" y="-17"/>
      <point x="589" y="284"/>
      <point x="426" y="284" type="curve" smooth="yes"/>
      <point x="374" y="284"/>
      <point x="371" y="200"/>
      <point x="424" y="200" type="curve" smooth="yes"/>
      <point x="521" y="200"/>
      <point x="545" y="-100"/>
    </contour>
    <component base="O"/>
  </outline>
</glyph>
<glyph name="Q.cur_locl.ini" format="2">
  <advance width="941"/>
  <anchor x="860" y="0" name="cnct"/>
  <anchor x="381" y="0" name="bottom"/>
  <anchor x="524" y="438" name="center"/>
  <anchor x="755" y="13" name="ogonek"/>
  <anchor x="630" y="838" name="top"/>
  <anchor x="713" y="875" name="topright"/>
  <outline>
    <contour>
      <point x="808" y="-17" type="curve" smooth="yes"/>
      <point x="858" y="-17"/>
      <point x="883" y="58"/>
      <point x="833" y="58" type="curve" smooth="yes"/>
      <point x="665" y="58"/>
      <point x="596" y="284"/>
      <point x="439" y="284" type="curve" smooth="yes"/>
      <point x="386" y="284"/>
      <point x="384" y="200"/>
      <point x="436" y="200" type="curve" smooth="yes"/>
      <point x="556" y="200"/>
      <point x="618" y="-17"/>
    </contour>
    <component base="O"/>
  </outline>
</glyph>
<glyph name="Q.dec.ini" format="2">
  <advance width="960"/>
  <anchor x="879" y="0" name="cnct"/>
  <outline>
    <contour>
      <point x="390" y="-17" type="curve" smooth="yes"/>
      <point x="491" y="-17"/>
      <point x="588" y="18"/>
      <point x="670" y="75" type="curve"/>
      <point x="710" y="24"/>
      <point x="755" y="-17"/>
      <point x="824" y="-17" type="curve" smooth="yes"/>
      <point x="874" y="-17"/>
      <point x="899" y="58"/>
      <point x="849" y="58" type="curve" smooth="yes"/>
      <point x="803" y="58"/>
      <point x="769" y="86"/>
      <point x="735" y="125" type="curve"/>
      <point x="861" y="239"/>
      <point x="944" y="400"/>
      <point x="944" y="546" type="curve" smooth="yes"/>
      <point x="944" y="689"/>
      <point x="855" y="791"/>
      <point x="731" y="791" type="curve" smooth="yes"/>
      <point x="591" y="791"/>
      <point x="485" y="684"/>
      <point x="428" y="533" type="curve" smooth="yes"/>
      <point x="404" y="470"/>
      <point x="389" y="400"/>
      <point x="383" y="326" type="curve"/>
      <point x="358" y="311"/>
      <point x="344" y="286"/>
      <point x="344" y="263" type="curve" smooth="yes"/>
      <point x="344" y="236"/>
      <point x="361" y="213"/>
      <point x="400" y="213" type="curve" smooth="yes"/>
      <point x="435" y="213"/>
      <point x="453" y="236"/>
      <point x="460" y="264" type="curve"/>
      <point x="534" y="254"/>
      <point x="579" y="200"/>
      <point x="620" y="144" type="curve"/>
      <point x="553" y="96"/>
      <point x="475" y="68"/>
      <point x="395" y="68" type="curve" smooth="yes"/>
      <point x="271" y="68"/>
      <point x="200" y="140"/>
      <point x="200" y="266" type="curve" smooth="yes"/>
      <point x="200" y="478"/>
      <point x="350" y="749"/>
      <point x="621" y="818" type="curve" smooth="yes"/>
      <point x="645" y="825"/>
      <point x="650" y="839"/>
      <point x="643" y="869" type="curve" smooth="yes"/>
      <point x="636" y="891"/>
      <point x="625" y="896"/>
      <point x="598" y="890" type="curve" smooth="yes"/>
      <point x="288" y="810"/>
      <point x="109" y="511"/>
      <point x="109" y="263" type="curve" smooth="yes"/>
      <point x="109" y="85"/>
      <point x="219" y="-17"/>
    </contour>
    <contour>
      <point x="726" y="706" type="curve" smooth="yes"/>
      <point x="805" y="706"/>
      <point x="853" y="644"/>
      <point x="853" y="543" type="curve" smooth="yes"/>
      <point x="853" y="423"/>
      <point x="785" y="289"/>
      <point x="683" y="194" type="curve"/>
      <point x="633" y="258"/>
      <point x="571" y="324"/>
      <point x="468" y="336" type="curve"/>
      <point x="474" y="393"/>
      <point x="488" y="451"/>
      <point x="509" y="505" type="curve" smooth="yes"/>
      <point x="553" y="618"/>
      <point x="628" y="706"/>
    </contour>
  </outline>
</glyph>
<glyph name="Q.dec_pt" format="2">
  <advance width="869"/>
  <outline>
    <contour>
      <point x="690" y="420" type="curve" smooth="yes"/>
      <point x="793" y="720" type="line" smooth="yes"/>
      <point x="799" y="738"/>
      <point x="784" y="748"/>
      <point x="755" y="748" type="curve" smooth="yes"/>
      <point x="726" y="748"/>
      <point x="711" y="739"/>
      <point x="705" y="720" type="curve"/>
      <point x="616" y="535"/>
      <point x="496" y="459"/>
      <point x="401" y="459" type="curve" smooth="yes"/>
      <point x="338" y="459"/>
      <point x="316" y="504"/>
      <point x="316" y="554" type="curve" smooth="yes"/>
      <point x="316" y="653"/>
      <point x="396" y="806"/>
      <point x="491" y="806" type="curve" smooth="yes"/>
      <point x="515" y="806"/>
      <point x="534" y="794"/>
      <point x="534" y="766" type="curve" smooth="yes"/>
      <point x="534" y="705"/>
      <point x="464" y="670"/>
      <point x="390" y="670" type="curve" smooth="yes"/>
      <point x="324" y="670"/>
      <point x="256" y="689"/>
      <point x="213" y="705" type="curve" smooth="yes"/>
      <point x="194" y="713"/>
      <point x="175" y="711"/>
      <point x="163" y="688" type="curve" smooth="yes"/>
      <point x="150" y="664"/>
      <point x="159" y="650"/>
      <point x="180" y="638" type="curve" smooth="yes"/>
      <point x="224" y="613"/>
      <point x="289" y="590"/>
      <point x="386" y="590" type="curve" smooth="yes"/>
      <point x="505" y="590"/>
      <point x="625" y="665"/>
      <point x="625" y="774" type="curve" smooth="yes"/>
      <point x="625" y="854"/>
      <point x="571" y="890"/>
      <point x="503" y="890" type="curve" smooth="yes"/>
      <point x="345" y="890"/>
      <point x="225" y="694"/>
      <point x="225" y="545" type="curve" smooth="yes"/>
      <point x="225" y="453"/>
      <point x="281" y="371"/>
      <point x="386" y="371" type="curve" smooth="yes"/>
      <point x="470" y="371"/>
      <point x="553" y="413"/>
      <point x="629" y="499" type="curve"/>
      <point x="603" y="420" type="line" smooth="yes"/>
      <point x="525" y="195"/>
      <point x="401" y="54"/>
      <point x="301" y="54" type="curve" smooth="yes"/>
      <point x="268" y="54"/>
      <point x="249" y="69"/>
      <point x="249" y="89" type="curve" smooth="yes"/>
      <point x="249" y="105"/>
      <point x="256" y="121"/>
      <point x="280" y="121" type="curve" smooth="yes"/>
      <point x="358" y="121"/>
      <point x="425" y="-11"/>
      <point x="555" y="-11" type="curve" smooth="yes"/>
      <point x="649" y="-11"/>
      <point x="730" y="36"/>
      <point x="796" y="124" type="curve" smooth="yes"/>
      <point x="813" y="145"/>
      <point x="814" y="159"/>
      <point x="795" y="175" type="curve" smooth="yes"/>
      <point x="779" y="189"/>
      <point x="765" y="191"/>
      <point x="744" y="170" type="curve" smooth="yes"/>
      <point x="675" y="104"/>
      <point x="623" y="73"/>
      <point x="568" y="73" type="curve" smooth="yes"/>
      <point x="460" y="73"/>
      <point x="404" y="199"/>
      <point x="288" y="199" type="curve" smooth="yes"/>
      <point x="205" y="199"/>
      <point x="164" y="146"/>
      <point x="164" y="84" type="curve" smooth="yes"/>
      <point x="164" y="25"/>
      <point x="216" y="-21"/>
      <point x="289" y="-21" type="curve" smooth="yes"/>
      <point x="450" y="-21"/>
      <point x="596" y="146"/>
    </contour>
  </outline>
</glyph>
<glyph name="R.cur" format="2">
  <advance width="933"/>
  <anchor x="421" y="0" name="bottom"/>
  <anchor x="655" y="838" name="top"/>
  <outline>
    <contour>
      <point x="731" y="-19" type="curve" smooth="yes"/>
      <point x="805" y="-19"/>
      <point x="873" y="33"/>
      <point x="910" y="93" type="curve" smooth="yes"/>
      <point x="925" y="116"/>
      <point x="921" y="129"/>
      <point x="908" y="144" type="curve" smooth="yes"/>
      <point x="889" y="161"/>
      <point x="871" y="165"/>
      <point x="854" y="144" type="curve" smooth="yes"/>
      <point x="806" y="88"/>
      <point x="776" y="61"/>
      <point x="739" y="61" type="curve" smooth="yes"/>
      <point x="701" y="61"/>
      <point x="665" y="90"/>
      <point x="626" y="215" type="curve" smooth="yes"/>
      <point x="609" y="270"/>
      <point x="593" y="325"/>
      <point x="581" y="380" type="curve"/>
      <point x="764" y="415"/>
      <point x="918" y="510"/>
      <point x="918" y="679" type="curve" smooth="yes"/>
      <point x="918" y="798"/>
      <point x="825" y="890"/>
      <point x="601" y="890" type="curve" smooth="yes"/>
      <point x="435" y="890"/>
      <point x="295" y="838"/>
      <point x="208" y="755" type="curve" smooth="yes"/>
      <point x="191" y="739"/>
      <point x="189" y="723"/>
      <point x="200" y="706" type="curve" smooth="yes"/>
      <point x="211" y="690"/>
      <point x="233" y="673"/>
      <point x="255" y="693" type="curve" smooth="yes"/>
      <point x="336" y="765"/>
      <point x="458" y="810"/>
      <point x="598" y="810" type="curve" smooth="yes"/>
      <point x="738" y="810"/>
      <point x="826" y="769"/>
      <point x="826" y="679" type="curve" smooth="yes"/>
      <point x="826" y="553"/>
      <point x="705" y="479"/>
      <point x="568" y="453" type="curve"/>
      <point x="551" y="470"/>
      <point x="533" y="485"/>
      <point x="504" y="485" type="curve" smooth="yes"/>
      <point x="463" y="485"/>
      <point x="445" y="459"/>
      <point x="445" y="430" type="curve" smooth="yes"/>
      <point x="445" y="403"/>
      <point x="466" y="379"/>
      <point x="499" y="374" type="curve"/>
      <point x="514" y="301"/>
      <point x="534" y="228"/>
      <point x="556" y="155" type="curve" smooth="yes"/>
      <point x="598" y="24"/>
      <point x="660" y="-19"/>
    </contour>
    <contour>
      <point x="113" y="-17" type="curve" smooth="yes"/>
      <point x="218" y="-17"/>
      <point x="271" y="60"/>
      <point x="318" y="203" type="curve" smooth="yes"/>
      <point x="476" y="696" type="line" smooth="yes"/>
      <point x="484" y="718"/>
      <point x="468" y="726"/>
      <point x="438" y="726" type="curve" smooth="yes"/>
      <point x="408" y="726"/>
      <point x="393" y="718"/>
      <point x="386" y="699" type="curve" smooth="yes"/>
      <point x="224" y="191" type="line" smooth="yes"/>
      <point x="194" y="96"/>
      <point x="168" y="68"/>
      <point x="123" y="68" type="curve" smooth="yes"/>
      <point x="90" y="68"/>
      <point x="60" y="84"/>
      <point x="36" y="111" type="curve" smooth="yes"/>
      <point x="18" y="134"/>
      <point x="8" y="139"/>
      <point x="-15" y="129" type="curve" smooth="yes"/>
      <point x="-35" y="120"/>
      <point x="-41" y="105"/>
      <point x="-32" y="81" type="curve" smooth="yes"/>
      <point x="-15" y="33"/>
      <point x="45" y="-17"/>
    </contour>
  </outline>
</glyph>
<glyph name="R.dec" format="2">
  <advance width="930"/>
  <anchor x="421" y="0" name="bottom"/>
  <anchor x="655" y="838" name="top"/>
  <outline>
    <contour>
      <point x="735" y="-19" type="curve" smooth="yes"/>
      <point x="793" y="-19"/>
      <point x="848" y="24"/>
      <point x="879" y="74" type="curve" smooth="yes"/>
      <point x="891" y="93"/>
      <point x="886" y="108"/>
      <point x="859" y="124" type="curve" smooth="yes"/>
      <point x="840" y="135"/>
      <point x="826" y="128"/>
      <point x="816" y="115" type="curve" smooth="yes"/>
      <point x="796" y="88"/>
      <point x="778" y="64"/>
      <point x="743" y="64" type="curve" smooth="yes"/>
      <point x="711" y="64"/>
      <point x="679" y="81"/>
      <point x="628" y="230" type="curve" smooth="yes"/>
      <point x="606" y="291"/>
      <point x="593" y="329"/>
      <point x="579" y="379" type="curve"/>
      <point x="796" y="414"/>
      <point x="926" y="541"/>
      <point x="926" y="696" type="curve" smooth="yes"/>
      <point x="926" y="821"/>
      <point x="845" y="890"/>
      <point x="716" y="890" type="curve" smooth="yes"/>
      <point x="624" y="890"/>
      <point x="539" y="853"/>
      <point x="465" y="773" type="curve"/>
      <point x="494" y="860" type="line" smooth="yes"/>
      <point x="500" y="881"/>
      <point x="485" y="890"/>
      <point x="456" y="890" type="curve" smooth="yes"/>
      <point x="425" y="890"/>
      <point x="414" y="884"/>
      <point x="404" y="863" type="curve" smooth="yes"/>
      <point x="359" y="768"/>
      <point x="300" y="715"/>
      <point x="176" y="666" type="curve" smooth="yes"/>
      <point x="148" y="655"/>
      <point x="140" y="638"/>
      <point x="148" y="614" type="curve" smooth="yes"/>
      <point x="156" y="586"/>
      <point x="174" y="573"/>
      <point x="203" y="585" type="curve" smooth="yes"/>
      <point x="256" y="608"/>
      <point x="304" y="634"/>
      <point x="344" y="670" type="curve"/>
      <point x="131" y="16" type="line" smooth="yes"/>
      <point x="125" y="-5"/>
      <point x="140" y="-14"/>
      <point x="170" y="-14" type="curve" smooth="yes"/>
      <point x="200" y="-14"/>
      <point x="215" y="-5"/>
      <point x="221" y="14" type="curve" smooth="yes"/>
      <point x="391" y="541" type="line"/>
      <point x="465" y="729"/>
      <point x="573" y="806"/>
      <point x="698" y="806" type="curve" smooth="yes"/>
      <point x="781" y="806"/>
      <point x="836" y="769"/>
      <point x="836" y="694" type="curve" smooth="yes"/>
      <point x="836" y="570"/>
      <point x="724" y="469"/>
      <point x="553" y="445" type="curve"/>
      <point x="536" y="464"/>
      <point x="513" y="474"/>
      <point x="485" y="474" type="curve" smooth="yes"/>
      <point x="448" y="474"/>
      <point x="421" y="454"/>
      <point x="421" y="425" type="curve" smooth="yes"/>
      <point x="421" y="391"/>
      <point x="450" y="371"/>
      <point x="493" y="369" type="curve"/>
      <point x="511" y="309"/>
      <point x="524" y="273"/>
      <point x="548" y="205" type="curve" smooth="yes"/>
      <point x="600" y="59"/>
      <point x="644" y="-19"/>
    </contour>
  </outline>
</glyph>
<glyph name="S.cur" format="2">
  <advance width="893"/>
  <anchor x="536" y="0" name="bottom"/>
  <anchor x="560" y="875" name="top"/>
  <outline>
    <contour>
      <point x="540" y="-19" type="curve" smooth="yes"/>
      <point x="745" y="-19"/>
      <point x="853" y="100"/>
      <point x="853" y="265" type="curve" smooth="yes"/>
      <point x="853" y="411"/>
      <point x="691" y="565"/>
      <point x="633" y="640" type="curve"/>
      <point x="694" y="738"/>
      <point x="720" y="792"/>
      <point x="720" y="845" type="curve" smooth="yes"/>
      <point x="720" y="911"/>
      <point x="671" y="956"/>
      <point x="606" y="956" type="curve" smooth="yes"/>
      <point x="525" y="956"/>
      <point x="471" y="895"/>
      <point x="471" y="809" type="curve" smooth="yes"/>
      <point x="471" y="746"/>
      <point x="496" y="689"/>
      <point x="533" y="635" type="curve"/>
      <point x="258" y="189"/>
      <point x="154" y="68"/>
      <point x="-6" y="68" type="curve" smooth="yes"/>
      <point x="-31" y="68"/>
      <point x="-45" y="58"/>
      <point x="-52" y="35" type="curve" smooth="yes"/>
      <point x="-62" y="1"/>
      <point x="-56" y="-12"/>
      <point x="-29" y="-12" type="curve" smooth="yes"/>
      <point x="179" y="-12"/>
      <point x="296" y="93"/>
      <point x="585" y="565" type="curve"/>
      <point x="705" y="428"/>
      <point x="764" y="362"/>
      <point x="764" y="260" type="curve" smooth="yes"/>
      <point x="764" y="151"/>
      <point x="693" y="68"/>
      <point x="540" y="68" type="curve" smooth="yes"/>
      <point x="474" y="68"/>
      <point x="416" y="81"/>
      <point x="380" y="103" type="curve" smooth="yes"/>
      <point x="359" y="115"/>
      <point x="345" y="115"/>
      <point x="331" y="99" type="curve" smooth="yes"/>
      <point x="315" y="79"/>
      <point x="313" y="59"/>
      <point x="331" y="43" type="curve" smooth="yes"/>
      <point x="370" y="9"/>
      <point x="458" y="-19"/>
    </contour>
    <contour>
      <point x="585" y="712" type="curve"/>
      <point x="567" y="745"/>
      <point x="554" y="779"/>
      <point x="554" y="813" type="curve" smooth="yes"/>
      <point x="554" y="859"/>
      <point x="573" y="881"/>
      <point x="603" y="881" type="curve" smooth="yes"/>
      <point x="623" y="881"/>
      <point x="638" y="866"/>
      <point x="638" y="843" type="curve" smooth="yes"/>
      <point x="638" y="814"/>
      <point x="626" y="779"/>
    </contour>
  </outline>
</glyph>
<glyph name="S.dec" format="2">
  <advance width="849"/>
  <anchor x="246" y="0" name="bottom"/>
  <anchor x="778" y="875" name="top"/>
  <outline>
    <contour>
      <point x="250" y="-19" type="curve" smooth="yes"/>
      <point x="351" y="-19"/>
      <point x="423" y="41"/>
      <point x="460" y="159" type="curve" smooth="yes"/>
      <point x="608" y="614" type="line" smooth="yes"/>
      <point x="646" y="734"/>
      <point x="698" y="808"/>
      <point x="785" y="808" type="curve" smooth="yes"/>
      <point x="841" y="808"/>
      <point x="878" y="783"/>
      <point x="878" y="729" type="curve" smooth="yes"/>
      <point x="878" y="605"/>
      <point x="728" y="510"/>
      <point x="545" y="510" type="curve" smooth="yes"/>
      <point x="396" y="510"/>
      <point x="271" y="556"/>
      <point x="200" y="606" type="curve" smooth="yes"/>
      <point x="179" y="621"/>
      <point x="158" y="616"/>
      <point x="144" y="591" type="curve" smooth="yes"/>
      <point x="131" y="571"/>
      <point x="135" y="551"/>
      <point x="153" y="540" type="curve" smooth="yes"/>
      <point x="225" y="486"/>
      <point x="354" y="431"/>
      <point x="505" y="431" type="curve" smooth="yes"/>
      <point x="764" y="431"/>
      <point x="969" y="555"/>
      <point x="969" y="733" type="curve" smooth="yes"/>
      <point x="969" y="839"/>
      <point x="890" y="890"/>
      <point x="789" y="890" type="curve" smooth="yes"/>
      <point x="654" y="890"/>
      <point x="576" y="796"/>
      <point x="520" y="624" type="curve" smooth="yes"/>
      <point x="380" y="193" type="line" smooth="yes"/>
      <point x="351" y="104"/>
      <point x="313" y="66"/>
      <point x="259" y="66" type="curve" smooth="yes"/>
      <point x="210" y="66"/>
      <point x="178" y="85"/>
      <point x="126" y="125" type="curve" smooth="yes"/>
      <point x="111" y="138"/>
      <point x="93" y="136"/>
      <point x="76" y="121" type="curve" smooth="yes"/>
      <point x="59" y="106"/>
      <point x="56" y="88"/>
      <point x="70" y="70" type="curve" smooth="yes"/>
      <point x="115" y="14"/>
      <point x="185" y="-19"/>
    </contour>
  </outline>
</glyph>
<glyph name="T.cur" format="2">
  <advance width="721"/>
  <anchor x="371" y="0" name="bottom"/>
  <anchor x="338" y="438" name="center"/>
  <anchor x="581" y="838" name="top"/>
  <outline>
    <contour>
      <point x="393" y="-17" type="curve" smooth="yes"/>
      <point x="491" y="-17"/>
      <point x="575" y="16"/>
      <point x="629" y="78" type="curve" smooth="yes"/>
      <point x="649" y="100"/>
      <point x="649" y="115"/>
      <point x="631" y="133" type="curve" smooth="yes"/>
      <point x="613" y="151"/>
      <point x="598" y="146"/>
      <point x="570" y="124" type="curve" smooth="yes"/>
      <point x="528" y="89"/>
      <point x="471" y="68"/>
      <point x="413" y="68" type="curve" smooth="yes"/>
      <point x="328" y="68"/>
      <point x="283" y="109"/>
      <point x="283" y="185" type="curve" smooth="yes"/>
      <point x="283" y="340"/>
      <point x="385" y="521"/>
      <point x="629" y="795" type="curve"/>
      <point x="868" y="795" type="line" smooth="yes"/>
      <point x="888" y="795"/>
      <point x="898" y="806"/>
      <point x="908" y="835" type="curve" smooth="yes"/>
      <point x="918" y="865"/>
      <point x="914" y="875"/>
      <point x="894" y="875" type="curve" smooth="yes"/>
      <point x="396" y="875" type="line" smooth="yes"/>
      <point x="275" y="875"/>
      <point x="180" y="818"/>
      <point x="159" y="730" type="curve" smooth="yes"/>
      <point x="154" y="710"/>
      <point x="160" y="698"/>
      <point x="176" y="694" type="curve" smooth="yes"/>
      <point x="206" y="688"/>
      <point x="225" y="693"/>
      <point x="234" y="716" type="curve" smooth="yes"/>
      <point x="254" y="771"/>
      <point x="301" y="795"/>
      <point x="393" y="795" type="curve" smooth="yes"/>
      <point x="523" y="795" type="line"/>
      <point x="291" y="528"/>
      <point x="195" y="344"/>
      <point x="195" y="183" type="curve" smooth="yes"/>
      <point x="195" y="56"/>
      <point x="265" y="-17"/>
    </contour>
  </outline>
</glyph>
<glyph name="T.cur.ini" format="2">
  <advance width="671"/>
  <anchor x="371" y="0" name="bottom"/>
  <anchor x="338" y="438" name="center"/>
  <anchor x="590" y="0" name="cnct"/>
  <anchor x="576" y="838" name="top"/>
  <outline>
    <contour>
      <point x="418" y="-17" type="curve" smooth="yes"/>
      <point x="468" y="-17"/>
      <point x="479" y="60"/>
      <point x="429" y="60" type="curve" smooth="yes"/>
      <point x="331" y="60"/>
      <point x="289" y="103"/>
      <point x="289" y="185" type="curve" smooth="yes"/>
      <point x="289" y="340"/>
      <point x="382" y="521"/>
      <point x="619" y="795" type="curve"/>
      <point x="848" y="795" type="line" smooth="yes"/>
      <point x="868" y="795"/>
      <point x="878" y="806"/>
      <point x="888" y="835" type="curve" smooth="yes"/>
      <point x="898" y="865"/>
      <point x="894" y="875"/>
      <point x="874" y="875" type="curve" smooth="yes"/>
      <point x="396" y="875" type="line" smooth="yes"/>
      <point x="275" y="875"/>
      <point x="180" y="818"/>
      <point x="159" y="730" type="curve" smooth="yes"/>
      <point x="154" y="710"/>
      <point x="160" y="698"/>
      <point x="176" y="694" type="curve" smooth="yes"/>
      <point x="206" y="688"/>
      <point x="225" y="693"/>
      <point x="234" y="716" type="curve" smooth="yes"/>
      <point x="254" y="771"/>
      <point x="301" y="795"/>
      <point x="393" y="795" type="curve" smooth="yes"/>
      <point x="519" y="795" type="line"/>
      <point x="288" y="528"/>
      <point x="201" y="344"/>
      <point x="201" y="183" type="curve" smooth="yes"/>
      <point x="201" y="50"/>
      <point x="270" y="-17"/>
    </contour>
  </outline>
</glyph>
<glyph name="T.cur_locl" format="2">
  <advance width="941"/>
  <guideline x="182" y="559" angle="180"/>
  <anchor x="521" y="0" name="bottom"/>
  <anchor x="421" y="387" name="center"/>
  <anchor x="639" y="838" name="top"/>
  <outline>
    <contour>
      <point x="519" y="-17" type="curve" smooth="yes"/>
      <point x="645" y="-17"/>
      <point x="766" y="31"/>
      <point x="875" y="156" type="curve" smooth="yes"/>
      <point x="893" y="176"/>
      <point x="890" y="195"/>
      <point x="876" y="210" type="curve" smooth="yes"/>
      <point x="855" y="231"/>
      <point x="838" y="233"/>
      <point x="818" y="210" type="curve" smooth="yes"/>
      <point x="748" y="128"/>
      <point x="651" y="68"/>
      <point x="534" y="68" type="curve" smooth="yes"/>
      <point x="424" y="68"/>
      <point x="364" y="119"/>
      <point x="364" y="211" type="curve" smooth="yes"/>
      <point x="364" y="261"/>
      <point x="375" y="305"/>
      <point x="394" y="346" type="curve"/>
      <point x="634" y="346" type="line" smooth="yes"/>
      <point x="650" y="346"/>
      <point x="663" y="356"/>
      <point x="669" y="381" type="curve" smooth="yes"/>
      <point x="678" y="410"/>
      <point x="671" y="426"/>
      <point x="651" y="426" type="curve" smooth="yes"/>
      <point x="448" y="426" type="line"/>
      <point x="574" y="576"/>
      <point x="821" y="673"/>
      <point x="1008" y="804" type="curve" smooth="yes"/>
      <point x="1021" y="814"/>
      <point x="1023" y="834"/>
      <point x="1009" y="854" type="curve" smooth="yes"/>
      <point x="998" y="871"/>
      <point x="979" y="873"/>
      <point x="964" y="863" type="curve" smooth="yes"/>
      <point x="908" y="831"/>
      <point x="855" y="816"/>
      <point x="776" y="816" type="curve" smooth="yes"/>
      <point x="646" y="816"/>
      <point x="555" y="890"/>
      <point x="435" y="890" type="curve" smooth="yes"/>
      <point x="300" y="890"/>
      <point x="221" y="810"/>
      <point x="185" y="704" type="curve" smooth="yes"/>
      <point x="176" y="679"/>
      <point x="190" y="665"/>
      <point x="219" y="665" type="curve" smooth="yes"/>
      <point x="251" y="665"/>
      <point x="264" y="679"/>
      <point x="273" y="704" type="curve" smooth="yes"/>
      <point x="296" y="773"/>
      <point x="345" y="808"/>
      <point x="419" y="808" type="curve" smooth="yes"/>
      <point x="530" y="808"/>
      <point x="618" y="741"/>
      <point x="719" y="741" type="curve" smooth="yes"/>
      <point x="748" y="741"/>
      <point x="780" y="745"/>
      <point x="819" y="760" type="curve"/>
      <point x="629" y="664"/>
      <point x="446" y="561"/>
      <point x="348" y="426" type="curve"/>
      <point x="208" y="426" type="line" smooth="yes"/>
      <point x="191" y="426"/>
      <point x="179" y="416"/>
      <point x="173" y="391" type="curve" smooth="yes"/>
      <point x="164" y="363"/>
      <point x="170" y="346"/>
      <point x="190" y="346" type="curve" smooth="yes"/>
      <point x="301" y="346" type="line"/>
      <point x="283" y="304"/>
      <point x="273" y="258"/>
      <point x="273" y="208" type="curve" smooth="yes"/>
      <point x="273" y="68"/>
      <point x="371" y="-17"/>
    </contour>
  </outline>
</glyph>
<glyph name="T.cur_locl.ini" format="2">
  <advance width="829"/>
  <anchor x="521" y="0" name="bottom"/>
  <anchor x="421" y="387" name="center"/>
  <anchor x="748" y="0" name="cnct"/>
  <anchor x="639" y="838" name="top"/>
  <outline>
    <contour>
      <point x="575" y="-17" type="curve" smooth="yes"/>
      <point x="625" y="-17"/>
      <point x="636" y="60"/>
      <point x="586" y="60" type="curve" smooth="yes"/>
      <point x="456" y="60"/>
      <point x="385" y="126"/>
      <point x="385" y="236" type="curve" smooth="yes"/>
      <point x="385" y="276"/>
      <point x="393" y="313"/>
      <point x="407" y="346" type="curve"/>
      <point x="634" y="346" type="line" smooth="yes"/>
      <point x="650" y="346"/>
      <point x="663" y="356"/>
      <point x="669" y="381" type="curve" smooth="yes"/>
      <point x="678" y="410"/>
      <point x="671" y="426"/>
      <point x="651" y="426" type="curve" smooth="yes"/>
      <point x="454" y="426" type="line"/>
      <point x="575" y="578"/>
      <point x="820" y="671"/>
      <point x="1008" y="804" type="curve" smooth="yes"/>
      <point x="1021" y="814"/>
      <point x="1023" y="834"/>
      <point x="1009" y="854" type="curve" smooth="yes"/>
      <point x="998" y="871"/>
      <point x="979" y="873"/>
      <point x="964" y="863" type="curve" smooth="yes"/>
      <point x="908" y="831"/>
      <point x="855" y="816"/>
      <point x="776" y="816" type="curve" smooth="yes"/>
      <point x="646" y="816"/>
      <point x="555" y="890"/>
      <point x="435" y="890" type="curve" smooth="yes"/>
      <point x="300" y="890"/>
      <point x="221" y="810"/>
      <point x="185" y="704" type="curve" smooth="yes"/>
      <point x="176" y="679"/>
      <point x="190" y="665"/>
      <point x="219" y="665" type="curve" smooth="yes"/>
      <point x="251" y="665"/>
      <point x="264" y="679"/>
      <point x="273" y="704" type="curve" smooth="yes"/>
      <point x="296" y="773"/>
      <point x="345" y="808"/>
      <point x="419" y="808" type="curve" smooth="yes"/>
      <point x="530" y="808"/>
      <point x="618" y="741"/>
      <point x="719" y="741" type="curve" smooth="yes"/>
      <point x="748" y="741"/>
      <point x="778" y="745"/>
      <point x="815" y="759" type="curve"/>
      <point x="625" y="664"/>
      <point x="449" y="563"/>
      <point x="357" y="426" type="curve"/>
      <point x="208" y="426" type="line" smooth="yes"/>
      <point x="191" y="426"/>
      <point x="179" y="416"/>
      <point x="173" y="391" type="curve" smooth="yes"/>
      <point x="164" y="363"/>
      <point x="170" y="346"/>
      <point x="190" y="346" type="curve" smooth="yes"/>
      <point x="314" y="346" type="line"/>
      <point x="302" y="311"/>
      <point x="294" y="273"/>
      <point x="294" y="233" type="curve" smooth="yes"/>
      <point x="294" y="78"/>
      <point x="395" y="-17"/>
    </contour>
  </outline>
</glyph>
<glyph name="U.cur" format="2">
  <advance width="953"/>
  <anchor x="415" y="0" name="bottom"/>
  <anchor x="780" y="13" name="ogonek"/>
  <anchor x="629" y="838" name="top"/>
  <anchor x="918" y="888" name="topright"/>
  <outline>
    <contour>
      <point x="374" y="-15" type="curve" smooth="yes"/>
      <point x="467" y="-15"/>
      <point x="561" y="31"/>
      <point x="628" y="102" type="curve"/>
      <point x="628" y="98"/>
      <point x="628" y="94"/>
      <point x="628" y="90" type="curve" smooth="yes"/>
      <point x="630" y="23"/>
      <point x="667" y="-17"/>
      <point x="740" y="-17" type="curve" smooth="yes"/>
      <point x="794" y="-17"/>
      <point x="848" y="16"/>
      <point x="890" y="96" type="curve" smooth="yes"/>
      <point x="901" y="118"/>
      <point x="894" y="134"/>
      <point x="874" y="143" type="curve" smooth="yes"/>
      <point x="849" y="154"/>
      <point x="836" y="146"/>
      <point x="820" y="124" type="curve" smooth="yes"/>
      <point x="791" y="84"/>
      <point x="773" y="68"/>
      <point x="746" y="68" type="curve" smooth="yes"/>
      <point x="714" y="68"/>
      <point x="708" y="105"/>
      <point x="729" y="169" type="curve" smooth="yes"/>
      <point x="954" y="858" type="line" smooth="yes"/>
      <point x="961" y="879"/>
      <point x="945" y="888"/>
      <point x="915" y="888" type="curve" smooth="yes"/>
      <point x="885" y="888"/>
      <point x="870" y="879"/>
      <point x="864" y="860" type="curve" smooth="yes"/>
      <point x="658" y="228" type="line"/>
      <point x="596" y="133"/>
      <point x="502" y="73"/>
      <point x="404" y="73" type="curve" smooth="yes"/>
      <point x="296" y="73"/>
      <point x="270" y="128"/>
      <point x="318" y="273" type="curve" smooth="yes"/>
      <point x="460" y="714" type="line" smooth="yes"/>
      <point x="496" y="825"/>
      <point x="458" y="893"/>
      <point x="365" y="893" type="curve" smooth="yes"/>
      <point x="296" y="893"/>
      <point x="226" y="850"/>
      <point x="170" y="784" type="curve" smooth="yes"/>
      <point x="153" y="764"/>
      <point x="153" y="750"/>
      <point x="170" y="733" type="curve" smooth="yes"/>
      <point x="186" y="716"/>
      <point x="200" y="715"/>
      <point x="220" y="733" type="curve" smooth="yes"/>
      <point x="276" y="784"/>
      <point x="313" y="808"/>
      <point x="345" y="808" type="curve" smooth="yes"/>
      <point x="381" y="808"/>
      <point x="394" y="786"/>
      <point x="375" y="729" type="curve" smooth="yes"/>
      <point x="224" y="265" type="line" smooth="yes"/>
      <point x="164" y="83"/>
      <point x="219" y="-15"/>
    </contour>
  </outline>
</glyph>
<glyph name="U.cur.ini" format="2">
  <advance width="909"/>
  <guideline y="-14"/>
  <guideline x="236" y="225" angle="72.97"/>
  <guideline x="321" y="601" angle="252.97"/>
  <anchor x="395" y="0" name="bottom"/>
  <anchor x="828" y="0" name="cnct"/>
  <anchor x="780" y="13" name="ogonek"/>
  <anchor x="654" y="838" name="top"/>
  <anchor x="918" y="888" name="topright"/>
  <outline>
    <contour>
      <point x="374" y="-15" type="curve" smooth="yes"/>
      <point x="498" y="-15"/>
      <point x="623" y="66"/>
      <point x="684" y="179" type="curve"/>
      <point x="679" y="266" type="line"/>
      <point x="620" y="149"/>
      <point x="514" y="73"/>
      <point x="404" y="73" type="curve" smooth="yes"/>
      <point x="296" y="73"/>
      <point x="270" y="128"/>
      <point x="318" y="273" type="curve" smooth="yes"/>
      <point x="460" y="714" type="line" smooth="yes"/>
      <point x="496" y="825"/>
      <point x="458" y="893"/>
      <point x="365" y="893" type="curve" smooth="yes"/>
      <point x="296" y="893"/>
      <point x="226" y="850"/>
      <point x="170" y="784" type="curve" smooth="yes"/>
      <point x="153" y="764"/>
      <point x="153" y="750"/>
      <point x="170" y="733" type="curve" smooth="yes"/>
      <point x="186" y="716"/>
      <point x="200" y="715"/>
      <point x="220" y="733" type="curve" smooth="yes"/>
      <point x="276" y="784"/>
      <point x="313" y="808"/>
      <point x="345" y="808" type="curve" smooth="yes"/>
      <point x="381" y="808"/>
      <point x="394" y="786"/>
      <point x="375" y="729" type="curve" smooth="yes"/>
      <point x="224" y="265" type="line" smooth="yes"/>
      <point x="164" y="83"/>
      <point x="219" y="-15"/>
    </contour>
    <contour>
      <point x="771" y="-17" type="curve" smooth="yes"/>
      <point x="821" y="-17"/>
      <point x="846" y="58"/>
      <point x="796" y="58" type="curve" smooth="yes"/>
      <point x="724" y="58"/>
      <point x="704" y="93"/>
      <point x="736" y="191" type="curve" smooth="yes"/>
      <point x="954" y="858" type="line" smooth="yes"/>
      <point x="961" y="879"/>
      <point x="945" y="888"/>
      <point x="915" y="888" type="curve" smooth="yes"/>
      <point x="885" y="888"/>
      <point x="870" y="879"/>
      <point x="864" y="860" type="curve" smooth="yes"/>
      <point x="653" y="213" type="line" smooth="yes"/>
      <point x="603" y="59"/>
      <point x="644" y="-17"/>
    </contour>
  </outline>
</glyph>
<glyph name="W.cur" format="2">
  <advance width="1276"/>
  <anchor x="608" y="0" name="bottom"/>
  <anchor x="816" y="838" name="top"/>
  <outline>
    <contour>
      <point x="374" y="-19" type="curve" smooth="yes"/>
      <point x="500" y="-19"/>
      <point x="616" y="88"/>
      <point x="698" y="288" type="curve"/>
      <point x="700" y="288" type="line"/>
      <point x="693" y="260"/>
      <point x="679" y="204"/>
      <point x="679" y="144" type="curve" smooth="yes"/>
      <point x="679" y="68"/>
      <point x="701" y="-19"/>
      <point x="804" y="-19" type="curve" smooth="yes"/>
      <point x="1023" y="-19"/>
      <point x="1185" y="360"/>
      <point x="1245" y="556" type="curve" smooth="yes"/>
      <point x="1280" y="670"/>
      <point x="1294" y="728"/>
      <point x="1301" y="773" type="curve"/>
      <point x="1334" y="755"/>
      <point x="1384" y="745"/>
      <point x="1413" y="744" type="curve" smooth="yes"/>
      <point x="1434" y="743"/>
      <point x="1446" y="769"/>
      <point x="1446" y="789" type="curve" smooth="yes"/>
      <point x="1446" y="800"/>
      <point x="1443" y="810"/>
      <point x="1433" y="811" type="curve" smooth="yes"/>
      <point x="1370" y="820"/>
      <point x="1315" y="841"/>
      <point x="1301" y="860" type="curve"/>
      <point x="1288" y="893"/>
      <point x="1260" y="911"/>
      <point x="1228" y="911" type="curve" smooth="yes"/>
      <point x="1189" y="911"/>
      <point x="1168" y="885"/>
      <point x="1168" y="859" type="curve" smooth="yes"/>
      <point x="1168" y="834"/>
      <point x="1185" y="809"/>
      <point x="1223" y="801" type="curve"/>
      <point x="1218" y="748"/>
      <point x="1196" y="676"/>
      <point x="1159" y="560" type="curve" smooth="yes"/>
      <point x="1104" y="388"/>
      <point x="963" y="66"/>
      <point x="826" y="66" type="curve" smooth="yes"/>
      <point x="788" y="66"/>
      <point x="760" y="98"/>
      <point x="760" y="174" type="curve" smooth="yes"/>
      <point x="760" y="249"/>
      <point x="778" y="368"/>
      <point x="810" y="533" type="curve"/>
      <point x="828" y="565"/>
      <point x="840" y="600"/>
      <point x="840" y="626" type="curve" smooth="yes"/>
      <point x="840" y="655"/>
      <point x="826" y="675"/>
      <point x="793" y="675" type="curve" smooth="yes"/>
      <point x="746" y="675"/>
      <point x="725" y="623"/>
      <point x="725" y="568" type="curve" smooth="yes"/>
      <point x="725" y="561"/>
      <point x="725" y="556"/>
      <point x="724" y="534" type="curve"/>
      <point x="686" y="388"/>
      <point x="538" y="66"/>
      <point x="399" y="66" type="curve" smooth="yes"/>
      <point x="320" y="66"/>
      <point x="311" y="136"/>
      <point x="328" y="230" type="curve" smooth="yes"/>
      <point x="358" y="406"/>
      <point x="399" y="565"/>
      <point x="433" y="711" type="curve" smooth="yes"/>
      <point x="459" y="825"/>
      <point x="430" y="893"/>
      <point x="336" y="893" type="curve" smooth="yes"/>
      <point x="273" y="893"/>
      <point x="203" y="853"/>
      <point x="160" y="784" type="curve" smooth="yes"/>
      <point x="144" y="758"/>
      <point x="145" y="741"/>
      <point x="163" y="729" type="curve" smooth="yes"/>
      <point x="183" y="715"/>
      <point x="198" y="715"/>
      <point x="213" y="733" type="curve" smooth="yes"/>
      <point x="254" y="783"/>
      <point x="289" y="808"/>
      <point x="319" y="808" type="curve" smooth="yes"/>
      <point x="363" y="808"/>
      <point x="360" y="774"/>
      <point x="344" y="704" type="curve" smooth="yes"/>
      <point x="314" y="574"/>
      <point x="269" y="399"/>
      <point x="240" y="223" type="curve" smooth="yes"/>
      <point x="214" y="63"/>
      <point x="265" y="-19"/>
    </contour>
  </outline>
</glyph>
<glyph name="W.dec" format="2">
  <advance width="1410"/>
  <anchor x="696" y="0" name="bottom"/>
  <anchor x="853" y="838" name="top"/>
  <outline>
    <contour>
      <point x="430" y="-17" type="curve" smooth="yes"/>
      <point x="456" y="-17"/>
      <point x="474" y="-14"/>
      <point x="491" y="20" type="curve" smooth="yes"/>
      <point x="855" y="723" type="line"/>
      <point x="839" y="489"/>
      <point x="836" y="250"/>
      <point x="841" y="23" type="curve" smooth="yes"/>
      <point x="841" y="-9"/>
      <point x="851" y="-17"/>
      <point x="886" y="-17" type="curve" smooth="yes"/>
      <point x="913" y="-17"/>
      <point x="933" y="-12"/>
      <point x="948" y="20" type="curve" smooth="yes"/>
      <point x="1253" y="665"/>
      <point x="1388" y="810"/>
      <point x="1481" y="810" type="curve" smooth="yes"/>
      <point x="1521" y="810"/>
      <point x="1538" y="796"/>
      <point x="1553" y="788" type="curve" smooth="yes"/>
      <point x="1568" y="779"/>
      <point x="1583" y="783"/>
      <point x="1596" y="796" type="curve" smooth="yes"/>
      <point x="1609" y="809"/>
      <point x="1615" y="826"/>
      <point x="1603" y="841" type="curve" smooth="yes"/>
      <point x="1580" y="869"/>
      <point x="1533" y="890"/>
      <point x="1485" y="890" type="curve" smooth="yes"/>
      <point x="1340" y="890"/>
      <point x="1211" y="751"/>
      <point x="918" y="130" type="curve"/>
      <point x="919" y="378"/>
      <point x="924" y="631"/>
      <point x="950" y="854" type="curve" smooth="yes"/>
      <point x="954" y="881"/>
      <point x="935" y="890"/>
      <point x="901" y="890" type="curve" smooth="yes"/>
      <point x="875" y="890"/>
      <point x="854" y="885"/>
      <point x="840" y="858" type="curve" smooth="yes"/>
      <point x="475" y="148" type="line"/>
      <point x="534" y="764"/>
      <point x="466" y="890"/>
      <point x="330" y="890" type="curve" smooth="yes"/>
      <point x="225" y="890"/>
      <point x="183" y="798"/>
      <point x="183" y="704" type="curve" smooth="yes"/>
      <point x="183" y="700"/>
      <point x="183" y="693"/>
      <point x="184" y="683" type="curve" smooth="yes"/>
      <point x="186" y="663"/>
      <point x="195" y="653"/>
      <point x="224" y="654" type="curve" smooth="yes"/>
      <point x="251" y="655"/>
      <point x="263" y="665"/>
      <point x="261" y="685" type="curve" smooth="yes"/>
      <point x="261" y="689"/>
      <point x="261" y="694"/>
      <point x="261" y="698" type="curve" smooth="yes"/>
      <point x="261" y="749"/>
      <point x="278" y="808"/>
      <point x="326" y="808" type="curve" smooth="yes"/>
      <point x="400" y="808"/>
      <point x="443" y="664"/>
      <point x="385" y="23" type="curve" smooth="yes"/>
      <point x="383" y="-9"/>
      <point x="395" y="-17"/>
    </contour>
  </outline>
</glyph>
<glyph name="X.dec" format="2">
  <advance width="939"/>
  <outline>
    <contour>
      <point x="186" y="-17" type="curve" smooth="yes"/>
      <point x="294" y="-17"/>
      <point x="386" y="79"/>
      <point x="456" y="204" type="curve"/>
      <point x="456" y="39"/>
      <point x="524" y="-17"/>
      <point x="623" y="-17" type="curve" smooth="yes"/>
      <point x="698" y="-17"/>
      <point x="785" y="25"/>
      <point x="838" y="113" type="curve" smooth="yes"/>
      <point x="848" y="129"/>
      <point x="843" y="145"/>
      <point x="819" y="159" type="curve" smooth="yes"/>
      <point x="798" y="171"/>
      <point x="780" y="168"/>
      <point x="771" y="154" type="curve" smooth="yes"/>
      <point x="736" y="99"/>
      <point x="683" y="65"/>
      <point x="634" y="65" type="curve" smooth="yes"/>
      <point x="476" y="65"/>
      <point x="526" y="293"/>
      <point x="568" y="434" type="curve" smooth="yes"/>
      <point x="621" y="615"/>
      <point x="722" y="808"/>
      <point x="843" y="808" type="curve" smooth="yes"/>
      <point x="888" y="808"/>
      <point x="913" y="785"/>
      <point x="936" y="749" type="curve" smooth="yes"/>
      <point x="948" y="731"/>
      <point x="965" y="730"/>
      <point x="989" y="744" type="curve" smooth="yes"/>
      <point x="1008" y="755"/>
      <point x="1011" y="770"/>
      <point x="1001" y="788" type="curve" smooth="yes"/>
      <point x="968" y="850"/>
      <point x="923" y="890"/>
      <point x="854" y="890" type="curve" smooth="yes"/>
      <point x="749" y="890"/>
      <point x="661" y="801"/>
      <point x="595" y="684" type="curve"/>
      <point x="594" y="823"/>
      <point x="535" y="890"/>
      <point x="431" y="890" type="curve" smooth="yes"/>
      <point x="370" y="890"/>
      <point x="311" y="863"/>
      <point x="253" y="804" type="curve" smooth="yes"/>
      <point x="235" y="786"/>
      <point x="235" y="773"/>
      <point x="250" y="755" type="curve" smooth="yes"/>
      <point x="268" y="735"/>
      <point x="290" y="729"/>
      <point x="305" y="744" type="curve" smooth="yes"/>
      <point x="349" y="789"/>
      <point x="380" y="808"/>
      <point x="420" y="808" type="curve" smooth="yes"/>
      <point x="570" y="808"/>
      <point x="527" y="590"/>
      <point x="483" y="449" type="curve" smooth="yes"/>
      <point x="427" y="265"/>
      <point x="319" y="65"/>
      <point x="200" y="65" type="curve" smooth="yes"/>
      <point x="148" y="65"/>
      <point x="123" y="104"/>
      <point x="108" y="138" type="curve" smooth="yes"/>
      <point x="99" y="158"/>
      <point x="86" y="165"/>
      <point x="61" y="158" type="curve" smooth="yes"/>
      <point x="36" y="151"/>
      <point x="28" y="135"/>
      <point x="34" y="113" type="curve" smooth="yes"/>
      <point x="55" y="36"/>
      <point x="109" y="-17"/>
    </contour>
  </outline>
</glyph>
<glyph name="X.dec_ro" format="2">
  <advance width="939"/>
  <outline>
    <contour>
      <point x="309" y="410" type="curve" smooth="yes"/>
      <point x="725" y="410" type="line" smooth="yes"/>
      <point x="742" y="410"/>
      <point x="754" y="420"/>
      <point x="760" y="445" type="curve" smooth="yes"/>
      <point x="769" y="474"/>
      <point x="763" y="490"/>
      <point x="743" y="490" type="curve" smooth="yes"/>
      <point x="327" y="490" type="line" smooth="yes"/>
      <point x="310" y="490"/>
      <point x="298" y="480"/>
      <point x="292" y="455" type="curve" smooth="yes"/>
      <point x="283" y="426"/>
      <point x="289" y="410"/>
    </contour>
    <component base="X.dec"/>
  </outline>
</glyph>
<glyph name="X.dec_ro.ini" format="2">
  <advance width="889"/>
  <anchor x="808" y="0" name="cnct"/>
  <outline>
    <contour>
      <point x="309" y="410" type="curve" smooth="yes"/>
      <point x="725" y="410" type="line" smooth="yes"/>
      <point x="742" y="410"/>
      <point x="754" y="420"/>
      <point x="760" y="445" type="curve" smooth="yes"/>
      <point x="769" y="474"/>
      <point x="763" y="490"/>
      <point x="743" y="490" type="curve" smooth="yes"/>
      <point x="327" y="490" type="line" smooth="yes"/>
      <point x="310" y="490"/>
      <point x="298" y="480"/>
      <point x="292" y="455" type="curve" smooth="yes"/>
      <point x="283" y="426"/>
      <point x="289" y="410"/>
    </contour>
    <component base="X.dec.ini"/>
  </outline>
</glyph>
<glyph name="Y.cur" format="2">
  <advance width="800"/>
  <anchor x="771" y="0" name="bottom"/>
  <anchor x="615" y="838" name="top"/>
  <outline>
    <contour>
      <point x="403" y="-394" type="curve" smooth="yes"/>
      <point x="514" y="-394"/>
      <point x="573" y="-312"/>
      <point x="621" y="-161" type="curve" smooth="yes"/>
      <point x="954" y="858" type="line" smooth="yes"/>
      <point x="961" y="879"/>
      <point x="945" y="888"/>
      <point x="915" y="888" type="curve" smooth="yes"/>
      <point x="885" y="888"/>
      <point x="870" y="879"/>
      <point x="864" y="860" type="curve" smooth="yes"/>
      <point x="683" y="300" type="line"/>
      <point x="621" y="201"/>
      <point x="525" y="139"/>
      <point x="425" y="139" type="curve" smooth="yes"/>
      <point x="318" y="139"/>
      <point x="293" y="195"/>
      <point x="339" y="339" type="curve" smooth="yes"/>
      <point x="460" y="714" type="line" smooth="yes"/>
      <point x="496" y="825"/>
      <point x="458" y="893"/>
      <point x="365" y="893" type="curve" smooth="yes"/>
      <point x="296" y="893"/>
      <point x="228" y="849"/>
      <point x="170" y="784" type="curve" smooth="yes"/>
      <point x="153" y="764"/>
      <point x="153" y="750"/>
      <point x="170" y="733" type="curve" smooth="yes"/>
      <point x="186" y="716"/>
      <point x="200" y="715"/>
      <point x="220" y="733" type="curve" smooth="yes"/>
      <point x="278" y="783"/>
      <point x="313" y="808"/>
      <point x="345" y="808" type="curve" smooth="yes"/>
      <point x="381" y="808"/>
      <point x="394" y="786"/>
      <point x="375" y="729" type="curve" smooth="yes"/>
      <point x="245" y="331" type="line" smooth="yes"/>
      <point x="186" y="150"/>
      <point x="240" y="51"/>
      <point x="395" y="51" type="curve" smooth="yes"/>
      <point x="481" y="51"/>
      <point x="569" y="91"/>
      <point x="635" y="154" type="curve"/>
      <point x="529" y="-172" type="line" smooth="yes"/>
      <point x="499" y="-265"/>
      <point x="459" y="-316"/>
      <point x="409" y="-316" type="curve" smooth="yes"/>
      <point x="384" y="-316"/>
      <point x="368" y="-302"/>
      <point x="368" y="-274" type="curve" smooth="yes"/>
      <point x="368" y="-180"/>
      <point x="506" y="-72"/>
      <point x="646" y="10" type="curve" smooth="yes"/>
      <point x="720" y="55"/>
      <point x="808" y="99"/>
      <point x="878" y="130" type="curve" smooth="yes"/>
      <point x="899" y="139"/>
      <point x="905" y="155"/>
      <point x="894" y="176" type="curve" smooth="yes"/>
      <point x="886" y="194"/>
      <point x="873" y="198"/>
      <point x="854" y="190" type="curve" smooth="yes"/>
      <point x="783" y="158"/>
      <point x="696" y="114"/>
      <point x="628" y="74" type="curve" smooth="yes"/>
      <point x="459" y="-24"/>
      <point x="276" y="-157"/>
      <point x="276" y="-275" type="curve" smooth="yes"/>
      <point x="276" y="-357"/>
      <point x="334" y="-394"/>
    </contour>
  </outline>
</glyph>
<glyph name=".notdef" format="2">
  <advance width="844"/>
  <outline>
    <contour>
      <point x="325" y="890" type="line"/>
      <point x="35" y="0" type="line"/>
      <point x="646" y="0" type="line"/>
      <point x="936" y="890" type="line"/>
    </contour>
    <contour>
      <point x="389" y="810" type="line"/>
      <point x="821" y="810" type="line"/>
      <point x="583" y="80" type="line"/>
      <point x="150" y="80" type="line"/>
    </contour>
  </outline>
</glyph>
<glyph name="a.mod.ini" format="2">
  <advance width="623"/>
  <anchor x="227" y="0" name="bottom"/>
  <anchor x="542" y="0" name="cnct"/>
  <anchor x="508" y="0" name="ogonek"/>
  <anchor x="389" y="500" name="top"/>
  <outline>
    <contour>
      <point x="191" y="-17" type="curve" smooth="yes"/>
      <point x="251" y="-17"/>
      <point x="354" y="14"/>
      <point x="429" y="179" type="curve"/>
      <point x="412" y="226" type="line"/>
      <point x="357" y="125"/>
      <point x="288" y="63"/>
      <point x="219" y="63" type="curve" smooth="yes"/>
      <point x="163" y="63"/>
      <point x="134" y="96"/>
      <point x="134" y="160" type="curve" smooth="yes"/>
      <point x="134" y="259"/>
      <point x="194" y="440"/>
      <point x="371" y="440" type="curve" smooth="yes"/>
      <point x="416" y="440"/>
      <point x="456" y="428"/>
      <point x="509" y="389" type="curve"/>
      <point x="521" y="458" type="line"/>
      <point x="478" y="493"/>
      <point x="424" y="519"/>
      <point x="364" y="519" type="curve" smooth="yes"/>
      <point x="142" y="519"/>
      <point x="44" y="298"/>
      <point x="44" y="151" type="curve" smooth="yes"/>
      <point x="44" y="46"/>
      <point x="98" y="-17"/>
    </contour>
    <contour>
      <point x="486" y="-17" type="curve" smooth="yes"/>
      <point x="542" y="-17"/>
      <point x="548" y="58"/>
      <point x="511" y="58" type="curve" smooth="yes"/>
      <point x="464" y="58"/>
      <point x="448" y="78"/>
      <point x="469" y="141" type="curve" smooth="yes"/>
      <point x="578" y="476" type="line" smooth="yes"/>
      <point x="587" y="503"/>
      <point x="578" y="515"/>
      <point x="537" y="515" type="curve" smooth="yes"/>
      <point x="511" y="515"/>
      <point x="501" y="510"/>
      <point x="492" y="483" type="curve" smooth="yes"/>
      <point x="384" y="153" type="line" smooth="yes"/>
      <point x="351" y="50"/>
      <point x="393" y="-17"/>
    </contour>
  </outline>
</glyph>
<glyph name="ae.ful.med" format="2">
  <advance width="789"/>
  <anchor x="708" y="0" name="cnct"/>
  <anchor x="464" y="500" name="top"/>
  <outline>
    <contour>
      <point x="196" y="-17" type="curve" smooth="yes"/>
      <point x="279" y="-17"/>
      <point x="349" y="21"/>
      <point x="426" y="134" type="curve"/>
      <point x="399" y="219" type="line"/>
      <point x="323" y="105"/>
      <point x="264" y="63"/>
      <point x="211" y="63" type="curve" smooth="yes"/>
      <point x="171" y="63"/>
      <point x="146" y="90"/>
      <point x="146" y="145" type="curve" smooth="yes"/>
      <point x="146" y="265"/>
      <point x="228" y="440"/>
      <point x="379" y="440" type="curve" smooth="yes"/>
      <point x="433" y="440"/>
      <point x="464" y="426"/>
      <point x="491" y="411" type="curve"/>
      <point x="560" y="470" type="line"/>
      <point x="505" y="501"/>
      <point x="458" y="519"/>
      <point x="385" y="519" type="curve" smooth="yes"/>
      <point x="169" y="519"/>
      <point x="54" y="299"/>
      <point x="54" y="144" type="curve" smooth="yes"/>
      <point x="54" y="48"/>
      <point x="103" y="-17"/>
    </contour>
    <contour>
      <point x="625" y="519" type="curve" smooth="yes"/>
      <point x="575" y="519"/>
      <point x="558" y="439"/>
      <point x="608" y="439" type="curve" smooth="yes"/>
      <point x="641" y="439"/>
      <point x="661" y="420"/>
      <point x="661" y="390" type="curve" smooth="yes"/>
      <point x="661" y="319"/>
      <point x="568" y="255"/>
      <point x="415" y="221" type="curve"/>
      <point x="433" y="151" type="line"/>
      <point x="630" y="200"/>
      <point x="751" y="289"/>
      <point x="751" y="401" type="curve" smooth="yes"/>
      <point x="751" y="474"/>
      <point x="704" y="519"/>
    </contour>
  </outline>
</glyph>
<glyph name="b.ful" format="2">
  <advance width="582"/>
  <guideline x="175" y="-15" angle="81.57"/>
  <anchor x="228" y="0" name="bottom"/>
  <anchor x="309" y="250" name="center"/>
  <anchor x="391" y="500" name="top"/>
  <outline>
    <contour>
      <point x="226" y="-19" type="curve" smooth="yes"/>
      <point x="416" y="-19"/>
      <point x="524" y="216"/>
      <point x="524" y="355" type="curve" smooth="yes"/>
      <point x="524" y="395"/>
      <point x="517" y="434"/>
      <point x="504" y="470" type="curve" smooth="yes"/>
      <point x="492" y="505"/>
      <point x="482" y="519"/>
      <point x="459" y="519" type="curve" smooth="yes"/>
      <point x="424" y="519"/>
      <point x="404" y="500"/>
      <point x="418" y="463" type="curve" smooth="yes"/>
      <point x="429" y="434"/>
      <point x="436" y="399"/>
      <point x="436" y="360" type="curve" smooth="yes"/>
      <point x="436" y="240"/>
      <point x="356" y="61"/>
      <point x="237" y="61" type="curve" smooth="yes"/>
      <point x="134" y="61"/>
      <point x="167" y="180"/>
      <point x="194" y="265" type="curve" smooth="yes"/>
      <point x="384" y="853" type="line" smooth="yes"/>
      <point x="392" y="878"/>
      <point x="386" y="890"/>
      <point x="343" y="890" type="curve" smooth="yes"/>
      <point x="317" y="890"/>
      <point x="307" y="885"/>
      <point x="298" y="858" type="curve" smooth="yes"/>
      <point x="98" y="241" type="line" smooth="yes"/>
      <point x="54" y="108"/>
      <point x="81" y="-19"/>
    </contour>
  </outline>
</glyph>
<glyph name="b.ful.ini" format="2">
  <advance width="582"/>
  <guideline x="-22" y="204" angle="0"/>
  <anchor x="228" y="0" name="bottom"/>
  <anchor x="309" y="250" name="center"/>
  <anchor x="501" y="0" name="cnct"/>
  <anchor x="391" y="500" name="top"/>
  <outline>
    <contour>
      <point x="226" y="-19" type="curve" smooth="yes"/>
      <point x="421" y="-19"/>
      <point x="519" y="216"/>
      <point x="519" y="355" type="curve" smooth="yes"/>
      <point x="519" y="476"/>
      <point x="481" y="520"/>
      <point x="434" y="520" type="curve" smooth="yes"/>
      <point x="408" y="520"/>
      <point x="391" y="501"/>
      <point x="391" y="473" type="curve" smooth="yes"/>
      <point x="391" y="441"/>
      <point x="407" y="415"/>
      <point x="441" y="391" type="curve"/>
      <point x="442" y="333"/>
      <point x="432" y="288"/>
      <point x="422" y="255" type="curve" smooth="yes"/>
      <point x="393" y="156"/>
      <point x="323" y="61"/>
      <point x="237" y="61" type="curve" smooth="yes"/>
      <point x="134" y="61"/>
      <point x="167" y="180"/>
      <point x="194" y="265" type="curve" smooth="yes"/>
      <point x="384" y="853" type="line" smooth="yes"/>
      <point x="392" y="878"/>
      <point x="386" y="890"/>
      <point x="343" y="890" type="curve" smooth="yes"/>
      <point x="317" y="890"/>
      <point x="307" y="885"/>
      <point x="298" y="858" type="curve" smooth="yes"/>
      <point x="98" y="241" type="line" smooth="yes"/>
      <point x="54" y="108"/>
      <point x="81" y="-19"/>
    </contour>
  </outline>
</glyph>
<glyph name="b.jmc.med" format="2">
  <advance width="635"/>
  <anchor x="554" y="0" name="cnct"/>
  <anchor x="268" y="0" name="bottom"/>
  <anchor x="349" y="250" name="center"/>
  <anchor x="430" y="500" name="top"/>
  <outline>
    <contour>
      <point x="498" y="-17" type="curve" smooth="yes"/>
      <point x="530" y="-17"/>
      <point x="548" y="58"/>
      <point x="523" y="58" type="curve" smooth="yes"/>
      <point x="480" y="58"/>
      <point x="393" y="41"/>
      <point x="314" y="20" type="curve"/>
      <point x="275" y="-12" type="line"/>
      <point x="381" y="0"/>
      <point x="443" y="-17"/>
    </contour>
    <component base="b" xOffset="25"/>
  </outline>
</glyph>
<glyph name="b.jmc_dk.fin" format="2">
  <advance width="623"/>
  <anchor x="275" y="0" name="bottom"/>
  <anchor x="345" y="250" name="center"/>
  <anchor x="573" y="500" name="top"/>
  <outline>
    <contour>
      <point x="84" y="-15" type="curve" smooth="yes"/>
      <point x="114" y="-15"/>
      <point x="125" y="-7"/>
      <point x="131" y="11" type="curve" smooth="yes"/>
      <point x="365" y="734" type="line" smooth="yes"/>
      <point x="384" y="790"/>
      <point x="403" y="809"/>
      <point x="425" y="809" type="curve" smooth="yes"/>
      <point x="446" y="809"/>
      <point x="460" y="793"/>
      <point x="460" y="765" type="curve" smooth="yes"/>
      <point x="460" y="674"/>
      <point x="321" y="498"/>
      <point x="181" y="341" type="curve"/>
      <point x="165" y="275" type="line"/>
      <point x="401" y="499"/>
      <point x="549" y="626"/>
      <point x="549" y="770" type="curve" smooth="yes"/>
      <point x="549" y="845"/>
      <point x="501" y="894"/>
      <point x="440" y="894" type="curve" smooth="yes"/>
      <point x="365" y="894"/>
      <point x="315" y="850"/>
      <point x="280" y="743" type="curve" smooth="yes"/>
      <point x="46" y="18" type="line" smooth="yes"/>
      <point x="38" y="-7"/>
      <point x="63" y="-15"/>
    </contour>
    <contour>
      <point x="124" y="25" type="curve" smooth="yes"/>
      <point x="169" y="-2"/>
      <point x="210" y="-17"/>
      <point x="254" y="-17" type="curve" smooth="yes"/>
      <point x="471" y="-17"/>
      <point x="573" y="196"/>
      <point x="573" y="350" type="curve" smooth="yes"/>
      <point x="573" y="454"/>
      <point x="525" y="519"/>
      <point x="443" y="519" type="curve" smooth="yes"/>
      <point x="348" y="519"/>
      <point x="241" y="433"/>
      <point x="189" y="315" type="curve"/>
      <point x="229" y="315" type="line"/>
      <point x="290" y="402"/>
      <point x="340" y="439"/>
      <point x="399" y="439" type="curve" smooth="yes"/>
      <point x="455" y="439"/>
      <point x="483" y="405"/>
      <point x="483" y="341" type="curve" smooth="yes"/>
      <point x="483" y="238"/>
      <point x="421" y="61"/>
      <point x="248" y="61" type="curve" smooth="yes"/>
      <point x="216" y="61"/>
      <point x="188" y="68"/>
      <point x="154" y="85" type="curve" smooth="yes"/>
      <point x="121" y="101"/>
      <point x="93" y="45"/>
    </contour>
  </outline>
</glyph>
<glyph name="b.jmc_dk.ini" format="2">
  <advance width="664"/>
  <anchor x="581" y="0" name="cnct"/>
  <anchor x="275" y="0" name="bottom"/>
  <anchor x="385" y="250" name="center"/>
  <anchor x="573" y="500" name="top"/>
  <outline>
    <contour>
      <point x="514" y="-17" type="curve" smooth="yes"/>
      <point x="546" y="-17"/>
      <point x="564" y="58"/>
      <point x="539" y="58" type="curve" smooth="yes"/>
      <point x="496" y="58"/>
      <point x="400" y="64"/>
      <point x="309" y="30" type="curve"/>
      <point x="270" y="-2" type="line"/>
      <point x="389" y="23"/>
      <point x="459" y="-17"/>
    </contour>
    <component base="b.jmc_dk"/>
  </outline>
</glyph>
<glyph name="b.lop.fin" format="2">
  <advance width="614"/>
  <anchor x="248" y="0" name="bottom"/>
  <anchor x="329" y="250" name="center"/>
  <anchor x="410" y="500" name="top"/>
  <outline>
    <contour>
      <point x="251" y="-19" type="curve" smooth="yes"/>
      <point x="445" y="-19"/>
      <point x="564" y="216"/>
      <point x="564" y="349" type="curve" smooth="yes"/>
      <point x="564" y="386"/>
      <point x="556" y="421"/>
      <point x="551" y="438" type="curve" smooth="yes"/>
      <point x="540" y="471"/>
      <point x="529" y="486"/>
      <point x="506" y="486" type="curve" smooth="yes"/>
      <point x="471" y="486"/>
      <point x="454" y="469"/>
      <point x="465" y="430" type="curve" smooth="yes"/>
      <point x="471" y="409"/>
      <point x="475" y="384"/>
      <point x="475" y="360" type="curve" smooth="yes"/>
      <point x="475" y="240"/>
      <point x="385" y="61"/>
      <point x="263" y="61" type="curve" smooth="yes"/>
      <point x="151" y="61"/>
      <point x="186" y="180"/>
      <point x="214" y="265" type="curve" smooth="yes"/>
      <point x="365" y="734" type="line" smooth="yes"/>
      <point x="383" y="789"/>
      <point x="404" y="809"/>
      <point x="425" y="809" type="curve" smooth="yes"/>
      <point x="449" y="809"/>
      <point x="460" y="788"/>
      <point x="460" y="753" type="curve" smooth="yes"/>
      <point x="460" y="703"/>
      <point x="549" y="703"/>
      <point x="549" y="753" type="curve" smooth="yes"/>
      <point x="549" y="838"/>
      <point x="506" y="894"/>
      <point x="440" y="894" type="curve" smooth="yes"/>
      <point x="365" y="894"/>
      <point x="315" y="850"/>
      <point x="280" y="743" type="curve" smooth="yes"/>
      <point x="118" y="241" type="line" smooth="yes"/>
      <point x="74" y="108"/>
      <point x="101" y="-19"/>
    </contour>
  </outline>
</glyph>
<glyph name="b.mlp.fin" format="2">
  <advance width="689"/>
  <anchor x="298" y="0" name="bottom"/>
  <anchor x="379" y="250" name="center"/>
  <anchor x="460" y="500" name="top"/>
  <outline>
    <contour>
      <point x="294" y="-19" type="curve" smooth="yes"/>
      <point x="499" y="-19"/>
      <point x="654" y="249"/>
      <point x="654" y="420" type="curve" smooth="yes"/>
      <point x="654" y="505"/>
      <point x="611" y="536"/>
      <point x="559" y="536" type="curve" smooth="yes"/>
      <point x="479" y="536"/>
      <point x="450" y="478"/>
      <point x="450" y="425" type="curve" smooth="yes"/>
      <point x="450" y="371"/>
      <point x="493" y="324"/>
      <point x="584" y="324" type="curve" smooth="yes"/>
      <point x="671" y="324"/>
      <point x="739" y="348"/>
      <point x="799" y="378" type="curve" smooth="yes"/>
      <point x="824" y="390"/>
      <point x="795" y="454"/>
      <point x="765" y="438" type="curve" smooth="yes"/>
      <point x="716" y="411"/>
      <point x="654" y="390"/>
      <point x="590" y="390" type="curve" smooth="yes"/>
      <point x="544" y="390"/>
      <point x="515" y="403"/>
      <point x="515" y="434" type="curve" smooth="yes"/>
      <point x="515" y="456"/>
      <point x="529" y="478"/>
      <point x="549" y="478" type="curve" smooth="yes"/>
      <point x="563" y="478"/>
      <point x="578" y="470"/>
      <point x="578" y="430" type="curve" smooth="yes"/>
      <point x="578" y="295"/>
      <point x="468" y="61"/>
      <point x="301" y="61" type="curve" smooth="yes"/>
      <point x="165" y="61"/>
      <point x="188" y="180"/>
      <point x="223" y="288" type="curve" smooth="yes"/>
      <point x="365" y="734" type="line" smooth="yes"/>
      <point x="383" y="789"/>
      <point x="404" y="809"/>
      <point x="425" y="809" type="curve" smooth="yes"/>
      <point x="449" y="809"/>
      <point x="460" y="788"/>
      <point x="460" y="753" type="curve" smooth="yes"/>
      <point x="460" y="703"/>
      <point x="549" y="703"/>
      <point x="549" y="753" type="curve" smooth="yes"/>
      <point x="549" y="838"/>
      <point x="506" y="894"/>
      <point x="440" y="894" type="curve" smooth="yes"/>
      <point x="365" y="894"/>
      <point x="315" y="850"/>
      <point x="280" y="743" type="curve" smooth="yes"/>
      <point x="125" y="264" type="line" smooth="yes"/>
      <point x="78" y="115"/>
      <point x="115" y="-19"/>
    </contour>
  </outline>
</glyph>
<glyph name="b.mlp.med" format="2">
  <advance width="689"/>
  <anchor x="298" y="0" name="bottom"/>
  <anchor x="379" y="250" name="center"/>
  <anchor x="608" y="0" name="cnct"/>
  <anchor x="460" y="500" name="top"/>
  <outline>
    <contour>
      <point x="294" y="-19" type="curve" smooth="yes"/>
      <point x="499" y="-19"/>
      <point x="654" y="249"/>
      <point x="654" y="420" type="curve" smooth="yes"/>
      <point x="654" y="505"/>
      <point x="611" y="536"/>
      <point x="559" y="536" type="curve" smooth="yes"/>
      <point x="506" y="536"/>
      <point x="513" y="478"/>
      <point x="549" y="478" type="curve" smooth="yes"/>
      <point x="563" y="478"/>
      <point x="578" y="470"/>
      <point x="578" y="430" type="curve" smooth="yes"/>
      <point x="578" y="295"/>
      <point x="468" y="61"/>
      <point x="301" y="61" type="curve" smooth="yes"/>
      <point x="165" y="61"/>
      <point x="188" y="180"/>
      <point x="223" y="288" type="curve" smooth="yes"/>
      <point x="365" y="734" type="line" smooth="yes"/>
      <point x="383" y="789"/>
      <point x="404" y="809"/>
      <point x="425" y="809" type="curve" smooth="yes"/>
      <point x="449" y="809"/>
      <point x="460" y="788"/>
      <point x="460" y="753" type="curve" smooth="yes"/>
      <point x="460" y="703"/>
      <point x="549" y="703"/>
      <point x="549" y="753" type="curve" smooth="yes"/>
      <point x="549" y="838"/>
      <point x="506" y="894"/>
      <point x="440" y="894" type="curve" smooth="yes"/>
      <point x="365" y="894"/>
      <point x="315" y="850"/>
      <point x="280" y="743" type="curve" smooth="yes"/>
      <point x="125" y="264" type="line" smooth="yes"/>
      <point x="78" y="115"/>
      <point x="115" y="-19"/>
    </contour>
  </outline>
</glyph>
<glyph name="brevecomb_hookabovecomb.case" format="2">
  <anchor x="189" y="838" name="_top"/>
  <anchor x="312" y="1273" name="top"/>
  <outline>
    <contour>
      <point x="233" y="930" type="curve" smooth="yes"/>
      <point x="345" y="930"/>
      <point x="403" y="968"/>
      <point x="449" y="1105" type="curve" smooth="yes"/>
      <point x="455" y="1125"/>
      <point x="441" y="1139"/>
      <point x="418" y="1139" type="curve" smooth="yes"/>
      <point x="399" y="1139"/>
      <point x="389" y="1133"/>
      <point x="378" y="1109" type="curve" smooth="yes"/>
      <point x="354" y="1056"/>
      <point x="309" y="1016"/>
      <point x="248" y="1016" type="curve" smooth="yes"/>
      <point x="198" y="1016"/>
      <point x="163" y="1044"/>
      <point x="164" y="1111" type="curve" smooth="yes"/>
      <point x="164" y="1128"/>
      <point x="150" y="1139"/>
      <point x="130" y="1139" type="curve" smooth="yes"/>
      <point x="110" y="1139"/>
      <point x="98" y="1131"/>
      <point x="95" y="1111" type="curve" smooth="yes"/>
      <point x="81" y="989"/>
      <point x="136" y="930"/>
    </contour>
    <contour>
      <point x="304" y="1348" type="curve" smooth="yes"/>
      <point x="265" y="1348"/>
      <point x="232" y="1338"/>
      <point x="201" y="1318" type="curve" smooth="yes"/>
      <point x="186" y="1306"/>
      <point x="181" y="1293"/>
      <point x="187" y="1279" type="curve" smooth="yes"/>
      <point x="197" y="1256"/>
      <point x="211" y="1248"/>
      <point x="224" y="1255" type="curve" smooth="yes"/>
      <point x="245" y="1268"/>
      <point x="267" y="1275"/>
      <point x="286" y="1275" type="curve" smooth="yes"/>
      <point x="302" y="1275"/>
      <point x="311" y="1269"/>
      <point x="311" y="1258" type="curve" smooth="yes"/>
      <point x="311" y="1244"/>
      <point x="301" y="1230"/>
      <point x="277" y="1219" type="curve" smooth="yes"/>
      <point x="242" y="1201"/>
      <point x="227" y="1178"/>
      <point x="235" y="1146" type="curve" smooth="yes"/>
      <point x="241" y="1120" type="line" smooth="yes"/>
      <point x="249" y="1090"/>
      <point x="316" y="1098"/>
      <point x="312" y="1129" type="curve" smooth="yes"/>
      <point x="311" y="1139" type="line" smooth="yes"/>
      <point x="310" y="1151"/>
      <point x="315" y="1163"/>
      <point x="349" y="1178" type="curve" smooth="yes"/>
      <point x="385" y="1194"/>
      <point x="409" y="1225"/>
      <point x="409" y="1266" type="curve" smooth="yes"/>
      <point x="409" y="1318"/>
      <point x="369" y="1348"/>
    </contour>
  </outline>
</glyph>
